<svg width="126" height="29" viewBox="0 0 126 29" fill="none" xmlns="http://www.w3.org/2000/svg">
<g clip-path="url(#clip0_337_1615)">
<path fill-rule="evenodd" clip-rule="evenodd" d="M3.04965 27.1472L5.64939 25.6892L6.69317 25.1033L7.71793 24.5254L9.32578 23.6241L11.8794 22.1978L14.4356 23.6241L16.0408 24.5254L17.0654 25.1033L18.112 25.6892L20.6573 27.126L21.4312 27.5555L22.1861 27.977L23.7177 28.8359V15.0349L20.6573 13.3144V23.7089L18.5861 22.5424L15.5338 20.8352L14.3701 20.1725L13.411 19.6423V2.50371H10.3504V20.0505L8.22478 21.2461L5.17527 22.9666L3.04965 24.1516V13.3356L0 15.0455V28.8571L1.5207 27.9982L2.28384 27.5767L3.04965 27.1472ZM18.5834 20.1619V-0.592644H15.5311V18.4547L18.5834 20.1619ZM8.22758 18.8523V5.59742H5.17793V20.5728L8.22758 18.8523Z" fill="#1AC2E7"/>
</g>
<path d="M36.6484 20.6625H39.3142L41.7714 12.3889H41.8725L44.336 20.6625H47.0018L50.7034 8.00796H47.7156L45.5742 16.8192H45.4604L43.1043 8.00796H40.5459L38.1834 16.8006H38.0761L35.9346 8.00796H32.9468L36.6484 20.6625Z" fill="white"/>
<path d="M52.1674 20.6625H60.9099V18.4566H54.9026V15.4351H60.4361V13.2292H54.9026V10.2139H60.8846V8.00796H52.1674V20.6625Z" fill="white"/>
<path d="M63.0592 20.6625H71.3406V18.4566H65.7944V8.00796H63.0592V20.6625Z" fill="white"/>
<path d="M70.7436 8.00796L75.4623 16.1889V20.6625H78.1785V16.1889L82.8972 8.00796H79.8336L76.8836 13.4578H76.7573L73.8073 8.00796H70.7436Z" fill="white"/>
<path d="M84.7149 10.2139H88.6756V20.6625H91.3792V10.2139H95.3398V8.00796H84.7149V10.2139Z" fill="white"/>
<path d="M99.8248 8.00796H97.0896V20.6625H99.8248V8.00796Z" fill="white"/>
<path d="M113.49 12.4383C113.13 9.51563 110.868 7.83495 107.874 7.83495C104.457 7.83495 101.848 10.1953 101.848 14.3352C101.848 18.4628 104.412 20.8355 107.874 20.8355C111.19 20.8355 113.193 18.6791 113.49 16.3496L110.723 16.3372C110.464 17.6904 109.377 18.469 107.918 18.469C105.954 18.469 104.621 17.0416 104.621 14.3352C104.621 11.703 105.935 10.2015 107.937 10.2015C109.434 10.2015 110.514 11.048 110.723 12.4383H113.49Z" fill="white"/>
<path d="M122.469 11.6474H125.091C125.053 9.39205 123.158 7.83495 120.277 7.83495C117.441 7.83495 115.363 9.36733 115.375 11.6659C115.369 13.532 116.714 14.6009 118.9 15.1138L120.309 15.4598C121.717 15.7935 122.501 16.1889 122.507 17.0416C122.501 17.9685 121.604 18.5987 120.214 18.5987C118.793 18.5987 117.769 17.9561 117.681 16.6894H115.034C115.104 19.4267 117.106 20.8417 120.246 20.8417C123.404 20.8417 125.261 19.3649 125.267 17.0478C125.261 14.9408 123.638 13.8224 121.389 13.3281L120.227 13.0562C119.102 12.8028 118.161 12.395 118.18 11.4867C118.18 10.6711 118.919 10.0717 120.258 10.0717C121.566 10.0717 122.368 10.6526 122.469 11.6474Z" fill="white"/>
<defs>
<clipPath id="clip0_337_1615">
<rect width="23.7176" height="29" fill="white"/>
</clipPath>
</defs>
</svg>
