<svg width="112" height="30" viewBox="0 0 112 30" fill="none" xmlns="http://www.w3.org/2000/svg">
<g clip-path="url(#clip0_337_1598)">
<path fill-rule="evenodd" clip-rule="evenodd" d="M16.3496 29.4283C19.5296 29.0492 22.4912 27.5855 24.7551 25.2741C27.0189 22.9627 28.4525 19.9388 28.8237 16.692H23.4793C23.1422 18.494 22.282 20.1507 21.0105 21.4468C19.739 22.7429 18.115 23.6185 16.3496 23.9598V29.4283Z" fill="#F7936F"/>
<path fill-rule="evenodd" clip-rule="evenodd" d="M21.0971 2.02881L21.1308 2.00633C24.589 -0.022471 27.3852 -0.61906 28.6871 0.71138C32.3702 4.4707 21.984 16.1641 18.9072 19.3056C17.0569 21.2003 15.096 22.9791 13.0354 24.6321V29.4247C11.3786 29.2327 9.76889 28.7396 8.28221 27.9688L8.24859 27.9913C4.79039 30.0201 1.99535 30.6167 0.692291 29.2933C-1.09303 27.4705 0.995988 23.2744 1.98371 21.5427C1.23346 20.0229 0.750819 18.3802 0.557794 16.6897H5.91374C6.14795 17.9589 6.64338 19.1629 7.36723 20.2222C8.09107 21.2814 9.02687 22.1716 10.1128 22.8341C9.49485 23.2922 8.86649 23.7278 8.21497 24.1361C7.26086 24.7552 6.27315 25.3399 5.25065 25.8666C4.45041 25.1431 3.73465 24.3277 3.11754 23.4366C2.03939 25.5577 1.68001 27.1166 2.25271 27.6978C4.71159 30.1835 15.7713 19.811 17.5903 17.9539C19.5268 15.9792 21.3382 13.8807 23.0135 11.6709C22.4614 10.2305 21.5597 8.95709 20.393 7.97043C19.2262 6.98378 17.8329 6.31631 16.344 6.03079V0.562236C18.0011 0.752587 19.6111 1.24575 21.0971 2.01815V2.02881ZM26.2618 6.55752C27.34 4.43639 27.6994 2.8775 27.1267 2.29632C26.554 1.71514 25.0399 2.09037 22.9613 3.19118C24.2392 4.11711 25.355 5.25637 26.2618 6.56107V6.55752Z" fill="#F16063"/>
<path fill-rule="evenodd" clip-rule="evenodd" d="M13.0376 0.572891C9.85752 0.952204 6.8959 2.41615 4.63207 4.72777C2.36825 7.03939 0.934687 10.0634 0.563477 13.3103H5.91948C6.25202 11.5082 7.10923 9.8504 8.37915 8.55359C9.64906 7.25677 11.2726 6.38124 13.0376 6.04142V0.572891Z" fill="#F7936F"/>
</g>
<path d="M53.6313 18.473C53.6313 19.1051 53.5131 19.7017 53.2766 20.2628C53.047 20.8168 52.727 21.3033 52.3166 21.7223C51.9132 22.1342 51.4367 22.4609 50.8871 22.7024C50.3446 22.9368 49.7637 23.054 49.1446 23.054C48.5881 23.054 48.0525 22.9545 47.5378 22.7557C47.03 22.5568 46.5709 22.2656 46.1605 21.8821C45.7501 22.2656 45.2875 22.5568 44.7727 22.7557C44.258 22.9545 43.7224 23.054 43.1659 23.054C42.5468 23.054 41.9625 22.9368 41.4129 22.7024C40.8704 22.4609 40.3939 22.1342 39.9835 21.7223C39.58 21.3033 39.26 20.8168 39.0235 20.2628C38.794 19.7017 38.6792 19.1051 38.6792 18.473V7.56392H41.6738V18.473C41.6738 18.6861 41.7121 18.8885 41.7886 19.0803C41.8651 19.2649 41.9694 19.4283 42.1016 19.5703C42.2407 19.7053 42.4007 19.8118 42.5816 19.8899C42.7624 19.968 42.9572 20.0071 43.1659 20.0071C43.3746 20.0071 43.5693 19.968 43.7502 19.8899C43.931 19.8118 44.0876 19.7053 44.2197 19.5703C44.3588 19.4283 44.4667 19.2649 44.5432 19.0803C44.6197 18.8885 44.658 18.6861 44.658 18.473V7.56392H47.6526V18.473C47.6526 18.6861 47.6908 18.8885 47.7673 19.0803C47.8438 19.2649 47.9482 19.4283 48.0804 19.5703C48.2195 19.7053 48.3795 19.8118 48.5603 19.8899C48.7412 19.968 48.936 20.0071 49.1446 20.0071C49.3533 20.0071 49.5481 19.968 49.7289 19.8899C49.9098 19.8118 50.0663 19.7053 50.1985 19.5703C50.3376 19.4283 50.4454 19.2649 50.5219 19.0803C50.6054 18.8885 50.6472 18.6861 50.6472 18.473V7.56392H53.6313V18.473Z" fill="white"/>
<path d="M59.3701 8.33096C59.3701 8.60085 59.3179 8.85298 59.2136 9.08736C59.1162 9.32173 58.9805 9.5277 58.8066 9.70525C58.6327 9.87571 58.4275 10.0142 58.191 10.1207C57.9615 10.2202 57.7145 10.2699 57.4502 10.2699C57.1859 10.2699 56.9355 10.2202 56.6989 10.1207C56.4694 10.0142 56.2677 9.87571 56.0938 9.70525C55.9268 9.5277 55.7912 9.32173 55.6868 9.08736C55.5895 8.85298 55.5408 8.60085 55.5408 8.33096C55.5408 8.06818 55.5895 7.8196 55.6868 7.58523C55.7912 7.34375 55.9268 7.13778 56.0938 6.96733C56.2677 6.78977 56.4694 6.65128 56.6989 6.55185C56.9355 6.44531 57.1859 6.39204 57.4502 6.39204C57.7145 6.39204 57.9615 6.44531 58.191 6.55185C58.4275 6.65128 58.6327 6.78977 58.8066 6.96733C58.9805 7.13778 59.1162 7.34375 59.2136 7.58523C59.3179 7.8196 59.3701 8.06818 59.3701 8.33096ZM58.8797 22.8409H56.0103V11.4311H58.8797V22.8409Z" fill="white"/>
<path d="M67.1957 22.8409H60.6848V19.9432H67.1957C67.3905 19.9432 67.5574 19.8722 67.6965 19.7301C67.8356 19.5881 67.9052 19.4176 67.9052 19.2187C67.9052 19.0128 67.8356 18.8778 67.6965 18.8139C67.5574 18.75 67.3905 18.718 67.1957 18.718H64.2324C63.7385 18.718 63.2759 18.6222 62.8447 18.4304C62.4134 18.2386 62.0377 17.9794 61.7178 17.6527C61.3978 17.3189 61.1439 16.9318 60.9561 16.4915C60.7752 16.0511 60.6848 15.5788 60.6848 15.0746C60.6848 14.5703 60.7752 14.098 60.9561 13.6577C61.1439 13.2173 61.3978 12.8338 61.7178 12.5071C62.0377 12.1804 62.4134 11.9247 62.8447 11.7401C63.2759 11.5483 63.7385 11.4524 64.2324 11.4524H70.0025V14.3501H64.2324C64.0376 14.3501 63.8707 14.4212 63.7316 14.5632C63.5924 14.7053 63.5229 14.8757 63.5229 15.0746C63.5229 15.2805 63.5924 15.4581 63.7316 15.6072C63.8707 15.7493 64.0376 15.8203 64.2324 15.8203H67.1957C67.6826 15.8203 68.1417 15.9055 68.573 16.076C69.0043 16.2393 69.3799 16.4702 69.6999 16.7685C70.0199 17.0668 70.2738 17.4254 70.4616 17.8445C70.6494 18.2635 70.7433 18.7216 70.7433 19.2187C70.7433 19.723 70.6494 20.1953 70.4616 20.6357C70.2738 21.0689 70.0199 21.4524 69.6999 21.7862C69.3799 22.1129 69.0043 22.3722 68.573 22.5639C68.1417 22.7486 67.6826 22.8409 67.1957 22.8409Z" fill="white"/>
<path d="M75.1152 22.8409H72.2667V6.89275H75.1152V11.9318C75.456 11.669 75.8073 11.4844 76.169 11.3778C76.5308 11.2642 76.8994 11.2074 77.2751 11.2074C77.9637 11.2074 78.6106 11.3423 79.2158 11.6122C79.821 11.875 80.3462 12.2408 80.7914 12.7095C81.2435 13.1712 81.5983 13.7145 81.8556 14.3395C82.12 14.9574 82.2521 15.6179 82.2521 16.321V22.8409H79.3828V16.321H79.4036C79.4036 16.0227 79.348 15.7422 79.2367 15.4794C79.1254 15.2095 78.9724 14.9751 78.7776 14.7763C78.5828 14.5774 78.3567 14.4212 78.0994 14.3075C77.842 14.1939 77.5672 14.1371 77.2751 14.1371C76.976 14.1371 76.6942 14.1939 76.4299 14.3075C76.1656 14.4212 75.936 14.5774 75.7412 14.7763C75.5465 14.9751 75.3934 15.2095 75.2821 15.4794C75.1708 15.7422 75.1152 16.0227 75.1152 16.321V22.8409Z" fill="white"/>
<path d="M88.7317 20.0497C88.843 20.0852 88.9543 20.1101 89.0656 20.1243C89.1769 20.1314 89.2882 20.1349 89.3995 20.1349C89.6778 20.1349 89.9456 20.0959 90.203 20.0178C90.4603 19.9396 90.7003 19.8295 90.9229 19.6875C91.1525 19.5384 91.3542 19.3608 91.5281 19.1548C91.709 18.9418 91.855 18.7074 91.9663 18.4517L94.0532 20.593C93.7888 20.9766 93.4828 21.321 93.1349 21.6264C92.7941 21.9318 92.422 22.191 92.0185 22.4041C91.622 22.6172 91.2012 22.777 90.756 22.8835C90.3177 22.9972 89.8656 23.054 89.3995 23.054C88.6135 23.054 87.8727 22.9048 87.1771 22.6065C86.4884 22.3082 85.8832 21.8928 85.3615 21.3601C84.8468 20.8274 84.4398 20.1953 84.1407 19.4638C83.8416 18.7251 83.6921 17.9155 83.6921 17.0348C83.6921 16.1328 83.8416 15.3089 84.1407 14.5632C84.4398 13.8175 84.8468 13.1818 85.3615 12.6562C85.8832 12.1307 86.4884 11.7223 87.1771 11.4311C87.8727 11.1399 88.6135 10.9943 89.3995 10.9943C89.8656 10.9943 90.3212 11.0511 90.7664 11.1648C91.2116 11.2784 91.6324 11.4418 92.0289 11.6548C92.4324 11.8679 92.808 12.1307 93.1558 12.4432C93.5036 12.7486 93.8097 13.093 94.074 13.4766L88.7317 20.0497ZM90.1925 14.0518C90.0604 14.0021 89.9282 13.9702 89.796 13.956C89.6708 13.9418 89.5387 13.9347 89.3995 13.9347C89.01 13.9347 88.6413 14.0092 88.2935 14.1584C87.9527 14.3004 87.6535 14.5064 87.3962 14.7763C87.1458 15.0462 86.9475 15.3729 86.8014 15.7564C86.6553 16.1328 86.5823 16.5589 86.5823 17.0348C86.5823 17.1413 86.5858 17.2621 86.5927 17.397C86.6067 17.532 86.6241 17.6705 86.6449 17.8125C86.6727 17.9474 86.704 18.0788 86.7388 18.2067C86.7736 18.3345 86.8188 18.4482 86.8745 18.5476L90.1925 14.0518Z" fill="white"/>
<path d="M98.3833 22.8409H95.5139V6.89275H98.3833V22.8409Z" fill="white"/>
<path d="M103.433 27.1875H100.564V11.4311H101.253L102.39 12.8054C102.647 12.5568 102.929 12.3224 103.235 12.1023C103.541 11.8821 103.858 11.6939 104.185 11.5376C104.519 11.3743 104.863 11.2464 105.218 11.1541C105.572 11.0618 105.931 11.0156 106.292 11.0156C107.078 11.0156 107.816 11.1612 108.504 11.4524C109.2 11.7365 109.805 12.1413 110.32 12.6669C110.842 13.1925 111.252 13.8281 111.551 14.5739C111.85 15.3125 112 16.1328 112 17.0348C112 17.9723 111.85 18.8175 111.551 19.5703C111.252 20.316 110.842 20.9517 110.32 21.4773C109.805 21.9957 109.2 22.3935 108.504 22.6705C107.816 22.9474 107.078 23.0859 106.292 23.0859C106.042 23.0859 105.792 23.0575 105.541 23.0007C105.298 22.9439 105.054 22.8693 104.811 22.777C104.574 22.6776 104.338 22.5675 104.101 22.4467C103.872 22.326 103.649 22.2017 103.433 22.0739V27.1875ZM109.141 17.0348C109.141 16.5518 109.064 16.1186 108.911 15.7351C108.765 15.3516 108.564 15.0284 108.306 14.7656C108.049 14.4957 107.746 14.2898 107.398 14.1477C107.051 14.0057 106.682 13.9347 106.292 13.9347C105.903 13.9347 105.534 14.0057 105.186 14.1477C104.846 14.2898 104.546 14.4957 104.289 14.7656C104.032 15.0284 103.826 15.3516 103.673 15.7351C103.527 16.1186 103.454 16.5518 103.454 17.0348C103.454 17.4964 103.527 17.919 103.673 18.3026C103.826 18.6861 104.032 19.0128 104.289 19.2827C104.546 19.5526 104.846 19.7621 105.186 19.9112C105.534 20.0604 105.903 20.1349 106.292 20.1349C106.682 20.1349 107.051 20.0604 107.398 19.9112C107.746 19.7621 108.049 19.5526 108.306 19.2827C108.564 19.0128 108.765 18.6861 108.911 18.3026C109.064 17.919 109.141 17.4964 109.141 17.0348Z" fill="white"/>
<defs>
<clipPath id="clip0_337_1598">
<rect width="29.4695" height="30" fill="white"/>
</clipPath>
</defs>
</svg>
