<svg width="190" height="45" viewBox="0 0 190 45" fill="none" xmlns="http://www.w3.org/2000/svg">
<g clip-path="url(#clip0_337_1333)">
<path fill-rule="evenodd" clip-rule="evenodd" d="M4.59855 41.6888L8.5188 39.4767L10.0928 38.5878L11.638 37.7109L14.0626 36.3434L17.9132 34.1795L21.7678 36.3434L24.1884 37.7109L25.7334 38.5878L27.3116 39.4767L31.1498 41.6567L32.3168 42.3083L33.4551 42.9478L35.7647 44.251V23.3116L31.1498 20.7012V36.4721L28.0265 34.7023L23.4238 32.1121L21.6691 31.1065L20.2228 30.3021V4.29874H15.6076V30.9215L12.4023 32.7355L7.80385 35.3459L4.59855 37.1438V20.7333L-0.00012207 23.3276V44.2832L2.29299 42.98L3.44376 42.3404L4.59855 41.6888ZM28.0225 31.0904V-0.399185H23.4198V28.5002L28.0225 31.0904ZM12.4065 29.1035V8.99263H7.80787V31.7139L12.4065 29.1035Z" fill="#787A88"/>
</g>
<path d="M55.2632 31.85H59.2829L62.9883 19.2969H63.1407L66.8556 31.85H70.8754L76.4572 12.65H71.9517L68.7226 26.0187H68.5512L64.9982 12.65H61.1404L57.5779 25.9906H57.416L54.1869 12.65H49.6813L55.2632 31.85Z" fill="#787A88"/>
<path d="M78.6647 31.85H91.8479V28.5031H82.7892V23.9187H91.1335V20.5719H82.7892V15.9969H91.8098V12.65H78.6647V31.85Z" fill="#787A88"/>
<path d="M95.0889 31.85H107.577V28.5031H99.2134V12.65H95.0889V31.85Z" fill="#787A88"/>
<path d="M106.677 12.65L113.792 25.0625V31.85H117.888V25.0625L125.003 12.65H120.384L115.935 20.9187H115.745L111.296 12.65H106.677Z" fill="#787A88"/>
<path d="M127.744 15.9969H133.717V31.85H137.794V15.9969H143.766V12.65H127.744V15.9969Z" fill="#787A88"/>
<path d="M150.529 12.65H146.405V31.85H150.529V12.65Z" fill="#787A88"/>
<path d="M171.135 19.3719C170.592 14.9375 167.182 12.3875 162.667 12.3875C157.514 12.3875 153.58 15.9687 153.58 22.25C153.58 28.5125 157.447 32.1125 162.667 32.1125C167.668 32.1125 170.687 28.8406 171.135 25.3062L166.963 25.2875C166.572 27.3406 164.934 28.5219 162.734 28.5219C159.771 28.5219 157.761 26.3562 157.761 22.25C157.761 18.2562 159.743 15.9781 162.762 15.9781C165.02 15.9781 166.648 17.2625 166.963 19.3719H171.135Z" fill="#787A88"/>
<path d="M184.675 18.1719H188.628C188.571 14.75 185.714 12.3875 181.37 12.3875C177.093 12.3875 173.959 14.7125 173.978 18.2C173.969 21.0312 175.998 22.6531 179.293 23.4312L181.418 23.9562C183.542 24.4625 184.723 25.0625 184.732 26.3562C184.723 27.7625 183.37 28.7187 181.275 28.7187C179.132 28.7187 177.588 27.7437 177.455 25.8219H173.464C173.569 29.975 176.588 32.1219 181.322 32.1219C186.085 32.1219 188.886 29.8812 188.895 26.3656C188.886 23.1687 186.438 21.4719 183.046 20.7219L181.294 20.3094C179.598 19.925 178.179 19.3062 178.208 17.9281C178.208 16.6906 179.322 15.7812 181.341 15.7812C183.313 15.7812 184.523 16.6625 184.675 18.1719Z" fill="#787A88"/>
<defs>
<clipPath id="clip0_337_1333">
<rect width="35.7647" height="44" fill="white" transform="translate(0 0.5)"/>
</clipPath>
</defs>
</svg>
