<svg width="157" height="45" viewBox="0 0 157 45" fill="none" xmlns="http://www.w3.org/2000/svg">
<path d="M53.4773 15.1696C53.4773 23.0896 62.0812 24.1588 62.0812 29.8612C62.0812 31.8412 61.2008 32.554 59.8002 32.554C58.3995 32.554 57.5191 31.8412 57.5191 29.8612V27.8812H53.3573V29.584C53.3573 34.0192 55.5983 36.5536 59.9202 36.5536C64.2422 36.5536 66.4832 34.0192 66.4832 29.584C66.4832 21.664 57.8793 20.5948 57.8793 14.8924C57.8793 12.9124 58.6797 12.16 60.0803 12.16C61.4809 12.16 62.2813 12.9124 62.2813 14.8924V16.0408H66.4431V15.1696C66.4431 10.7344 64.2422 8.2 59.9602 8.2C55.6783 8.2 53.4773 10.7344 53.4773 15.1696Z" fill="#787A88"/>
<path d="M72.8535 36.2368H77.2555V27.0496L82.818 8.5168H78.6161L75.2546 21.1492L71.8931 8.5168H67.291L72.8535 27.0496V36.2368Z" fill="#787A88"/>
<path d="M90.6809 8.5168H84.5581V36.2368H88.3999V16.6348L91.6813 36.2368H95.8432L98.8846 16.3576V36.2368H103.046V8.5168H96.9237L93.9223 28.198L90.6809 8.5168Z" fill="#787A88"/>
<path d="M104.968 12.4768H109.57V36.2368H113.972V12.4768H118.574V8.5168H104.968V12.4768Z" fill="#787A88"/>
<path d="M134.199 36.2368C133.759 35.2072 133.719 34.2172 133.719 32.8708V28.594C133.719 25.7032 132.998 23.6044 130.797 22.6936C132.758 21.7828 133.679 19.9216 133.679 17.0704V14.8924C133.679 10.6156 131.718 8.5168 127.156 8.5168H120.513V36.2368H124.915V24.9508H126.435C128.436 24.9508 129.317 25.9012 129.317 28.4752V32.8312C129.317 35.0884 129.477 35.524 129.717 36.2368H134.199ZM127.036 12.4768C128.596 12.4768 129.277 13.348 129.277 15.328V18.0604C129.277 20.278 128.276 20.9908 126.635 20.9908H124.915V12.4768H127.036Z" fill="#787A88"/>
<path d="M136.614 36.2368H141.016V8.5168H136.614V36.2368Z" fill="#787A88"/>
<path d="M152.838 25.9012V29.8612C152.838 31.8412 151.958 32.554 150.557 32.554C149.156 32.554 148.276 31.8412 148.276 29.8612V14.8924C148.276 12.9124 149.156 12.16 150.557 12.16C151.958 12.16 152.838 12.9124 152.838 14.8924V17.8624H157V15.1696C157 10.7344 154.759 8.2 150.437 8.2C146.115 8.2 143.874 10.7344 143.874 15.1696V29.584C143.874 34.0192 146.115 36.5536 150.437 36.5536C154.759 36.5536 157 34.0192 157 29.584V25.9012H152.838Z" fill="#787A88"/>
<g clip-path="url(#clip0_337_1335)">
<path fill-rule="evenodd" clip-rule="evenodd" d="M15.1251 14.4503L12.7197 18.5655L10.4309 14.6368L12.8244 10.5216H29.5427L33.0925 4.42879H9.27161L4.57746 12.486C8.09883 18.5058 11.6148 24.5256 15.1251 30.5455H22.2247C20.4416 27.4911 18.6594 24.4373 16.8783 21.384L16.3847 20.5387H32.6557L39.6535 32.529L32.6557 44.5001H6.9829L0.0568695 32.4136L3.53486 26.4362L5.83854 30.3634L4.59244 32.5142L9.28658 40.5714H30.3535L35.0626 32.5142L30.3684 24.4571H23.2689C24.7747 27.0525 26.2816 29.6474 27.7895 32.2419L27.96 32.5098L26.8157 34.4741H12.8364C8.60494 27.2336 4.379 19.9984 0.158545 12.7687L-3.05176e-05 12.4815L6.9829 0.491219H39.9856L31.8494 14.4503H15.1251Z" fill="#787A88"/>
</g>
<defs>
<clipPath id="clip0_337_1335">
<rect width="39.9871" height="44" fill="white" transform="translate(0 0.5)"/>
</clipPath>
</defs>
</svg>
