<svg width="114" height="32" viewBox="0 0 114 32" fill="none" xmlns="http://www.w3.org/2000/svg">
<path d="M38.8308 10.6688C38.8308 16.4288 45.0782 17.2064 45.0782 21.3536C45.0782 22.7936 44.4389 23.312 43.4219 23.312C42.4049 23.312 41.7656 22.7936 41.7656 21.3536V19.9136H38.7437V21.152C38.7437 24.3776 40.3709 26.2208 43.5091 26.2208C46.6473 26.2208 48.2746 24.3776 48.2746 21.152C48.2746 15.392 42.0272 14.6144 42.0272 10.4672C42.0272 9.0272 42.6083 8.48 43.6253 8.48C44.6423 8.48 45.2235 9.0272 45.2235 10.4672V11.3024H48.2455V10.6688C48.2455 7.4432 46.6473 5.6 43.5382 5.6C40.429 5.6 38.8308 7.4432 38.8308 10.6688Z" fill="white"/>
<path d="M52.9002 25.9904H56.0965V19.3088L60.1355 5.8304H57.0845L54.6436 15.0176L52.2028 5.8304H48.8612L52.9002 19.3088V25.9904Z" fill="white"/>
<path d="M65.8449 5.8304H61.3991V25.9904H64.1886V11.7344L66.5713 25.9904H69.5933L71.8017 11.5328V25.9904H74.8237V5.8304H70.3779L68.1985 20.144L65.8449 5.8304Z" fill="white"/>
<path d="M76.2189 8.7104H79.5605V25.9904H82.7569V8.7104H86.0985V5.8304H76.2189V8.7104Z" fill="white"/>
<path d="M97.4439 25.9904C97.1243 25.2416 97.0952 24.5216 97.0952 23.5424V20.432C97.0952 18.3296 96.5722 16.8032 94.974 16.1408C96.3978 15.4784 97.0661 14.1248 97.0661 12.0512V10.4672C97.0661 7.3568 95.6423 5.8304 92.3298 5.8304H87.5062V25.9904H90.7025V17.7824H91.8067C93.2596 17.7824 93.8989 18.4736 93.8989 20.3456V23.5136C93.8989 25.1552 94.0151 25.472 94.1894 25.9904H97.4439ZM92.2426 8.7104C93.3758 8.7104 93.8698 9.344 93.8698 10.784V12.7712C93.8698 14.384 93.1434 14.9024 91.952 14.9024H90.7025V8.7104H92.2426Z" fill="white"/>
<path d="M99.1973 25.9904H102.394V5.8304H99.1973V25.9904Z" fill="white"/>
<path d="M110.978 18.4736V21.3536C110.978 22.7936 110.339 23.312 109.322 23.312C108.305 23.312 107.666 22.7936 107.666 21.3536V10.4672C107.666 9.0272 108.305 8.48 109.322 8.48C110.339 8.48 110.978 9.0272 110.978 10.4672V12.6272H114V10.6688C114 7.4432 112.373 5.6 109.235 5.6C106.096 5.6 104.469 7.4432 104.469 10.6688V21.152C104.469 24.3776 106.096 26.2208 109.235 26.2208C112.373 26.2208 114 24.3776 114 21.152V18.4736H110.978Z" fill="white"/>
<g clip-path="url(#clip0_337_1604)">
<path fill-rule="evenodd" clip-rule="evenodd" d="M10.9826 10.1457L9.236 13.1386L7.57408 10.2813L9.312 7.28846H21.4514L24.029 2.8573H6.73227L3.32379 8.71707C5.8807 13.0951 8.43367 17.4732 10.9826 21.8512H16.1377C14.843 19.6299 13.5489 17.409 12.2556 15.1884L11.8972 14.5736H23.7118L28.793 23.2938L23.7118 32.0001H5.07041L0.041316 23.2099L2.56673 18.8627L4.23947 21.7188L3.33466 23.2831L6.74314 29.1429H22.0401L25.4595 23.2831L22.051 17.4233H16.8959C17.9893 19.3109 19.0835 21.1981 20.1784 23.085L20.3022 23.2799L19.4713 24.7085H9.3207C6.2482 19.4426 3.17968 14.1807 0.115144 8.92269L0 8.71384L5.07041 -0.0063858H29.0342L23.1263 10.1457H10.9826Z" fill="#7F46F0"/>
</g>
<defs>
<clipPath id="clip0_337_1604">
<rect width="29.0352" height="32" fill="white"/>
</clipPath>
</defs>
</svg>
