<svg width="146" height="36" viewBox="0 0 146 36" fill="none" xmlns="http://www.w3.org/2000/svg">
<g clip-path="url(#clip0_94_2197)">
<path d="M33.0566 2.07582C33.2665 2.14973 33.4494 2.28494 33.5816 2.46393C33.7138 2.64293 33.7893 2.85748 33.7983 3.07984C33.9123 4.2673 33.9609 5.46013 33.9439 6.65292C33.9314 7.20011 33.9188 7.7473 33.8824 8.2945C33.6765 8.20915 33.482 8.12381 33.275 8.04349C32.7529 7.83766 32.2421 7.64315 31.7187 7.45991C31.7313 7.18129 31.7439 6.91396 31.7439 6.63409C31.7552 5.74678 31.7313 4.84693 31.6585 3.93578C30.8076 3.66845 29.9203 3.42498 29.0229 3.2066C27.8934 2.93928 26.7639 2.71966 25.6193 2.56152C24.9754 2.47744 24.3554 2.40338 23.7606 2.34314C23.1657 2.2829 22.5319 2.2465 21.8881 2.21764C21.3861 2.20509 20.9154 2.19379 20.4059 2.19379L19.6642 2.20509C19.4446 2.20509 19.1898 2.21764 18.9224 2.21764C18.2786 2.24274 17.6586 2.29043 17.0499 2.34314C16.4413 2.39585 15.8351 2.47744 15.1912 2.56152C14.0617 2.71966 12.9184 2.93803 11.7876 3.2066C10.8877 3.42498 10.013 3.66845 9.15201 3.93578C9.00392 5.93362 9.05693 7.94129 9.31018 9.92855C9.44457 11.0402 9.63938 12.1438 9.89376 13.2343C10.0393 13.8543 10.21 14.4743 10.3958 15.0691L10.4083 15.1181L10.4196 15.167L10.4322 15.216L10.456 15.2637L10.4686 15.3126L10.4811 15.3616L10.4936 15.4105L10.5413 15.5436V15.5561L10.5539 15.6038L10.6392 15.8347L10.6505 15.8837L10.7246 16.0782L10.7359 16.1146C11.1113 17.203 11.5458 18.2701 12.0374 19.3112L12.0612 19.3476L12.0738 19.3852L12.085 19.4091L12.1101 19.4455L12.1214 19.4818L12.134 19.5182L12.1578 19.5421C12.3411 19.9186 12.5344 20.2951 12.7301 20.6716C12.8757 20.9151 13.0087 21.1736 13.143 21.4008C13.3011 21.6811 13.4472 21.9241 13.581 22.13C13.9939 22.7989 14.4307 23.4553 14.8938 24.0878C15.3569 24.7204 15.8288 25.3278 16.3521 25.9352C16.5471 26.1661 16.7659 26.4092 17.0085 26.6644C17.2394 26.9154 17.4578 27.1664 17.6649 27.381C18.1995 27.9282 18.758 28.4516 19.3178 28.9611L19.5487 29.1556C19.3905 29.2811 19.2325 29.4066 19.063 29.5321C18.625 29.8597 18.1757 30.176 17.7251 30.4922C15.2966 28.3152 13.2073 25.7872 11.5265 22.9922V22.9796L11.514 22.9683L11.5015 22.9558C11.4048 22.7976 11.3194 22.6395 11.2341 22.5065C11.0885 22.2391 10.9304 21.9706 10.7973 21.7158C10.3957 20.9866 10.0306 20.2336 9.67915 19.4429C9.32774 18.6523 9.02278 17.8754 8.7429 17.0973C8.35195 15.9974 8.01927 14.8776 7.74636 13.7426C6.92064 10.2506 6.67436 6.64668 7.01724 3.07483C7.02752 2.85213 7.10492 2.63776 7.23932 2.4599C7.37372 2.28204 7.55883 2.14903 7.77025 2.07833C8.92488 1.68927 10.1046 1.34916 11.2956 1.05673C12.4628 0.789412 13.6651 0.554724 14.8938 0.376509C15.5213 0.291167 16.1815 0.218377 16.8743 0.158135C17.5432 0.0966386 18.1996 0.0489465 18.8434 0.0238459C19.0869 0.0238459 19.3454 0.0112986 19.6215 0.0112986L20.4122 0L21.2016 0.0112986C21.4815 0.0112986 21.7488 0.0238459 21.9797 0.0238459C22.6361 0.0489465 23.2924 0.0966386 23.9614 0.158135C24.6542 0.218377 25.3105 0.291167 25.9305 0.376509C27.1692 0.558489 28.3728 0.789412 29.54 1.05673C30.7197 1.34916 31.8982 1.68425 33.0654 2.07833L33.0566 2.07582ZM25.933 24.0891C26.371 23.4691 26.8115 22.834 27.2094 22.1802C27.3467 21.9336 27.572 21.7478 27.8401 21.6599C28.1083 21.572 28.3998 21.5883 28.6565 21.7058C30.7686 22.7153 32.686 24.0898 34.3204 25.7658C34.5116 25.9421 34.6347 26.1801 34.6679 26.438C34.7012 26.696 34.6426 26.9574 34.5024 27.1764C34.1623 27.7111 33.7858 28.2696 33.4093 28.8168C33.0328 29.364 32.6186 29.8986 32.2182 30.4094C31.9258 30.7859 31.6095 31.175 31.2694 31.564C30.9783 31.9041 30.6495 32.2807 30.2855 32.6823C29.7747 33.242 29.2815 33.7515 28.7795 34.2498H28.7669C28.2812 34.7367 27.7629 35.2111 27.2232 35.6843C27.064 35.8394 26.862 35.9432 26.6432 35.9823C26.4244 36.0215 26.1989 35.9942 25.9958 35.9039C24.3959 35.1695 22.8555 34.3118 21.3886 33.3386C21.5831 33.1931 21.7776 33.0475 21.9721 32.8893C22.385 32.5605 22.7992 32.233 23.187 31.8853C24.1784 32.5154 25.2054 33.0874 26.2631 33.5984C26.5906 33.2947 26.9069 32.991 27.2357 32.6747C27.7453 32.1727 28.2197 31.6908 28.6577 31.2038C28.9489 30.9001 29.2526 30.5362 29.5939 30.1471C29.8851 29.7944 30.1889 29.4292 30.4813 29.0414C30.8816 28.5545 31.2468 28.0562 31.5995 27.5454C31.794 27.2944 31.976 27.0108 32.158 26.7435C31.6109 26.2189 31.0257 25.7357 30.4072 25.2977C29.8214 24.8728 29.2085 24.4867 28.5724 24.1418C28.2925 24.5672 28.0013 24.9814 27.7089 25.3817C27.1993 26.0871 26.676 26.7435 26.1414 27.376C25.8979 27.6546 25.667 27.9106 25.4486 28.1541C25.3507 28.2796 25.2415 28.385 25.1323 28.5055L25.1198 28.5181L25.1085 28.5306L25.0959 28.5419L25.0834 28.5545L25.0721 28.567L25.0595 28.5796L25.047 28.5909L25.0231 28.616V28.6273C23.8625 29.8497 22.6156 30.9872 21.2919 32.0309C19.2917 33.5668 17.1218 34.868 14.8248 35.9089C14.616 36.0026 14.3834 36.0295 14.1587 35.9859C13.9341 35.9423 13.7284 35.8304 13.5697 35.6655C13.0338 35.2036 12.5356 34.7292 12.0374 34.2548C11.5353 33.7691 11.0409 33.2508 10.5313 32.6873C10.1548 32.2857 9.8272 31.9092 9.53477 31.5691C9.20721 31.18 8.89097 30.7909 8.58725 30.4144C8.18564 29.8923 7.79659 29.369 7.40753 28.8218C7.01847 28.2746 6.65452 27.7161 6.31441 27.1815C6.04583 26.756 5.76717 26.3029 5.4873 25.8323C5.23629 25.3704 4.9765 24.9086 4.73428 24.4518C4.41927 23.8682 4.12687 23.272 3.847 22.6772C3.56712 22.0823 3.32491 21.4849 3.07014 20.8649C2.60829 19.7354 2.20669 18.5807 1.85402 17.401C1.50136 16.2213 1.21019 15.0315 0.9755 13.8279C0.929813 13.6063 0.954463 13.3758 1.04603 13.1688C1.13761 12.9619 1.29151 12.7886 1.48628 12.6733C2.90141 11.6674 4.39271 10.7732 5.94666 9.99884C6.0069 10.5824 6.08093 11.1535 6.17757 11.7245C6.20141 11.919 6.23781 12.1136 6.27421 12.3081C5.2426 12.8476 4.24433 13.4486 3.28474 14.1078C3.47927 15.019 3.71019 15.9063 3.96496 16.7697C4.29378 17.888 4.68288 18.9811 5.10834 20.0328C5.33926 20.6038 5.58147 21.1749 5.84879 21.7459C6.11612 22.317 6.38467 22.8755 6.67584 23.4114C6.90677 23.8619 7.15027 24.2899 7.39375 24.7241C7.63597 25.1257 7.89575 25.5512 8.1706 26.0005C8.51197 26.5351 8.85205 27.0585 9.20472 27.5442C9.55738 28.0299 9.93391 28.5482 10.323 29.0402C10.6267 29.428 10.9179 29.7932 11.2216 30.1458C11.5504 30.5349 11.8667 30.8989 12.1453 31.2026C12.5958 31.6895 13.069 32.1752 13.5798 32.6735C13.8961 32.9897 14.2249 33.2935 14.5399 33.5859C16.3688 32.7061 18.1037 31.6431 19.7181 30.4132C22.0842 28.6189 24.1765 26.4898 25.9293 24.0928L25.933 24.0891ZM39.3167 12.6683C39.5108 12.7848 39.6648 12.9578 39.758 13.1641C39.8513 13.3704 39.8795 13.6002 39.8388 13.8229C39.5953 15.0265 39.3041 16.2175 38.9515 17.396C38.5988 18.5745 38.1985 19.7303 37.7479 20.8599C37.7022 20.9726 37.6363 21.0759 37.5533 21.1648C37.3627 21.3859 37.0926 21.5231 36.8016 21.5465C36.5106 21.57 36.2221 21.478 35.9984 21.2903C35.1771 20.5754 34.3078 19.9175 33.3967 19.3212C32.5015 18.7356 31.5672 18.2118 30.6005 17.7537C30.3469 17.6393 30.1453 17.4342 30.0352 17.1788C29.9252 16.9234 29.9146 16.636 30.0056 16.3731C30.3692 15.3503 30.6734 14.3073 30.9168 13.2494C31.0259 12.8364 31.1113 12.4223 31.1966 11.9943C31.4765 12.1035 31.7439 12.214 32.0237 12.3344C32.4366 12.5177 32.8495 12.7109 33.2624 12.9067C33.2022 13.1979 33.1369 13.4778 33.0679 13.7576C32.8746 14.5722 32.655 15.3892 32.4002 16.1886C33.1533 16.5777 33.8949 17.0145 34.6116 17.4763C35.1587 17.8415 35.706 18.2293 36.2293 18.6309C36.4477 18.0235 36.6547 17.4035 36.8367 16.7722C37.104 15.9088 37.3224 15.0152 37.5295 14.1103C35.9344 13.0197 34.2367 12.0873 32.4605 11.3267C31.3664 10.8538 30.2464 10.4436 29.1058 10.098C28.0635 9.7832 27.0042 9.5276 25.933 9.33241C25.18 9.19938 24.4019 9.09019 23.6112 9.00485C22.8206 8.91951 22.0437 8.87056 21.2656 8.84671L20.8288 8.83416H19.9779L19.5525 8.84671C18.7744 8.87056 17.9837 8.91951 17.2055 9.00485C16.4274 9.09019 15.638 9.19938 14.8725 9.33241C13.8145 9.52694 12.7577 9.79426 11.6997 10.098C11.2981 10.2235 10.8978 10.349 10.4961 10.487C10.4598 10.2561 10.4234 10.0377 10.3995 9.80681C10.3267 9.28472 10.274 8.77392 10.2414 8.25057C13.5209 7.16631 16.9531 6.61546 20.4072 6.61903C24.6796 6.62489 28.9105 7.45854 32.8658 9.07388C35.147 10.0244 37.3124 11.2315 39.3204 12.672L39.3167 12.6683ZM19.0655 22.2831C18.8836 22.0522 18.7254 21.8451 18.5798 21.6631C17.4232 20.0797 16.4411 18.3759 15.6506 16.5815C15.5414 16.3392 15.431 16.0958 15.3343 15.8523C15.2377 15.6088 15.1636 15.403 15.0833 15.1721C15.0485 15.0918 15.0241 15.0075 15.0105 14.9211C14.9846 14.7781 14.9874 14.6315 15.0188 14.4896C15.0502 14.3478 15.1094 14.2136 15.1932 14.0949C15.277 13.9762 15.3835 13.8754 15.5066 13.7983C15.6298 13.7212 15.767 13.6694 15.9104 13.6459C16.1413 13.597 16.4123 13.5606 16.6885 13.5204L17.4779 13.41C17.9648 13.3623 18.4505 13.3259 18.9488 13.2845C19.447 13.2431 19.9528 13.2481 20.4084 13.2481C20.864 13.2481 21.3559 13.2594 21.878 13.2845C22.38 13.3209 22.8633 13.3573 23.3377 13.41L24.127 13.5204C24.4194 13.5568 24.6743 13.5932 24.9177 13.6459C24.9798 13.6559 25.0407 13.6719 25.0997 13.6936C25.3747 13.7929 25.5994 13.9969 25.7247 14.2612C25.85 14.5254 25.8658 14.8285 25.7686 15.1043C25.6707 15.3553 25.5741 15.6138 25.4762 15.8573C25.3783 16.1008 25.2817 16.3443 25.1725 16.5865C24.7776 17.4809 24.3352 18.3536 23.8472 19.2007C23.3568 20.054 22.8171 20.8778 22.2307 21.6681C22.0483 21.9099 21.8906 22.1166 21.7575 22.2881C21.5505 22.5391 21.3923 22.75 21.2555 22.8955C21.2127 22.9499 21.1634 22.9987 21.1087 23.0411C20.9983 23.1341 20.8705 23.2042 20.7327 23.2473C20.595 23.2904 20.4501 23.3056 20.3063 23.292C20.1626 23.2785 20.023 23.2364 19.8958 23.1684C19.7685 23.1003 19.6561 23.0075 19.565 22.8955C19.3831 22.6885 19.2249 22.4939 19.063 22.2881L19.0655 22.2831Z" fill="#38CEC9"/>
</g>
<path d="M51.6446 15.8004C52.4222 14.5908 53.7902 13.986 55.7486 13.986V16.5564C55.5182 16.5132 55.3094 16.4916 55.1222 16.4916C54.071 16.4916 53.2502 16.8012 52.6598 17.4204C52.0694 18.0252 51.7742 18.9036 51.7742 20.0556V25.65H49.0742V14.1156H51.6446V15.8004Z" fill="#787A88"/>
<path d="M68.7768 19.9476C68.7768 20.1348 68.7624 20.4012 68.7336 20.7468H59.6832C59.8416 21.5964 60.252 22.2732 60.9144 22.7772C61.5912 23.2668 62.4264 23.5116 63.42 23.5116C64.6872 23.5116 65.7312 23.094 66.552 22.2588L67.9992 23.922C67.4808 24.5412 66.8256 25.0092 66.0336 25.326C65.2416 25.6428 64.3488 25.8012 63.3552 25.8012C62.088 25.8012 60.972 25.5492 60.0072 25.0452C59.0424 24.5412 58.2936 23.8428 57.7608 22.95C57.2424 22.0428 56.9832 21.0204 56.9832 19.8828C56.9832 18.7596 57.2352 17.7516 57.7392 16.8588C58.2576 15.9516 58.9704 15.246 59.8776 14.742C60.7848 14.238 61.8072 13.986 62.9448 13.986C64.068 13.986 65.0688 14.238 65.9472 14.742C66.84 15.2316 67.5312 15.93 68.0208 16.8372C68.5248 17.73 68.7768 18.7668 68.7768 19.9476ZM62.9448 16.146C62.0808 16.146 61.3464 16.4052 60.7416 16.9236C60.1512 17.4276 59.7912 18.1044 59.6616 18.954H66.2064C66.0912 18.1188 65.7384 17.442 65.148 16.9236C64.5576 16.4052 63.8232 16.146 62.9448 16.146Z" fill="#787A88"/>
<path d="M74.9343 25.8012C73.9983 25.8012 73.0839 25.6788 72.1911 25.434C71.2983 25.1892 70.5855 24.8796 70.0527 24.5052L71.0895 22.4532C71.6079 22.7988 72.2271 23.0796 72.9471 23.2956C73.6815 23.4972 74.4015 23.598 75.1071 23.598C76.7199 23.598 77.5263 23.1732 77.5263 22.3236C77.5263 21.9204 77.3175 21.6396 76.8999 21.4812C76.4967 21.3228 75.8415 21.1716 74.9343 21.0276C73.9839 20.8836 73.2063 20.718 72.6015 20.5308C72.0111 20.3436 71.4927 20.0196 71.0463 19.5588C70.6143 19.0836 70.3983 18.4284 70.3983 17.5932C70.3983 16.4988 70.8519 15.6276 71.7591 14.9796C72.6807 14.3172 73.9191 13.986 75.4743 13.986C76.2663 13.986 77.0583 14.0796 77.8503 14.2668C78.6423 14.4396 79.2903 14.6772 79.7943 14.9796L78.7575 17.0316C77.7783 16.4556 76.6767 16.1676 75.4527 16.1676C74.6607 16.1676 74.0559 16.29 73.6383 16.5348C73.2351 16.7652 73.0335 17.0748 73.0335 17.4636C73.0335 17.8956 73.2495 18.2052 73.6815 18.3924C74.1279 18.5652 74.8119 18.7308 75.7335 18.8892C76.6551 19.0332 77.4111 19.1988 78.0015 19.386C78.5919 19.5732 79.0959 19.89 79.5135 20.3364C79.9455 20.7828 80.1615 21.4164 80.1615 22.2372C80.1615 23.3172 79.6935 24.1812 78.7575 24.8292C77.8215 25.4772 76.5471 25.8012 74.9343 25.8012Z" fill="#787A88"/>
<path d="M93.3299 19.9476C93.3299 20.1348 93.3155 20.4012 93.2867 20.7468H84.2363C84.3947 21.5964 84.8051 22.2732 85.4675 22.7772C86.1443 23.2668 86.9795 23.5116 87.9731 23.5116C89.2403 23.5116 90.2843 23.094 91.1051 22.2588L92.5523 23.922C92.0339 24.5412 91.3787 25.0092 90.5867 25.326C89.7947 25.6428 88.9019 25.8012 87.9083 25.8012C86.6411 25.8012 85.5251 25.5492 84.5603 25.0452C83.5955 24.5412 82.8467 23.8428 82.3139 22.95C81.7955 22.0428 81.5363 21.0204 81.5363 19.8828C81.5363 18.7596 81.7883 17.7516 82.2923 16.8588C82.8107 15.9516 83.5235 15.246 84.4307 14.742C85.3379 14.238 86.3603 13.986 87.4979 13.986C88.6211 13.986 89.6219 14.238 90.5003 14.742C91.3931 15.2316 92.0843 15.93 92.5739 16.8372C93.0779 17.73 93.3299 18.7668 93.3299 19.9476ZM87.4979 16.146C86.6339 16.146 85.8995 16.4052 85.2947 16.9236C84.7043 17.4276 84.3443 18.1044 84.2147 18.954H90.7595C90.6443 18.1188 90.2915 17.442 89.7011 16.9236C89.1107 16.4052 88.3763 16.146 87.4979 16.146Z" fill="#787A88"/>
<path d="M101.215 25.8012C100.02 25.8012 98.9474 25.5492 97.997 25.0452C97.0466 24.5412 96.305 23.8428 95.7722 22.95C95.2394 22.0428 94.973 21.0204 94.973 19.8828C94.973 18.7452 95.2394 17.73 95.7722 16.8372C96.305 15.9444 97.0394 15.246 97.9754 14.742C98.9258 14.238 100.006 13.986 101.215 13.986C102.353 13.986 103.347 14.2164 104.196 14.6772C105.06 15.138 105.708 15.8004 106.14 16.6644L104.067 17.874C103.735 17.3412 103.318 16.9452 102.814 16.686C102.324 16.4124 101.784 16.2756 101.194 16.2756C100.186 16.2756 99.3506 16.6068 98.6882 17.2692C98.0258 17.9172 97.6946 18.7884 97.6946 19.8828C97.6946 20.9772 98.0186 21.8556 98.6666 22.518C99.329 23.166 100.171 23.49 101.194 23.49C101.784 23.49 102.324 23.3604 102.814 23.1012C103.318 22.8276 103.735 22.4244 104.067 21.8916L106.14 23.1012C105.694 23.9652 105.039 24.6348 104.175 25.11C103.325 25.5708 102.339 25.8012 101.215 25.8012Z" fill="#787A88"/>
<path d="M119.641 14.1156V25.65H117.071V24.1812C116.639 24.6996 116.099 25.1028 115.451 25.3908C114.803 25.6644 114.105 25.8012 113.356 25.8012C111.815 25.8012 110.598 25.3764 109.705 24.5268C108.827 23.6628 108.388 22.3884 108.388 20.7036V14.1156H111.088V20.3364C111.088 21.3732 111.318 22.1508 111.779 22.6692C112.254 23.1732 112.924 23.4252 113.788 23.4252C114.753 23.4252 115.516 23.13 116.077 22.5396C116.653 21.9348 116.941 21.0708 116.941 19.9476V14.1156H119.641Z" fill="#787A88"/>
<path d="M125.747 15.8004C126.525 14.5908 127.893 13.986 129.851 13.986V16.5564C129.621 16.5132 129.412 16.4916 129.225 16.4916C128.173 16.4916 127.353 16.8012 126.762 17.4204C126.172 18.0252 125.877 18.9036 125.877 20.0556V25.65H123.177V14.1156H125.747V15.8004Z" fill="#787A88"/>
<path d="M138.535 13.986C139.658 13.986 140.659 14.2308 141.537 14.7204C142.43 15.21 143.129 15.9012 143.633 16.794C144.137 17.6868 144.389 18.7164 144.389 19.8828C144.389 21.0492 144.137 22.086 143.633 22.9932C143.129 23.886 142.43 24.5772 141.537 25.0668C140.659 25.5564 139.658 25.8012 138.535 25.8012C137.743 25.8012 137.016 25.6644 136.353 25.3908C135.705 25.1172 135.158 24.7068 134.712 24.1596V25.65H132.141V9.6228H134.841V15.5196C135.302 15.0156 135.842 14.634 136.461 14.3748C137.095 14.1156 137.786 13.986 138.535 13.986ZM138.233 23.49C139.226 23.49 140.04 23.1588 140.673 22.4964C141.321 21.834 141.645 20.9628 141.645 19.8828C141.645 18.8028 141.321 17.9316 140.673 17.2692C140.04 16.6068 139.226 16.2756 138.233 16.2756C137.585 16.2756 137.001 16.4268 136.483 16.7292C135.965 17.0172 135.554 17.4348 135.252 17.982C134.949 18.5292 134.798 19.1628 134.798 19.8828C134.798 20.6028 134.949 21.2364 135.252 21.7836C135.554 22.3308 135.965 22.7556 136.483 23.058C137.001 23.346 137.585 23.49 138.233 23.49Z" fill="#787A88"/>
<defs>
<clipPath id="clip0_94_2197">
<rect width="39.6" height="36" fill="white" transform="translate(0.50293)"/>
</clipPath>
</defs>
</svg>
