<svg width="170" height="40" viewBox="0 0 170 40" fill="none" xmlns="http://www.w3.org/2000/svg">
<g clip-path="url(#clip0_184_2297)">
<path fill-rule="evenodd" clip-rule="evenodd" d="M4.11448 37.4444L7.62207 35.4333L9.03035 34.6252L10.413 33.8281L12.5823 32.5849L16.0276 30.6177L19.4765 32.5849L21.6422 33.8281L23.0246 34.6252L24.4367 35.4333L27.8708 37.4152L28.915 38.0075L29.9335 38.5889L32 39.7736V20.7378L27.8708 18.3647V32.7019L25.0764 31.093L20.9582 28.7382L19.3881 27.8241L18.094 27.0928V3.45339H13.9647V27.6559L11.0968 29.305L6.98238 31.6781L4.11448 33.3125V18.3939L-0.00012207 20.7524V39.8029L2.05161 38.6182L3.08125 38.0368L4.11448 37.4444ZM25.0728 27.8095V-0.817444H20.9546V25.4547L25.0728 27.8095ZM11.1006 26.0032V7.72057H6.98597V28.3763L11.1006 26.0032Z" fill="white"/>
</g>
<path d="M49.446 28.5H53.0426L56.3579 17.0881H56.4943L59.8181 28.5H63.4147L68.409 11.0455H64.3778L61.4886 23.1989H61.3352L58.1562 11.0455H54.7045L51.517 23.1733H51.3721L48.4829 11.0455H44.4517L49.446 28.5Z" fill="white"/>
<path d="M70.3842 28.5H82.1796V25.4574H74.0745V21.2898H81.5404V18.2472H74.0745V14.0881H82.1456V11.0455H70.3842V28.5Z" fill="white"/>
<path d="M85.0795 28.5H96.2528V25.4574H88.7698V11.0455H85.0795V28.5Z" fill="white"/>
<path d="M95.4474 11.0455L101.814 22.3296V28.5H105.479V22.3296L111.845 11.0455H107.712L103.731 18.5625H103.561L99.5809 11.0455H95.4474Z" fill="white"/>
<path d="M114.298 14.0881H119.641V28.5H123.289V14.0881H128.633V11.0455H114.298V14.0881Z" fill="white"/>
<path d="M134.684 11.0455H130.994V28.5H134.684V11.0455Z" fill="white"/>
<path d="M153.121 17.1563C152.635 13.125 149.584 10.8068 145.544 10.8068C140.933 10.8068 137.413 14.0625 137.413 19.7727C137.413 25.4659 140.874 28.7386 145.544 28.7386C150.018 28.7386 152.72 25.7642 153.121 22.5511L149.388 22.5341C149.038 24.4006 147.572 25.4744 145.604 25.4744C142.953 25.4744 141.155 23.5057 141.155 19.7727C141.155 16.1421 142.928 14.071 145.629 14.071C147.649 14.071 149.106 15.2386 149.388 17.1563H153.121Z" fill="white"/>
<path d="M165.236 16.0653H168.773C168.722 12.9546 166.165 10.8068 162.278 10.8068C158.452 10.8068 155.648 12.9205 155.665 16.0909C155.656 18.6648 157.472 20.1392 160.42 20.8466L162.321 21.3239C164.222 21.7841 165.278 22.3296 165.287 23.5057C165.278 24.7841 164.068 25.6534 162.193 25.6534C160.276 25.6534 158.895 24.7671 158.776 23.0199H155.204C155.298 26.7955 158 28.7472 162.236 28.7472C166.497 28.7472 169.003 26.7102 169.011 23.5142C169.003 20.608 166.812 19.0653 163.778 18.3835L162.21 18.0085C160.693 17.6591 159.423 17.0966 159.449 15.8438C159.449 14.7188 160.446 13.8921 162.253 13.8921C164.017 13.8921 165.099 14.6932 165.236 16.0653Z" fill="white"/>
<defs>
<clipPath id="clip0_184_2297">
<rect width="32" height="40" fill="white"/>
</clipPath>
</defs>
</svg>
