<svg width="340" height="80" viewBox="0 0 340 80" fill="none" xmlns="http://www.w3.org/2000/svg">
<g clip-path="url(#clip0_159_2795)">
<path fill-rule="evenodd" clip-rule="evenodd" d="M8.22896 74.8888L15.2441 70.8666L18.0607 69.2505L20.8259 67.6562L25.1646 65.1698L32.0552 61.2354L38.9529 65.1698L43.2844 67.6562L46.0492 69.2505L48.8733 70.8666L55.7417 74.8303L57.83 76.015L59.867 77.1778L64 79.5472V41.4756L55.7417 36.7294V65.4038L50.1527 62.1861L41.9163 57.4765L38.7763 55.6482L36.1881 54.1856V6.90679H27.9294V55.3118L22.1936 58.61L13.9648 63.3562L8.22896 66.6251V36.7879L-0.000244141 41.5047V79.6057L4.10323 77.2363L6.1625 76.0735L8.22896 74.8888ZM50.1455 55.619V-1.63489H41.9092V50.9094L50.1455 55.619ZM22.2012 52.0064V15.4411H13.9719V56.7525L22.2012 52.0064Z" fill="#28CE8C"/>
</g>
<path d="M98.8921 57H106.085L112.716 34.1761H112.989L119.636 57H126.83L136.818 22.0909H128.756L122.977 46.3977H122.67L116.313 22.0909H109.409L103.034 46.3466H102.744L96.9659 22.0909H88.9034L98.8921 57Z" fill="#252235"/>
<path d="M140.768 57H164.359V50.9148H148.149V42.5796H163.081V36.4943H148.149V28.1761H164.291V22.0909H140.768V57Z" fill="#252235"/>
<path d="M170.159 57H192.506V50.9148H177.54V22.0909H170.159V57Z" fill="#252235"/>
<path d="M190.895 22.0909L203.628 44.6591V57H210.957V44.6591L223.69 22.0909H215.423L207.463 37.125H207.122L199.162 22.0909H190.895Z" fill="#252235"/>
<path d="M228.595 28.1761H239.283V57H246.578V28.1761H257.266V22.0909H228.595V28.1761Z" fill="#252235"/>
<path d="M269.368 22.0909H261.987V57H269.368V22.0909Z" fill="#252235"/>
<path d="M306.242 34.3125C305.27 26.25 299.168 21.6136 291.088 21.6136C281.867 21.6136 274.827 28.125 274.827 39.5455C274.827 50.9318 281.747 57.4773 291.088 57.4773C300.037 57.4773 305.44 51.5284 306.242 45.1023L298.776 45.0682C298.077 48.8011 295.145 50.9489 291.207 50.9489C285.906 50.9489 282.31 47.0114 282.31 39.5455C282.31 32.2841 285.855 28.1421 291.259 28.1421C295.298 28.1421 298.213 30.4773 298.776 34.3125H306.242Z" fill="#252235"/>
<path d="M330.472 32.1307H337.545C337.443 25.9091 332.33 21.6136 324.557 21.6136C316.903 21.6136 311.295 25.8409 311.33 32.1818C311.313 37.3296 314.943 40.2784 320.841 41.6932L324.642 42.6477C328.443 43.5682 330.557 44.6591 330.574 47.0114C330.557 49.5682 328.136 51.3068 324.386 51.3068C320.551 51.3068 317.79 49.5341 317.551 46.0398H310.409C310.597 53.5909 316 57.4943 324.472 57.4943C332.994 57.4943 338.006 53.4205 338.023 47.0284C338.006 41.2159 333.625 38.1307 327.557 36.7671L324.42 36.0171C321.386 35.3182 318.847 34.1932 318.898 31.6875C318.898 29.4375 320.892 27.7841 324.506 27.7841C328.034 27.7841 330.199 29.3864 330.472 32.1307Z" fill="#252235"/>
<defs>
<clipPath id="clip0_159_2795">
<rect width="64" height="80" fill="white"/>
</clipPath>
</defs>
</svg>
