<svg width="152" height="36" viewBox="0 0 152 36" fill="none" xmlns="http://www.w3.org/2000/svg">
<path d="M62.0816 22.2055C62.0816 23.916 61.64 25.1727 60.7568 25.9756C59.8736 26.7785 58.5104 27.18 56.6672 27.18C54.8432 27.18 52.904 27.0927 50.8496 26.9182V23.3836C52.3472 23.4709 53.8832 23.5145 55.4576 23.5145C55.8992 23.5145 56.2448 23.4011 56.4944 23.1742C56.7632 22.9298 56.8976 22.6069 56.8976 22.2055V12.2564H53.1536V8.59091H62.0816V22.2055Z" fill="#787A88"/>
<path d="M75.0405 26.9182H64.6725V23.2527H67.2645V12.2564H64.6725V8.59091H75.0405V12.2564H72.4485V23.2527H75.0405V26.9182Z" fill="#787A88"/>
<path d="M94.9102 26.5255C90.4174 26.9618 86.2894 27.18 82.5262 27.18C80.6446 27.18 79.2622 26.7785 78.379 25.9756C77.4958 25.1727 77.0542 23.916 77.0542 22.2055V13.8273C77.0542 11.9945 77.5054 10.668 78.4078 9.84764C79.3294 9.00982 80.7982 8.59091 82.8142 8.59091H93.1822V12.2564H83.9662C82.8142 12.2564 82.2382 12.78 82.2382 13.8273V22.2055C82.2382 22.6069 82.363 22.9298 82.6126 23.1742C82.8814 23.4011 83.2366 23.5145 83.6782 23.5145C85.8862 23.5145 87.9022 23.4709 89.7262 23.3836V19.5873H85.9822V16.4455H94.9102V26.5255Z" fill="#787A88"/>
<path d="M115.076 26.5255C110.583 26.9618 106.455 27.18 102.692 27.18C100.81 27.18 99.4279 26.7785 98.5447 25.9756C97.6615 25.1727 97.2199 23.916 97.2199 22.2055V13.8273C97.2199 11.9945 97.6711 10.668 98.5735 9.84764C99.4951 9.00982 100.964 8.59091 102.98 8.59091H113.348V12.2564H104.132C102.98 12.2564 102.404 12.78 102.404 13.8273V22.2055C102.404 22.6069 102.529 22.9298 102.778 23.1742C103.047 23.4011 103.402 23.5145 103.844 23.5145C106.052 23.5145 108.068 23.4709 109.892 23.3836V19.5873H106.148V16.4455H115.076V26.5255Z" fill="#787A88"/>
<path d="M123.145 23.2527H133.657V26.9182H117.961V8.59091H123.145V23.2527Z" fill="#787A88"/>
<path d="M151.664 26.9182H135.68V8.59091H151.664V12.2564H140.864V15.7909H149.36V19.4564H140.864V23.2527H151.664V26.9182Z" fill="#787A88"/>
<g clip-path="url(#clip0_94_2196)">
<path fill-rule="evenodd" clip-rule="evenodd" d="M2.19124 6.24763C2.77588 6.24993 3.33581 6.4621 3.74922 6.83792C4.16262 7.21374 4.39602 7.72279 4.39856 8.25428C4.41404 8.77538 4.65266 9.27041 5.06357 9.63401C5.47448 9.99761 6.02524 10.2011 6.59866 10.2011C7.17208 10.2011 7.72284 9.99761 8.13374 9.63401C8.54465 9.27041 8.78327 8.77538 8.79876 8.25428V2.00668C8.80129 1.47519 9.03462 0.966124 9.44802 0.590303C9.86142 0.214482 10.4214 0.00233468 11.0061 3.05176e-05C11.5885 0.00501968 12.1452 0.218447 12.5557 0.594062C12.9661 0.969677 13.1972 1.47722 13.1989 2.00668V15.1236C13.1909 15.3908 13.242 15.6567 13.349 15.9057C13.456 16.1547 13.6168 16.3816 13.8219 16.5732C14.027 16.7647 14.2721 16.917 14.543 17.0209C14.8139 17.1249 15.105 17.1784 15.399 17.1784C15.693 17.1784 15.9841 17.1249 16.2549 17.0209C16.5258 16.917 16.7711 16.7647 16.9762 16.5732C17.1812 16.3816 17.342 16.1547 17.449 15.9057C17.556 15.6567 17.607 15.3908 17.5991 15.1236V8.25428C17.6016 7.72279 17.835 7.21374 18.2484 6.83792C18.6618 6.4621 19.2218 6.24993 19.8064 6.24763C20.3888 6.25262 20.9455 6.46606 21.356 6.84168C21.7665 7.21729 21.9976 7.72482 21.9993 8.25428V15.1236C21.9993 15.6539 22.231 16.1624 22.6435 16.5373C23.0559 16.9123 23.6152 17.1229 24.1985 17.1229C24.7818 17.1229 25.3412 16.9123 25.7537 16.5373C26.1661 16.1624 26.3978 15.6539 26.3978 15.1236V2.00668C26.4004 1.47494 26.634 0.965649 27.0477 0.589786C27.4615 0.213924 28.0218 0.00195072 28.6067 3.05176e-05C29.1898 0.00273347 29.7478 0.215469 30.1586 0.591621C30.5693 0.967774 30.7993 1.47665 30.798 2.00668V8.25428C30.8135 8.77538 31.0521 9.27041 31.463 9.63401C31.8739 9.99761 32.4247 10.2011 32.9981 10.2011C33.5715 10.2011 34.1223 9.99761 34.5332 9.63401C34.9441 9.27041 35.1827 8.77538 35.1982 8.25428C35.2007 7.72254 35.4343 7.21327 35.8481 6.8374C36.2618 6.46154 36.8222 6.24955 37.4071 6.24763C37.9902 6.25033 38.5482 6.46309 38.959 6.83924C39.3698 7.21539 39.5997 7.72425 39.5984 8.25428V27.7604C39.5963 28.2881 39.3647 28.7937 38.9542 29.1668C38.5437 29.54 37.9876 29.7505 37.4071 29.7524C36.8247 29.7513 36.2662 29.5416 35.8528 29.1687C35.4393 28.7958 35.2041 28.2898 35.1982 27.7604C35.2061 27.4932 35.1551 27.2272 35.0481 26.9783C34.9412 26.7293 34.7803 26.5023 34.5752 26.3108C34.3702 26.1192 34.1249 25.967 33.854 25.863C33.5832 25.7591 33.2921 25.7055 32.9981 25.7055C32.704 25.7055 32.4131 25.7591 32.1422 25.863C31.8713 25.967 31.6261 26.1192 31.421 26.3108C31.2159 26.5023 31.0551 26.7293 30.9481 26.9783C30.8411 27.2272 30.7901 27.4932 30.798 27.7604V34.0007C30.7985 34.2625 30.7421 34.5217 30.6321 34.7637C30.5222 35.0056 30.3608 35.2255 30.1573 35.4106C29.9537 35.5958 29.712 35.7427 29.4459 35.8428C29.1799 35.9429 28.8947 35.9944 28.6067 35.9942C28.0235 35.995 27.4638 35.7856 27.0501 35.412C26.6364 35.0383 26.4024 34.5308 26.3994 34.0007V20.8663C26.3994 20.336 26.1678 19.8274 25.7553 19.4525C25.3429 19.0775 24.7835 18.8669 24.2002 18.8669C23.6169 18.8669 23.0575 19.0775 22.645 19.4525C22.2326 19.8274 22.0009 20.336 22.0009 20.8663V27.7502C21.9958 28.2773 21.7631 28.7816 21.3529 29.1542C20.9427 29.5268 20.3879 29.738 19.808 29.7422C19.2259 29.7407 18.6678 29.5308 18.2547 29.1579C17.8416 28.7851 17.6066 28.2793 17.6007 27.7502V20.8663C17.5852 20.3452 17.3466 19.8501 16.9357 19.4865C16.5248 19.1229 15.9741 18.9195 15.4006 18.9195C14.8272 18.9195 14.2764 19.1229 13.8655 19.4865C13.4546 19.8501 13.216 20.3452 13.2005 20.8663V34.0007C13.1988 34.5289 12.9672 35.0351 12.5564 35.4086C12.1455 35.7821 11.5887 35.9927 11.0076 35.9942C10.4243 35.9954 9.86434 35.7861 9.45053 35.4124C9.03671 35.0387 8.80288 34.531 8.80033 34.0007V27.7545C8.80827 27.4873 8.75721 27.2214 8.65022 26.9724C8.54323 26.7234 8.38249 26.4965 8.1774 26.3049C7.97232 26.1134 7.72707 25.9612 7.45619 25.8572C7.18531 25.7532 6.89425 25.6997 6.60023 25.6997C6.3062 25.6997 6.01514 25.7532 5.74426 25.8572C5.47338 25.9612 5.22821 26.1134 5.02313 26.3049C4.81804 26.4965 4.65723 26.7234 4.55023 26.9724C4.44324 27.2214 4.39218 27.4873 4.40012 27.7545C4.39422 28.2837 4.15929 28.7895 3.74616 29.1623C3.33303 29.5352 2.77494 29.7451 2.19281 29.7466C1.61293 29.7424 1.05813 29.5312 0.647928 29.1586C0.237727 28.7859 0.00503526 28.2817 0 27.7545V8.25428C0.00166351 7.72482 0.232753 7.21729 0.643225 6.84168C1.0537 6.46606 1.61043 6.25262 2.19281 6.24763H2.19124ZM8.79876 14.0072C8.8067 13.74 8.75565 13.474 8.64865 13.225C8.54166 12.9761 8.38084 12.7491 8.17576 12.5576C7.97068 12.366 7.7255 12.2138 7.45462 12.1098C7.18374 12.0059 6.89269 11.9523 6.59866 11.9523C6.30463 11.9523 6.01358 12.0059 5.7427 12.1098C5.47182 12.2138 5.22656 12.366 5.02148 12.5576C4.8164 12.7491 4.65566 12.9761 4.54866 13.225C4.44167 13.474 4.39062 13.74 4.39856 14.0072V22.0075C4.41404 22.5286 4.65266 23.0236 5.06357 23.3872C5.47448 23.7508 6.02524 23.9543 6.59866 23.9543C7.17208 23.9543 7.72284 23.7508 8.13374 23.3872C8.54465 23.0236 8.78327 22.5286 8.79876 22.0075V14.0072ZM30.7916 22.0075V14.0072C30.7837 13.74 30.8347 13.474 30.9416 13.225C31.0486 12.9761 31.2095 12.7491 31.4145 12.5576C31.6196 12.366 31.8649 12.2138 32.1358 12.1098C32.4066 12.0059 32.6977 11.9523 32.9917 11.9523C33.2857 11.9523 33.5767 12.0059 33.8476 12.1098C34.1185 12.2138 34.3637 12.366 34.5688 12.5576C34.7739 12.7491 34.9347 12.9761 35.0417 13.225C35.1487 13.474 35.1997 13.74 35.1917 14.0072V22.0075C35.1763 22.5286 34.9377 23.0236 34.5268 23.3872C34.1159 23.7508 33.5651 23.9543 32.9917 23.9543C32.4183 23.9543 31.8675 23.7508 31.4566 23.3872C31.0457 23.0236 30.8071 22.5286 30.7916 22.0075Z" fill="#E15539"/>
</g>
<defs>
<clipPath id="clip0_94_2196">
<rect width="39.6" height="36" fill="white"/>
</clipPath>
</defs>
</svg>
