<svg width="24" height="24" viewBox="0 0 24 24" fill="none" xmlns="http://www.w3.org/2000/svg">
<path fill-rule="evenodd" clip-rule="evenodd" d="M11.9382 5.53492C13.3342 5.64846 14.7301 4.8537 15.6026 3.84606C16.4605 2.81004 17.0276 1.41921 16.8822 0C15.6462 0.0567684 14.1194 0.794758 13.2469 1.83078C12.4472 2.72488 11.7637 4.17248 11.9382 5.53492ZM16.867 5.80428C15.6372 5.7352 14.5151 6.16526 13.6087 6.51262C13.0254 6.73616 12.5315 6.92546 12.1557 6.92546C11.734 6.92546 11.2197 6.72604 10.6422 6.50214C9.88553 6.20876 9.02045 5.87334 8.11327 5.88944C6.03389 5.91782 4.09993 7.06738 3.03843 8.89816C0.857267 12.5597 2.47133 17.9811 4.57978 20.9614C5.6122 22.4374 6.84819 24.0553 8.47679 23.9985C9.19328 23.9722 9.70868 23.7587 10.2421 23.5378C10.8561 23.2835 11.4941 23.0193 12.4901 23.0193C13.4517 23.0193 14.0617 23.2766 14.6473 23.5236C15.2041 23.7585 15.7388 23.984 16.5326 23.9702C18.2193 23.9418 19.2808 22.4942 20.3132 21.0182C21.4274 19.4341 21.917 17.8881 21.9913 17.6534L22 17.6263C22 17.6263 21.9845 17.6184 21.9602 17.6076C21.5877 17.4411 18.741 16.1692 18.7137 12.7584C18.6863 9.89554 20.9717 8.44504 21.3314 8.21671C21.3533 8.20281 21.3681 8.19344 21.3747 8.18856C19.9206 6.08813 17.6522 5.86105 16.867 5.80428Z" fill="white"/>
</svg>
