<svg width="142" height="40" viewBox="0 0 142 40" fill="none" xmlns="http://www.w3.org/2000/svg">
<path d="M48.8714 13.336C48.8714 20.536 56.6114 21.508 56.6114 26.692C56.6114 28.492 55.8194 29.14 54.5594 29.14C53.2994 29.14 52.5074 28.492 52.5074 26.692V24.892H48.7634V26.44C48.7634 30.472 50.7794 32.776 54.6674 32.776C58.5554 32.776 60.5714 30.472 60.5714 26.44C60.5714 19.24 52.8314 18.268 52.8314 13.084C52.8314 11.284 53.5514 10.6 54.8114 10.6C56.0714 10.6 56.7914 11.284 56.7914 13.084V14.128H60.5354V13.336C60.5354 9.304 58.5554 7 54.7034 7C50.8514 7 48.8714 9.304 48.8714 13.336Z" fill="white"/>
<path d="M66.3022 32.488H70.2622V24.136L75.2662 7.288H71.4862L68.4622 18.772L65.4382 7.288H61.2982L66.3022 24.136V32.488Z" fill="white"/>
<path d="M82.3396 7.288H76.8316V32.488H80.2876V14.668L83.2396 32.488H86.9836L89.7196 14.416V32.488H93.4636V7.288H87.9556L85.2556 25.18L82.3396 7.288Z" fill="white"/>
<path d="M95.1922 10.888H99.3322V32.488H103.292V10.888H107.432V7.288H95.1922V10.888Z" fill="white"/>
<path d="M121.488 32.488C121.092 31.552 121.056 30.652 121.056 29.428V25.54C121.056 22.912 120.408 21.004 118.428 20.176C120.192 19.348 121.02 17.656 121.02 15.064V13.084C121.02 9.196 119.256 7.288 115.152 7.288H109.176V32.488H113.136V22.228H114.504C116.304 22.228 117.096 23.092 117.096 25.432V29.392C117.096 31.444 117.24 31.84 117.456 32.488H121.488ZM115.044 10.888C116.448 10.888 117.06 11.68 117.06 13.48V15.964C117.06 17.98 116.16 18.628 114.684 18.628H113.136V10.888H115.044Z" fill="white"/>
<path d="M123.661 32.488H127.621V7.288H123.661V32.488Z" fill="white"/>
<path d="M138.256 23.092V26.692C138.256 28.492 137.464 29.14 136.204 29.14C134.944 29.14 134.152 28.492 134.152 26.692V13.084C134.152 11.284 134.944 10.6 136.204 10.6C137.464 10.6 138.256 11.284 138.256 13.084V15.784H142V13.336C142 9.304 139.984 7 136.096 7C132.208 7 130.192 9.304 130.192 13.336V26.44C130.192 30.472 132.208 32.776 136.096 32.776C139.984 32.776 142 30.472 142 26.44V23.092H138.256Z" fill="white"/>
<g clip-path="url(#clip0_184_2302)">
<path fill-rule="evenodd" clip-rule="evenodd" d="M14.37 12.6821L12.2061 16.4232L10.1471 12.8517L12.3002 9.11058H27.34L30.5333 3.57163H9.10416L4.88133 10.8963C8.04914 16.3689 11.212 21.8415 14.37 27.3141H20.7567C19.1527 24.5374 17.5494 21.7612 15.9471 18.9854L15.5031 18.217H30.1404L36.4356 29.1173L30.1404 40.0001H7.04524L0.814615 29.0124L3.9434 23.5784L6.01579 27.1485L4.8948 29.1039L9.11763 36.4286H28.0693L32.3056 29.1039L28.0828 21.7791H21.696C23.0507 24.1386 24.4063 26.4976 25.7628 28.8562L25.9162 29.0998L24.8867 30.8856H12.311C8.50443 24.3032 4.70279 17.7258 0.906081 11.1534L0.763428 10.8923L7.04524 -0.00798035H36.7344L29.415 12.6821H14.37Z" fill="white"/>
</g>
<defs>
<clipPath id="clip0_184_2302">
<rect width="35.9723" height="40" fill="white" transform="translate(0.763428)"/>
</clipPath>
</defs>
</svg>
