<svg width="141" height="24" viewBox="0 0 141 24" fill="none" xmlns="http://www.w3.org/2000/svg">
<path d="M13.1407 24C5.39914 24 0.600098 19.2696 0.600098 12C0.600098 4.73043 5.39914 0 13.1407 0C20.4268 0 25.1208 3.61739 25.1208 9.53043V10.0522H19.2708V9.53043C19.2708 6.46956 17.5194 5.0087 13.2458 5.0087C8.09642 5.0087 6.16979 6.81739 6.16979 12C6.16979 17.1826 8.09642 18.9913 13.2458 18.9913C17.5194 18.9913 19.2708 17.5304 19.2708 14.4696V13.9478H25.1208V14.4696C25.1208 20.3826 20.4618 24 13.1407 24Z" fill="white"/>
<path d="M30.6554 23.6522H24.7705L35.0341 0.347826H42.5304L52.8641 23.6522H46.8391L44.6322 18.5043H32.8973L30.6554 23.6522ZM37.1359 8.73043L34.929 13.8087H42.6005L40.3936 8.73043L38.9574 5.11304H38.5721L37.1359 8.73043Z" fill="white"/>
<path d="M63.688 24C56.577 24 52.5836 21.2174 52.5836 15.7913V15.5826H57.8381V16.2087C57.8381 18.3652 58.924 19.2348 63.688 19.2348C67.8915 19.2348 68.8724 18.6087 68.8724 17.0435C68.8724 15.6174 68.0667 15.0957 65.6496 14.6783L59.0641 13.7391C54.8605 13.0783 52.3735 10.9913 52.3735 7.2C52.3735 3.68696 55.2459 0 63.1275 0C70.3436 0 73.7064 3.30435 73.7064 8.2087V8.41739H68.417V7.93043C68.417 5.70435 67.261 4.76522 62.6021 4.76522C58.8189 4.76522 57.6629 5.49565 57.6629 6.9913C57.6629 8.34783 58.4336 8.83478 60.3952 9.18261L66.9808 10.2261C72.2352 11.0609 74.1268 13.6 74.1268 16.8C74.1268 20.5913 71.1493 24 63.688 24Z" fill="white"/>
<path d="M80.4701 23.6522H75.2157V0.347826H87.476C92.9056 0.347826 96.4086 3.4087 96.4086 8.76522C96.4086 14.1217 92.9056 17.2174 87.476 17.2174H80.4701V23.6522ZM86.9156 5.04348H80.4701V12.5217H86.9156C89.823 12.5217 91.1892 11.687 91.1892 8.76522C91.1892 5.91304 89.823 5.04348 86.9156 5.04348Z" fill="white"/>
<path d="M117.083 23.6522H97.2214V0.347826H117.083V5.04348H102.476V9.6H116.558V14.2609H102.476V18.9565H117.083V23.6522Z" fill="white"/>
<path d="M123.66 23.6522H118.406V0.347826H131.367C137.147 0.347826 140.44 2.88696 140.44 7.33913C140.44 11.1304 138.233 13.3913 133.819 13.8087V14.087C135.921 14.6435 136.726 15.7565 137.602 17.3913L141 23.6522H134.905L131.682 17.6C130.736 15.7913 129.861 15.2 127.128 15.2H123.66V23.6522ZM123.66 5.04348V11.2696H131.332C133.819 11.2696 134.94 10.5739 134.94 8.13913C134.94 5.84348 133.819 5.04348 131.332 5.04348H123.66Z" fill="white"/>
</svg>
