<svg width="154" height="40" viewBox="0 0 154 40" fill="none" xmlns="http://www.w3.org/2000/svg">
<path d="M63.5126 24.3091C63.5126 26.2097 63.0665 27.606 62.1744 28.4982C61.2823 29.3903 59.9053 29.8363 58.0435 29.8363C56.2011 29.8363 54.2423 29.7394 52.1671 29.5454V25.6182C53.6798 25.7151 55.2314 25.7636 56.8217 25.7636C57.2677 25.7636 57.6168 25.6376 57.8689 25.3854C58.1404 25.1139 58.2762 24.7551 58.2762 24.3091V13.2545H54.4944V9.18179H63.5126V24.3091Z" fill="white"/>
<path d="M76.6023 29.5454H66.1296V25.4727H68.7478V13.2545H66.1296V9.18179H76.6023V13.2545H73.9842V25.4727H76.6023V29.5454Z" fill="white"/>
<path d="M96.6728 29.1091C92.1346 29.5939 87.9649 29.8363 84.1637 29.8363C82.2631 29.8363 80.8667 29.3903 79.9746 28.4982C79.0825 27.606 78.6364 26.2097 78.6364 24.3091V15C78.6364 12.9636 79.0922 11.4897 80.0037 10.5782C80.9346 9.64725 82.4183 9.18179 84.4546 9.18179H94.9273V13.2545H85.6183C84.4546 13.2545 83.8728 13.8363 83.8728 15V24.3091C83.8728 24.7551 83.9989 25.1139 84.251 25.3854C84.5225 25.6376 84.8813 25.7636 85.3273 25.7636C87.5576 25.7636 89.594 25.7151 91.4364 25.6182V21.4H87.6546V17.9091H96.6728V29.1091Z" fill="white"/>
<path d="M117.042 29.1091C112.504 29.5939 108.334 29.8363 104.533 29.8363C102.632 29.8363 101.236 29.3903 100.344 28.4982C99.4518 27.606 99.0058 26.2097 99.0058 24.3091V15C99.0058 12.9636 99.4615 11.4897 100.373 10.5782C101.304 9.64725 102.788 9.18179 104.824 9.18179H115.297V13.2545H105.988C104.824 13.2545 104.242 13.8363 104.242 15V24.3091C104.242 24.7551 104.368 25.1139 104.62 25.3854C104.892 25.6376 105.251 25.7636 105.697 25.7636C107.927 25.7636 109.963 25.7151 111.806 25.6182V21.4H108.024V17.9091H117.042V29.1091Z" fill="white"/>
<path d="M125.193 25.4727H135.811V29.5454H119.957V9.18179H125.193V25.4727Z" fill="white"/>
<path d="M154 29.5454H137.855V9.18179H154V13.2545H143.091V17.1818H151.673V21.2545H143.091V25.4727H154V29.5454Z" fill="white"/>
<g clip-path="url(#clip0_184_2292)">
<path fill-rule="evenodd" clip-rule="evenodd" d="M3.18054 6.94181C3.77108 6.94437 4.33667 7.18011 4.75425 7.59769C5.17183 8.01526 5.40759 8.58088 5.41015 9.17142C5.42579 9.75042 5.66682 10.3005 6.08188 10.7045C6.49694 11.1084 7.05326 11.3345 7.63247 11.3345C8.21169 11.3345 8.76801 11.1084 9.18307 10.7045C9.59812 10.3005 9.83916 9.75042 9.8548 9.17142V2.22964C9.85736 1.6391 10.093 1.07347 10.5106 0.655889C10.9282 0.23831 11.4939 0.0025907 12.0844 3.05176e-05C12.6727 0.00557403 13.235 0.242715 13.6496 0.660065C14.0643 1.07742 14.2977 1.64135 14.2994 2.22964V16.804C14.2913 17.1009 14.3429 17.3964 14.451 17.673C14.5591 17.9496 14.7215 18.2018 14.9287 18.4146C15.1358 18.6275 15.3835 18.7966 15.6571 18.9121C15.9307 19.0276 16.2247 19.0871 16.5217 19.0871C16.8187 19.0871 17.1127 19.0276 17.3863 18.9121C17.6599 18.7966 17.9076 18.6275 18.1148 18.4146C18.322 18.2018 18.4843 17.9496 18.5924 17.673C18.7005 17.3964 18.752 17.1009 18.744 16.804V9.17142C18.7466 8.58088 18.9823 8.01526 19.3999 7.59769C19.8175 7.18011 20.3831 6.94437 20.9736 6.94181C21.5619 6.94735 22.1242 7.18451 22.5389 7.60186C22.9535 8.01921 23.187 8.58313 23.1887 9.17142V16.804C23.1887 17.3932 23.4227 17.9582 23.8393 18.3748C24.256 18.7914 24.8209 19.0255 25.4101 19.0255C25.9993 19.0255 26.5644 18.7914 26.981 18.3748C27.3976 17.9582 27.6317 17.3932 27.6317 16.804V2.22964C27.6342 1.63882 27.8702 1.07294 28.2881 0.655315C28.706 0.23769 29.272 0.00216408 29.8628 3.05176e-05C30.4518 0.00303379 31.0155 0.239406 31.4304 0.657354C31.8453 1.0753 32.0776 1.64072 32.0763 2.22964V9.17142C32.0919 9.75042 32.3329 10.3005 32.748 10.7045C33.163 11.1084 33.7193 11.3345 34.2985 11.3345C34.8778 11.3345 35.4342 11.1084 35.8492 10.7045C36.2643 10.3005 36.5052 9.75042 36.5209 9.17142C36.5234 8.5806 36.7594 8.01474 37.1773 7.59711C37.5953 7.17949 38.1613 6.94394 38.7521 6.94181C39.3411 6.94481 39.9048 7.1812 40.3197 7.59915C40.7346 8.0171 40.9668 8.5825 40.9655 9.17142V30.8448C40.9634 31.4312 40.7295 31.993 40.3149 32.4076C39.9002 32.8222 39.3385 33.0561 38.7521 33.0582C38.1639 33.057 37.5997 32.824 37.1821 32.4097C36.7644 31.9953 36.5268 31.4331 36.5209 30.8448C36.5289 30.548 36.4774 30.2525 36.3693 29.9758C36.2613 29.6992 36.0988 29.447 35.8917 29.2342C35.6845 29.0214 35.4368 28.8522 35.1632 28.7367C34.8895 28.6212 34.5955 28.5617 34.2985 28.5617C34.0016 28.5617 33.7076 28.6212 33.434 28.7367C33.1604 28.8522 32.9127 29.0214 32.7055 29.2342C32.4984 29.447 32.3359 29.6992 32.2278 29.9758C32.1198 30.2525 32.0683 30.548 32.0763 30.8448V37.7785C32.0767 38.0694 32.0198 38.3575 31.9087 38.6263C31.7976 38.8951 31.6346 39.1394 31.429 39.3452C31.2234 39.5509 30.9793 39.7141 30.7105 39.8253C30.4418 39.9366 30.1537 39.9938 29.8628 39.9935C29.2738 39.9944 28.7084 39.7618 28.2905 39.3466C27.8726 38.9315 27.6362 38.3676 27.6332 37.7785V23.1847C27.6332 22.5955 27.3993 22.0305 26.9826 21.6139C26.566 21.1973 26.001 20.9632 25.4118 20.9632C24.8226 20.9632 24.2575 21.1973 23.8409 21.6139C23.4243 22.0305 23.1903 22.5955 23.1903 23.1847V30.8335C23.1852 31.4192 22.9501 31.9795 22.5358 32.3936C22.1214 32.8076 21.561 33.0422 20.9753 33.0469C20.3873 33.0452 19.8236 32.812 19.4062 32.3977C18.9889 31.9834 18.7516 31.4215 18.7457 30.8335V23.1847C18.73 22.6057 18.489 22.0557 18.0739 21.6517C17.6589 21.2477 17.1026 21.0216 16.5234 21.0216C15.9441 21.0216 15.3877 21.2477 14.9727 21.6517C14.5576 22.0557 14.3167 22.6057 14.301 23.1847V37.7785C14.2993 38.3655 14.0654 38.9279 13.6504 39.3429C13.2353 39.7579 12.6729 39.9918 12.086 39.9935C11.4968 39.9948 10.9311 39.7624 10.5132 39.3471C10.0952 38.9318 9.85896 38.3677 9.85638 37.7785V30.8384C9.8644 30.5415 9.81283 30.246 9.70476 29.9694C9.59668 29.6927 9.43432 29.4405 9.22717 29.2277C9.02001 29.0149 8.77228 28.8457 8.49866 28.7302C8.22505 28.6147 7.93106 28.5552 7.63406 28.5552C7.33706 28.5552 7.04307 28.6147 6.76945 28.7302C6.49583 28.8457 6.24818 29.0149 6.04103 29.2277C5.83387 29.4405 5.67143 29.6927 5.56336 29.9694C5.45528 30.246 5.40371 30.5415 5.41173 30.8384C5.40577 31.4263 5.16847 31.9883 4.75116 32.4026C4.33386 32.8169 3.77014 33.0501 3.18212 33.0518C2.59639 33.0471 2.03598 32.8125 1.62164 32.3984C1.20729 31.9844 0.972249 31.4241 0.967163 30.8384V9.17142C0.968843 8.58313 1.20227 8.01921 1.61689 7.60186C2.0315 7.18451 2.59386 6.94735 3.18212 6.94181H3.18054ZM9.8548 15.5635C9.86282 15.2666 9.81125 14.9711 9.70318 14.6945C9.5951 14.4179 9.43266 14.1657 9.2255 13.9529C9.01835 13.74 8.7707 13.5709 8.49708 13.4554C8.22346 13.3399 7.92947 13.2804 7.63247 13.2804C7.33548 13.2804 7.04148 13.3399 6.76787 13.4554C6.49425 13.5709 6.24652 13.74 6.03937 13.9529C5.83221 14.1657 5.66985 14.4179 5.56177 14.6945C5.4537 14.9711 5.40213 15.2666 5.41015 15.5635V24.4528C5.42579 25.0318 5.66682 25.5818 6.08188 25.9858C6.49694 26.3898 7.05326 26.6159 7.63247 26.6159C8.21169 26.6159 8.76801 26.3898 9.18307 25.9858C9.59812 25.5818 9.83916 25.0318 9.8548 24.4528V15.5635ZM32.0698 24.4528V15.5635C32.0618 15.2666 32.1133 14.9711 32.2214 14.6945C32.3294 14.4179 32.4919 14.1657 32.699 13.9529C32.9062 13.74 33.1539 13.5709 33.4275 13.4554C33.7011 13.3399 33.9951 13.2804 34.2921 13.2804C34.5891 13.2804 34.883 13.3399 35.1567 13.4554C35.4303 13.5709 35.678 13.74 35.8852 13.9529C36.0923 14.1657 36.2548 14.4179 36.3628 14.6945C36.4709 14.9711 36.5224 15.2666 36.5144 15.5635V24.4528C36.4987 25.0318 36.2578 25.5818 35.8427 25.9858C35.4277 26.3898 34.8713 26.6159 34.2921 26.6159C33.7129 26.6159 33.1565 26.3898 32.7415 25.9858C32.3264 25.5818 32.0855 25.0318 32.0698 24.4528Z" fill="white"/>
</g>
<defs>
<clipPath id="clip0_184_2292">
<rect width="40" height="40" fill="white" transform="translate(0.967041)"/>
</clipPath>
</defs>
</svg>
