<svg width="187" height="49" viewBox="0 0 187 49" fill="none" xmlns="http://www.w3.org/2000/svg">
<g clip-path="url(#clip0_337_1336)">
<path fill-rule="evenodd" clip-rule="evenodd" d="M27.298 48.0662C32.6074 47.4471 37.5523 45.0564 41.3321 41.281C45.112 37.5057 47.5055 32.5668 48.1253 27.2637H39.2021C38.6393 30.2068 37.203 32.9128 35.08 35.0298C32.9571 37.1468 30.2456 38.5769 27.298 39.1343V48.0662Z" fill="#787A88"/>
<path fill-rule="evenodd" clip-rule="evenodd" d="M35.2244 3.31374L35.2806 3.27702C41.0545 -0.0366944 45.7233 -1.01112 47.897 1.16193C54.0464 7.30215 36.7051 26.4014 31.568 31.5325C28.4786 34.6272 25.2047 37.5325 21.7641 40.2324V48.0604C18.998 47.7468 16.3103 46.9414 13.8281 45.6824L13.7719 45.7192C7.99796 49.0329 3.33124 50.0073 1.1556 47.8458C-1.82526 44.8685 1.66267 38.0149 3.31181 35.1864C2.05916 32.704 1.25332 30.021 0.931038 27.2598H9.87355C10.2646 29.3329 11.0918 31.2995 12.3004 33.0295C13.5089 34.7596 15.0714 36.2137 16.8844 37.2957C15.8527 38.0439 14.8036 38.7554 13.7158 39.4224C12.1228 40.4335 10.4736 41.3885 8.76643 42.2489C7.43032 41.0671 6.23525 39.7352 5.2049 38.2797C3.40478 41.7443 2.80474 44.2904 3.76094 45.2397C7.86639 49.2997 26.3322 32.358 29.3692 29.3246C32.6025 26.0994 35.6269 22.6718 38.424 19.0626C37.5023 16.7098 35.9967 14.6299 34.0487 13.0184C32.1007 11.4068 29.7743 10.3167 27.2884 9.8503V0.918328C30.0551 1.22923 32.7433 2.03473 35.2244 3.29632V3.31374ZM43.8476 10.7106C45.6477 7.24611 46.2477 4.69993 45.2915 3.75067C44.3353 2.80141 41.8075 3.41428 38.3369 5.21227C40.4705 6.72462 42.3334 8.58541 43.8476 10.7164V10.7106Z" fill="#787A88"/>
<path fill-rule="evenodd" clip-rule="evenodd" d="M21.768 0.935738C16.4584 1.55528 11.5136 3.9464 7.73379 7.72204C3.95401 11.4977 1.56048 16.4369 0.940689 21.7402H9.8833C10.4385 18.7968 11.8698 16.089 13.9901 13.9709C16.1104 11.8527 18.8211 10.4227 21.768 9.86767V0.935738Z" fill="#787A88"/>
</g>
<path d="M89.5454 30.1726C89.5454 31.205 89.3479 32.1794 88.9531 33.0959C88.5698 34.0007 88.0355 34.7953 87.3503 35.4798C86.6767 36.1526 85.8811 36.6862 84.9636 37.0806C84.0577 37.4634 83.0879 37.6548 82.0542 37.6548C81.1251 37.6548 80.2308 37.4924 79.3714 37.1676C78.5235 36.8428 77.757 36.3672 77.0717 35.7408C76.3865 36.3672 75.6142 36.8428 74.7547 37.1676C73.8953 37.4924 73.001 37.6548 72.0718 37.6548C71.0382 37.6548 70.0626 37.4634 69.1451 37.0806C68.2392 36.6862 67.4436 36.1526 66.7583 35.4798C66.0847 34.7953 65.5505 34.0007 65.1556 33.0959C64.7723 32.1794 64.5807 31.205 64.5807 30.1726V12.3544H69.5806V30.1726C69.5806 30.5206 69.6445 30.8512 69.7722 31.1644C69.9 31.466 70.0742 31.7328 70.2949 31.9648C70.5272 32.1852 70.7943 32.3593 71.0962 32.4869C71.3982 32.6145 71.7234 32.6783 72.0718 32.6783C72.4203 32.6783 72.7455 32.6145 73.0474 32.4869C73.3494 32.3593 73.6107 32.1852 73.8314 31.9648C74.0637 31.7328 74.2437 31.466 74.3714 31.1644C74.4992 30.8512 74.5631 30.5206 74.5631 30.1726V12.3544H79.563V30.1726C79.563 30.5206 79.6269 30.8512 79.7546 31.1644C79.8824 31.466 80.0566 31.7328 80.2773 31.9648C80.5095 32.1852 80.7767 32.3593 81.0786 32.4869C81.3806 32.6145 81.7058 32.6783 82.0542 32.6783C82.4027 32.6783 82.7279 32.6145 83.0298 32.4869C83.3318 32.3593 83.5931 32.1852 83.8138 31.9648C84.0461 31.7328 84.2261 31.466 84.3538 31.1644C84.4932 30.8512 84.5629 30.5206 84.5629 30.1726V12.3544H89.5454V30.1726Z" fill="#787A88"/>
<path d="M99.1271 13.6072C99.1271 14.0481 99.04 14.4599 98.8658 14.8427C98.7032 15.2255 98.4767 15.5619 98.1863 15.8519C97.896 16.1303 97.5534 16.3565 97.1585 16.5305C96.7752 16.6929 96.3629 16.7741 95.9216 16.7741C95.4802 16.7741 95.0621 16.6929 94.6672 16.5305C94.284 16.3565 93.9472 16.1303 93.6568 15.8519C93.3781 15.5619 93.1516 15.2255 92.9774 14.8427C92.8148 14.4599 92.7335 14.0481 92.7335 13.6072C92.7335 13.178 92.8148 12.772 92.9774 12.3892C93.1516 11.9948 93.3781 11.6584 93.6568 11.38C93.9472 11.09 94.284 10.8638 94.6672 10.7013C95.0621 10.5273 95.4802 10.4403 95.9216 10.4403C96.3629 10.4403 96.7752 10.5273 97.1585 10.7013C97.5534 10.8638 97.896 11.09 98.1863 11.38C98.4767 11.6584 98.7032 11.9948 98.8658 12.3892C99.04 12.772 99.1271 13.178 99.1271 13.6072ZM98.3083 37.3068H93.5174V18.6708H98.3083V37.3068Z" fill="#787A88"/>
<path d="M112.193 37.3068H101.322V32.5739H112.193C112.518 32.5739 112.797 32.4579 113.029 32.2258C113.262 31.9938 113.378 31.7154 113.378 31.3906C113.378 31.0542 113.262 30.8338 113.029 30.7294C112.797 30.625 112.518 30.5728 112.193 30.5728H107.245C106.421 30.5728 105.648 30.4162 104.928 30.103C104.208 29.7898 103.581 29.3664 103.047 28.8327C102.513 28.2875 102.089 27.6553 101.775 26.9361C101.473 26.2169 101.322 25.4454 101.322 24.6218C101.322 23.7982 101.473 23.0267 101.775 22.3075C102.089 21.5883 102.513 20.9619 103.047 20.4283C103.581 19.8946 104.208 19.477 104.928 19.1754C105.648 18.8622 106.421 18.7056 107.245 18.7056H116.879V23.4386H107.245C106.92 23.4386 106.641 23.5546 106.409 23.7866C106.177 24.0186 106.061 24.297 106.061 24.6218C106.061 24.9582 106.177 25.2482 106.409 25.4918C106.641 25.7238 106.92 25.8398 107.245 25.8398H112.193C113.006 25.8398 113.773 25.979 114.493 26.2575C115.213 26.5243 115.84 26.9013 116.374 27.3885C116.908 27.8757 117.332 28.4615 117.646 29.1459C117.959 29.8304 118.116 30.5786 118.116 31.3906C118.116 32.2142 117.959 32.9857 117.646 33.7049C117.332 34.4125 116.908 35.0389 116.374 35.5842C115.84 36.1178 115.213 36.5412 114.493 36.8544C113.773 37.156 113.006 37.3068 112.193 37.3068Z" fill="#787A88"/>
<path d="M125.416 37.3068H120.66V11.2582H125.416V19.4886C125.985 19.0594 126.571 18.7578 127.175 18.5838C127.779 18.3982 128.395 18.3054 129.022 18.3054C130.172 18.3054 131.252 18.5258 132.262 18.9666C133.273 19.3958 134.15 19.9932 134.893 20.7589C135.648 21.5129 136.24 22.4003 136.67 23.4212C137.111 24.4304 137.332 25.5092 137.332 26.6577V37.3068H132.541V26.6577H132.576C132.576 26.1705 132.483 25.7122 132.297 25.283C132.111 24.8422 131.856 24.4594 131.531 24.1346C131.205 23.8098 130.828 23.5546 130.398 23.369C129.969 23.1834 129.51 23.0906 129.022 23.0906C128.523 23.0906 128.052 23.1834 127.611 23.369C127.17 23.5546 126.786 23.8098 126.461 24.1346C126.136 24.4594 125.88 24.8422 125.695 25.283C125.509 25.7122 125.416 26.1705 125.416 26.6577V37.3068Z" fill="#787A88"/>
<path d="M148.151 32.7479C148.336 32.8059 148.522 32.8465 148.708 32.8697C148.894 32.8813 149.08 32.8871 149.266 32.8871C149.73 32.8871 150.177 32.8233 150.607 32.6957C151.037 32.5681 151.437 32.3883 151.809 32.1562C152.192 31.9126 152.529 31.6226 152.819 31.2862C153.121 30.9382 153.365 30.5554 153.551 30.1378L157.035 33.6353C156.594 34.2617 156.083 34.8243 155.502 35.3232C154.933 35.822 154.312 36.2454 153.638 36.5934C152.976 36.9414 152.274 37.2024 151.53 37.3764C150.799 37.562 150.044 37.6548 149.266 37.6548C147.953 37.6548 146.716 37.4112 145.555 36.924C144.405 36.4368 143.395 35.7582 142.523 34.8881C141.664 34.0181 140.985 32.9857 140.485 31.7908C139.986 30.5844 139.736 29.262 139.736 27.8235C139.736 26.3503 139.986 25.0046 140.485 23.7866C140.985 22.5685 141.664 21.5303 142.523 20.6719C143.395 19.8134 144.405 19.1464 145.555 18.6708C146.716 18.1952 147.953 17.9574 149.266 17.9574C150.044 17.9574 150.804 18.0502 151.548 18.2358C152.291 18.4214 152.994 18.6882 153.656 19.0362C154.329 19.3842 154.956 19.8134 155.537 20.3239C156.118 20.8227 156.629 21.3853 157.07 22.0117L148.151 32.7479ZM150.59 22.9513C150.369 22.8701 150.148 22.8179 149.928 22.7947C149.718 22.7715 149.498 22.7599 149.266 22.7599C148.615 22.7599 148 22.8817 147.419 23.1254C146.85 23.3574 146.35 23.6938 145.921 24.1346C145.503 24.5754 145.172 25.109 144.928 25.7354C144.684 26.3503 144.562 27.0463 144.562 27.8235C144.562 27.9975 144.568 28.1947 144.579 28.4151C144.602 28.6355 144.631 28.8617 144.666 29.0937C144.713 29.3142 144.765 29.5288 144.823 29.7376C144.881 29.9464 144.957 30.132 145.05 30.2944L150.59 22.9513Z" fill="#787A88"/>
<path d="M164.265 37.3068H159.474V11.2582H164.265V37.3068Z" fill="#787A88"/>
<path d="M172.697 44.4062H167.906V18.6708H169.056L170.955 20.9155C171.385 20.5095 171.855 20.1267 172.366 19.767C172.877 19.4074 173.406 19.1 173.951 18.8448C174.509 18.578 175.084 18.3692 175.676 18.2184C176.268 18.0676 176.867 17.9922 177.471 17.9922C178.783 17.9922 180.014 18.23 181.164 18.7056C182.325 19.1696 183.336 19.8308 184.195 20.6893C185.066 21.5477 185.751 22.5859 186.251 23.804C186.75 25.0104 187 26.3503 187 27.8235C187 29.3548 186.75 30.7352 186.251 31.9648C185.751 33.1829 185.066 34.2211 184.195 35.0795C183.336 35.9264 182.325 36.576 181.164 37.0284C180.014 37.4808 178.783 37.707 177.471 37.707C177.052 37.707 176.634 37.6606 176.216 37.5678C175.81 37.475 175.403 37.3532 174.997 37.2024C174.602 37.04 174.207 36.8602 173.812 36.663C173.429 36.4658 173.057 36.2628 172.697 36.054V44.4062ZM182.227 27.8235C182.227 27.0347 182.099 26.3271 181.843 25.7006C181.599 25.0742 181.263 24.5464 180.833 24.1172C180.403 23.6764 179.898 23.34 179.317 23.108C178.737 22.8759 178.121 22.7599 177.471 22.7599C176.82 22.7599 176.205 22.8759 175.624 23.108C175.055 23.34 174.555 23.6764 174.126 24.1172C173.696 24.5464 173.353 25.0742 173.098 25.7006C172.854 26.3271 172.732 27.0347 172.732 27.8235C172.732 28.5775 172.854 29.2678 173.098 29.8942C173.353 30.5206 173.696 31.0542 174.126 31.495C174.555 31.9358 175.055 32.2781 175.624 32.5217C176.205 32.7653 176.82 32.8871 177.471 32.8871C178.121 32.8871 178.737 32.7653 179.317 32.5217C179.898 32.2781 180.403 31.9358 180.833 31.495C181.263 31.0542 181.599 30.5206 181.843 29.8942C182.099 29.2678 182.227 28.5775 182.227 27.8235Z" fill="#787A88"/>
<defs>
<clipPath id="clip0_337_1336">
<rect width="49.2035" height="49" fill="white"/>
</clipPath>
</defs>
</svg>
