<svg width="128" height="34" viewBox="0 0 128 34" fill="none" xmlns="http://www.w3.org/2000/svg">
<g clip-path="url(#clip0_337_1594)">
<path d="M28.7567 1.9605C28.9421 2.0303 29.1036 2.158 29.2204 2.32705C29.3372 2.4961 29.4039 2.69873 29.4118 2.90874C29.5126 4.03022 29.5555 5.15679 29.5405 6.28331C29.5294 6.80011 29.5183 7.3169 29.4861 7.83369C29.3043 7.75309 29.1325 7.67249 28.9495 7.59663C28.4883 7.40224 28.0371 7.21853 27.5748 7.04547C27.5859 6.78233 27.597 6.52985 27.597 6.26553C27.607 5.42752 27.5859 4.57765 27.5216 3.71712C26.7699 3.46465 25.9861 3.2347 25.1934 3.02846C24.1956 2.77599 23.1978 2.56856 22.1867 2.41922C21.618 2.3398 21.0703 2.26986 20.5448 2.21297C20.0193 2.15607 19.4595 2.1217 18.8907 2.09444C18.4473 2.08258 18.0315 2.07191 17.5814 2.07191L16.9262 2.08259C16.7322 2.08259 16.5071 2.09444 16.271 2.09444C15.7022 2.11814 15.1546 2.16318 14.6169 2.21297C14.0792 2.26275 13.5437 2.3398 12.975 2.41922C11.9772 2.56856 10.9672 2.7748 9.96827 3.02846C9.17337 3.2347 8.40063 3.46465 7.6401 3.71712C7.50928 5.60398 7.55611 7.50011 7.77982 9.37696C7.89853 10.4269 8.07062 11.4691 8.29533 12.4991C8.42393 13.0846 8.57471 13.6701 8.73879 14.232L8.74989 14.2782L8.75985 14.3244L8.77095 14.3707L8.792 14.4157L8.8031 14.4619L8.81415 14.5082L8.82524 14.5544L8.86736 14.68V14.6919L8.87846 14.7369L8.95386 14.955L8.96382 15.0013L9.02927 15.185L9.03923 15.2193C9.37084 16.2473 9.75465 17.2551 10.1889 18.2383L10.21 18.2727L10.2211 18.3082L10.231 18.3308L10.2532 18.3652L10.2632 18.3995L10.2743 18.4339L10.2953 18.4564C10.4572 18.812 10.6279 19.1676 10.8009 19.5232C10.9295 19.7531 11.047 19.9973 11.1656 20.2119C11.3053 20.4766 11.4343 20.7061 11.5525 20.9005C11.9173 21.5323 12.3031 22.1522 12.7122 22.7496C13.1213 23.347 13.5382 23.9207 14.0005 24.4944C14.1727 24.7125 14.3659 24.942 14.5803 25.183C14.7843 25.4201 14.9772 25.6572 15.1601 25.8598C15.6324 26.3766 16.1257 26.8709 16.6202 27.3521L16.8242 27.5359C16.6845 27.6544 16.5448 27.7729 16.3952 27.8915C16.0082 28.2008 15.6113 28.4995 15.2133 28.7982C13.068 26.7421 11.2224 24.3546 9.73766 21.7148V21.703L9.72657 21.6923L9.71552 21.6805C9.63016 21.5311 9.55473 21.3817 9.47934 21.2561C9.35073 21.0036 9.21105 20.75 9.09353 20.5094C8.73876 19.8207 8.41618 19.1095 8.10575 18.3628C7.79533 17.616 7.52593 16.8823 7.2787 16.1474C6.93335 15.1086 6.63947 14.051 6.39838 12.9791C5.66897 9.68113 5.45141 6.27742 5.7543 2.904C5.76338 2.69368 5.83176 2.49122 5.95048 2.32324C6.06921 2.15526 6.23273 2.02964 6.4195 1.96287C7.43946 1.59542 8.48157 1.2742 9.53369 0.998026C10.5647 0.745556 11.6268 0.523906 12.7122 0.355592C13.2665 0.274991 13.8497 0.206245 14.4617 0.14935C15.0526 0.0912698 15.6324 0.0462273 16.2011 0.0225211C16.4162 0.0225211 16.6446 0.0106709 16.8885 0.0106709L17.587 0L18.2843 0.0106709C18.5315 0.0106709 18.7677 0.0225211 18.9716 0.0225211C19.5515 0.0462273 20.1313 0.0912698 20.7222 0.14935C21.3342 0.206245 21.914 0.274991 22.4617 0.355592C23.5559 0.527462 24.6192 0.745556 25.6502 0.998026C26.6923 1.2742 27.7333 1.59068 28.7644 1.96287L28.7567 1.9605ZM22.4639 22.7508C22.8508 22.1652 23.24 21.5655 23.5914 20.9479C23.7127 20.715 23.9117 20.5396 24.1486 20.4566C24.3855 20.3735 24.643 20.389 24.8697 20.4999C26.7355 21.4534 28.4293 22.7514 29.8731 24.3344C30.042 24.5009 30.1506 24.7256 30.18 24.9692C30.2094 25.2129 30.1577 25.4598 30.0338 25.6666C29.7334 26.1716 29.4008 26.699 29.0682 27.2158C28.7356 27.7326 28.3697 28.2376 28.0161 28.72C27.7577 29.0756 27.4784 29.443 27.1779 29.8105C26.9207 30.1317 26.6302 30.4873 26.3087 30.8666C25.8575 31.3952 25.4218 31.8765 24.9784 32.347H24.9673C24.5382 32.8069 24.0804 33.255 23.6036 33.7018C23.463 33.8483 23.2845 33.9464 23.0913 33.9833C22.898 34.0203 22.6988 33.9945 22.5193 33.9093C21.1061 33.2156 19.7453 32.4056 18.4495 31.4865C18.6213 31.349 18.7931 31.2115 18.965 31.0622C19.3297 30.7516 19.6956 30.4422 20.0382 30.1139C20.9139 30.709 21.8212 31.2492 22.7555 31.7318C23.0448 31.445 23.3242 31.1582 23.6147 30.8595C24.0648 30.3853 24.4839 29.9302 24.8708 29.4703C25.128 29.1834 25.3963 28.8397 25.6978 28.4723C25.9551 28.1392 26.2234 27.7943 26.4817 27.428C26.8354 26.9681 27.1579 26.4975 27.4695 26.0151C27.6413 25.7781 27.8021 25.5102 27.9628 25.2577C27.4796 24.7623 26.9626 24.3059 26.4162 23.8922C25.8988 23.491 25.3574 23.1264 24.7954 22.8006C24.5482 23.2024 24.291 23.5935 24.0326 23.9716C23.5825 24.6378 23.1202 25.2577 22.648 25.8551C22.4329 26.1182 22.2289 26.36 22.036 26.59C21.9495 26.7085 21.8531 26.8081 21.7566 26.9219L21.7455 26.9337L21.7355 26.9456L21.7244 26.9563L21.7133 26.9681L21.7034 26.98L21.6923 26.9918L21.6812 27.0025L21.6601 27.0262V27.0368C20.6349 28.1914 19.5334 29.2657 18.3641 30.2514C16.5972 31.7019 14.6803 32.9309 12.6512 33.914C12.4668 34.0024 12.2613 34.0278 12.0629 33.9867C11.8644 33.9455 11.6827 33.8398 11.5426 33.6841C11.0692 33.2479 10.6291 32.7998 10.1889 32.3518C9.74546 31.8931 9.30865 31.4035 8.85853 30.8713C8.52594 30.492 8.23653 30.1364 7.97822 29.8152C7.68886 29.4478 7.4095 29.0803 7.1412 28.7247C6.78643 28.2316 6.44276 27.7374 6.09908 27.2206C5.7554 26.7038 5.43389 26.1763 5.13345 25.6714C4.89619 25.2696 4.65004 24.8417 4.40281 24.3972C4.18107 23.961 3.95158 23.5248 3.73761 23.0933C3.45934 22.5422 3.20104 21.9792 2.95381 21.4173C2.70658 20.8555 2.49262 20.2913 2.26756 19.7057C1.85958 18.639 1.50482 17.5485 1.19328 16.4343C0.881753 15.3201 0.624545 14.1964 0.417226 13.0597C0.376868 12.8504 0.398643 12.6327 0.479534 12.4372C0.560425 12.2418 0.696377 12.0781 0.868429 11.9692C2.11851 11.0192 3.43588 10.1747 4.80859 9.44335C4.86181 9.99451 4.9272 10.5338 5.01257 11.0731C5.03363 11.2569 5.06578 11.4406 5.09793 11.6243C4.18664 12.1339 3.3048 12.7015 2.45714 13.324C2.62898 14.1846 2.83296 15.0226 3.05802 15.8381C3.34849 16.8942 3.69221 17.9266 4.06804 18.9199C4.27204 19.4592 4.486 19.9985 4.72214 20.5378C4.95828 21.0771 5.19552 21.6046 5.45272 22.1107C5.65672 22.5362 5.87182 22.9404 6.0869 23.3505C6.30087 23.7298 6.53035 24.1317 6.77315 24.556C7.0747 25.061 7.37512 25.5552 7.68665 26.0139C7.99818 26.4726 8.3308 26.9622 8.67448 27.4268C8.94277 27.7931 9.2 28.138 9.46829 28.4711C9.75876 28.8385 10.0381 29.1823 10.2842 29.4691C10.6823 29.929 11.1002 30.3877 11.5515 30.8583C11.8308 31.157 12.1213 31.4438 12.3996 31.72C14.0152 30.8891 15.5478 29.8851 16.9739 28.7235C19.064 27.029 20.9123 25.0182 22.4606 22.7543L22.4639 22.7508ZM34.2866 11.9645C34.4581 12.0746 34.5941 12.2379 34.6765 12.4327C34.7589 12.6276 34.7838 12.8446 34.7478 13.055C34.5327 14.1917 34.2755 15.3165 33.964 16.4295C33.6524 17.5425 33.2988 18.6342 32.9008 19.701C32.8605 19.8074 32.8022 19.905 32.7289 19.989C32.5605 20.1978 32.3219 20.3273 32.0649 20.3495C31.8078 20.3717 31.5529 20.2848 31.3553 20.1075C30.6298 19.4323 29.8619 18.811 29.0571 18.2478C28.2663 17.6947 27.4409 17.2001 26.587 16.7673C26.363 16.6593 26.1849 16.4657 26.0877 16.2244C25.9904 15.9832 25.9811 15.7118 26.0615 15.4635C26.3827 14.4975 26.6514 13.5124 26.8664 12.5133C26.9628 12.1233 27.0382 11.7322 27.1136 11.328C27.3608 11.4311 27.597 11.5354 27.8442 11.6492C28.209 11.8223 28.5737 12.0048 28.9384 12.1897C28.8852 12.4647 28.8276 12.729 28.7666 12.9933C28.5959 13.7626 28.4019 14.5342 28.1768 15.2893C28.842 15.6567 29.4972 16.0692 30.1302 16.5054C30.6136 16.8503 31.097 17.2166 31.5593 17.5959C31.7522 17.0222 31.9351 16.4367 32.0959 15.8404C32.332 15.025 32.5249 14.181 32.7079 13.3264C31.2988 12.2964 29.7991 11.4158 28.23 10.6974C27.2636 10.2508 26.2742 9.8634 25.2666 9.53697C24.3459 9.23969 23.4101 8.99829 22.4639 8.81394C21.7987 8.6883 21.1113 8.58518 20.4129 8.50458C19.7144 8.42398 19.0282 8.37775 18.3408 8.35523L17.955 8.34338H17.2034L16.8275 8.35523C16.1402 8.37775 15.4417 8.42398 14.7543 8.50458C14.067 8.58518 13.3696 8.6883 12.6934 8.81394C11.7588 8.99766 10.8252 9.25013 9.89064 9.53697C9.53587 9.65551 9.18223 9.77405 8.82746 9.90443C8.79531 9.68634 8.76316 9.48009 8.74209 9.26199C8.67779 8.7689 8.63125 8.28648 8.60243 7.79221C11.4994 6.76819 14.5313 6.24794 17.5825 6.25131C21.3567 6.25684 25.0941 7.04418 28.5881 8.56978C30.6032 9.46747 32.5161 10.6076 34.2899 11.968L34.2866 11.9645ZM16.3974 21.0451C16.2366 20.827 16.0969 20.6315 15.9683 20.4596C14.9466 18.9641 14.0791 17.355 13.3807 15.6603C13.2843 15.4315 13.1867 15.2016 13.1014 14.9716C13.016 14.7417 12.9506 14.5473 12.8796 14.3292C12.8489 14.2534 12.8273 14.1737 12.8153 14.0921C12.7924 13.9571 12.7949 13.8186 12.8226 13.6846C12.8503 13.5507 12.9027 13.424 12.9767 13.3119C13.0507 13.1998 13.1448 13.1046 13.2536 13.0317C13.3623 12.959 13.4836 12.91 13.6102 12.8878C13.8142 12.8416 14.0536 12.8072 14.2975 12.7693L14.9949 12.665C15.425 12.62 15.8541 12.5856 16.2943 12.5465C16.7344 12.5074 17.1812 12.5121 17.5836 12.5121C17.9861 12.5121 18.4206 12.5228 18.8818 12.5465C19.3253 12.5808 19.7522 12.6152 20.1712 12.665L20.8685 12.7693C21.1269 12.8037 21.3519 12.8381 21.567 12.8878C21.6218 12.8973 21.6756 12.9124 21.7277 12.9329C21.9707 13.0267 22.1692 13.2193 22.2799 13.4689C22.3906 13.7184 22.4045 14.0047 22.3187 14.2652C22.2322 14.5022 22.1468 14.7464 22.0603 14.9764C21.9739 15.2063 21.8885 15.4363 21.7921 15.665C21.4432 16.5097 21.0524 17.3339 20.6213 18.134C20.1882 18.9399 19.7114 19.718 19.1934 20.4643C19.0323 20.6927 18.8929 20.8879 18.7754 21.0499C18.5925 21.2869 18.4528 21.4861 18.332 21.6236C18.2941 21.6749 18.2506 21.721 18.2022 21.761C18.1047 21.8489 17.9918 21.9151 17.8701 21.9558C17.7484 21.9965 17.6204 22.0108 17.4935 21.998C17.3665 21.9852 17.2432 21.9455 17.1308 21.8812C17.0183 21.8169 16.9191 21.7293 16.8386 21.6236C16.6779 21.428 16.5382 21.2443 16.3952 21.0499L16.3974 21.0451Z" fill="#38CEC9"/>
</g>
<path d="M45.1769 14.9226C45.8638 13.7802 47.0722 13.209 48.8022 13.209V15.6366C48.5987 15.5958 48.4142 15.5754 48.2489 15.5754C47.3203 15.5754 46.5952 15.8678 46.0737 16.4526C45.5521 17.0238 45.2913 17.8534 45.2913 18.9414V24.225H42.9062V13.3314H45.1769V14.9226Z" fill="white"/>
<path d="M60.3109 18.8394C60.3109 19.0162 60.2982 19.2678 60.2727 19.5942H52.2779C52.4178 20.3966 52.7803 21.0358 53.3655 21.5118C53.9633 21.9742 54.7011 22.2054 55.5788 22.2054C56.6982 22.2054 57.6205 21.811 58.3456 21.0222L59.624 22.593C59.166 23.1778 58.5872 23.6198 57.8876 23.919C57.188 24.2182 56.3993 24.3678 55.5216 24.3678C54.4022 24.3678 53.4164 24.1298 52.5641 23.6538C51.7118 23.1778 51.0503 22.5182 50.5797 21.675C50.1218 20.8182 49.8928 19.8526 49.8928 18.7782C49.8928 17.7174 50.1154 16.7654 50.5606 15.9222C51.0185 15.0654 51.6482 14.399 52.4496 13.923C53.251 13.447 54.1542 13.209 55.1591 13.209C56.1513 13.209 57.0353 13.447 57.8113 13.923C58.6 14.3854 59.2105 15.045 59.643 15.9018C60.0883 16.745 60.3109 17.7242 60.3109 18.8394ZM55.1591 15.249C54.3958 15.249 53.7471 15.4938 53.2128 15.9834C52.6913 16.4594 52.3733 17.0986 52.2588 17.901H58.0403C57.9385 17.1122 57.6268 16.473 57.1053 15.9834C56.5838 15.4938 55.935 15.249 55.1591 15.249Z" fill="white"/>
<path d="M65.7502 24.3678C64.9234 24.3678 64.1156 24.2522 63.327 24.021C62.5383 23.7898 61.9086 23.4974 61.438 23.1438L62.3539 21.2058C62.8118 21.5322 63.3588 21.7974 63.9948 22.0014C64.6435 22.1918 65.2796 22.287 65.9029 22.287C67.3276 22.287 68.0399 21.8858 68.0399 21.0834C68.0399 20.7026 67.8555 20.4374 67.4866 20.2878C67.1304 20.1382 66.5516 19.9954 65.7502 19.8594C64.9107 19.7234 64.2238 19.567 63.6895 19.3902C63.168 19.2134 62.71 18.9074 62.3157 18.4722C61.9341 18.0234 61.7433 17.4046 61.7433 16.6158C61.7433 15.5822 62.144 14.7594 62.9454 14.1474C63.7595 13.5218 64.8534 13.209 66.2272 13.209C66.9269 13.209 67.6265 13.2974 68.3261 13.4742C69.0258 13.6374 69.5982 13.8618 70.0434 14.1474L69.1275 16.0854C68.2625 15.5414 67.2894 15.2694 66.2082 15.2694C65.5085 15.2694 64.9743 15.385 64.6054 15.6162C64.2492 15.8338 64.0711 16.1262 64.0711 16.4934C64.0711 16.9014 64.2619 17.1938 64.6435 17.3706C65.0379 17.5338 65.6421 17.6902 66.4562 17.8398C67.2703 17.9758 67.9381 18.1322 68.4597 18.309C68.9812 18.4858 69.4264 18.785 69.7953 19.2066C70.177 19.6282 70.3678 20.2266 70.3678 21.0018C70.3678 22.0218 69.9543 22.8378 69.1275 23.4498C68.3007 24.0618 67.1749 24.3678 65.7502 24.3678Z" fill="white"/>
<path d="M82.0003 18.8394C82.0003 19.0162 81.9876 19.2678 81.9621 19.5942H73.9673C74.1072 20.3966 74.4698 21.0358 75.0549 21.5118C75.6528 21.9742 76.3906 22.2054 77.2683 22.2054C78.3877 22.2054 79.3099 21.811 80.035 21.0222L81.3134 22.593C80.8555 23.1778 80.2767 23.6198 79.5771 23.919C78.8774 24.2182 78.0888 24.3678 77.211 24.3678C76.0916 24.3678 75.1058 24.1298 74.2535 23.6538C73.4013 23.1778 72.7398 22.5182 72.2691 21.675C71.8112 20.8182 71.5822 19.8526 71.5822 18.7782C71.5822 17.7174 71.8048 16.7654 72.25 15.9222C72.708 15.0654 73.3377 14.399 74.139 13.923C74.9404 13.447 75.8436 13.209 76.8485 13.209C77.8407 13.209 78.7248 13.447 79.5007 13.923C80.2894 14.3854 80.9 15.045 81.3325 15.9018C81.7777 16.745 82.0003 17.7242 82.0003 18.8394ZM76.8485 15.249C76.0853 15.249 75.4365 15.4938 74.9023 15.9834C74.3807 16.4594 74.0627 17.0986 73.9482 17.901H79.7297C79.6279 17.1122 79.3163 16.473 78.7947 15.9834C78.2732 15.4938 77.6245 15.249 76.8485 15.249Z" fill="white"/>
<path d="M88.9661 24.3678C87.9103 24.3678 86.9626 24.1298 86.1231 23.6538C85.2835 23.1778 84.6284 22.5182 84.1578 21.675C83.6871 20.8182 83.4518 19.8526 83.4518 18.7782C83.4518 17.7038 83.6871 16.745 84.1578 15.9018C84.6284 15.0586 85.2772 14.399 86.104 13.923C86.9436 13.447 87.8976 13.209 88.9661 13.209C89.971 13.209 90.8488 13.4266 91.5993 13.8618C92.3625 14.297 92.9349 14.9226 93.3165 15.7386L91.4848 16.881C91.1922 16.3778 90.8233 16.0038 90.3781 15.759C89.9456 15.5006 89.4686 15.3714 88.947 15.3714C88.0566 15.3714 87.3188 15.6842 86.7337 16.3098C86.1485 16.9218 85.856 17.7446 85.856 18.7782C85.856 19.8118 86.1422 20.6414 86.7146 21.267C87.2997 21.879 88.0439 22.185 88.947 22.185C89.4686 22.185 89.9456 22.0626 90.3781 21.8178C90.8233 21.5594 91.1922 21.1786 91.4848 20.6754L93.3165 21.8178C92.9222 22.6338 92.3434 23.2662 91.5802 23.715C90.8297 24.1502 89.9583 24.3678 88.9661 24.3678Z" fill="white"/>
<path d="M105.243 13.3314V24.225H102.972V22.8378C102.591 23.3274 102.114 23.7082 101.541 23.9802C100.969 24.2386 100.352 24.3678 99.6905 24.3678C98.3295 24.3678 97.2546 23.9666 96.4659 23.1642C95.69 22.3482 95.302 21.1446 95.302 19.5534V13.3314H97.6871V19.2066C97.6871 20.1858 97.8906 20.9202 98.2976 21.4098C98.7174 21.8858 99.3089 22.1238 100.072 22.1238C100.924 22.1238 101.599 21.845 102.095 21.2874C102.604 20.7162 102.858 19.9002 102.858 18.8394V13.3314H105.243Z" fill="white"/>
<path d="M110.636 14.9226C111.323 13.7802 112.532 13.209 114.262 13.209V15.6366C114.058 15.5958 113.874 15.5754 113.708 15.5754C112.78 15.5754 112.055 15.8678 111.533 16.4526C111.012 17.0238 110.751 17.8534 110.751 18.9414V24.225H108.366V13.3314H110.636V14.9226Z" fill="white"/>
<path d="M121.933 13.209C122.925 13.209 123.809 13.4402 124.585 13.9026C125.374 14.365 125.991 15.0178 126.436 15.861C126.881 16.7042 127.104 17.6766 127.104 18.7782C127.104 19.8798 126.881 20.859 126.436 21.7158C125.991 22.559 125.374 23.2118 124.585 23.6742C123.809 24.1366 122.925 24.3678 121.933 24.3678C121.233 24.3678 120.591 24.2386 120.006 23.9802C119.433 23.7218 118.95 23.3342 118.556 22.8174V24.225H116.285V9.0882H118.67V14.6574C119.077 14.1814 119.554 13.821 120.101 13.5762C120.661 13.3314 121.272 13.209 121.933 13.209ZM121.666 22.185C122.544 22.185 123.262 21.8722 123.822 21.2466C124.394 20.621 124.681 19.7982 124.681 18.7782C124.681 17.7582 124.394 16.9354 123.822 16.3098C123.262 15.6842 122.544 15.3714 121.666 15.3714C121.093 15.3714 120.578 15.5142 120.12 15.7998C119.662 16.0718 119.3 16.4662 119.033 16.983C118.766 17.4998 118.632 18.0982 118.632 18.7782C118.632 19.4582 118.766 20.0566 119.033 20.5734C119.3 21.0902 119.662 21.4914 120.12 21.777C120.578 22.049 121.093 22.185 121.666 22.185Z" fill="white"/>
<defs>
<clipPath id="clip0_337_1594">
<rect width="34.9814" height="34" fill="white"/>
</clipPath>
</defs>
</svg>
