<svg width="113" height="29" viewBox="0 0 113 29" fill="none" xmlns="http://www.w3.org/2000/svg">
<path d="M45.8947 17.8877C45.8947 19.2657 45.5682 20.278 44.9153 20.9248C44.2624 21.5716 43.2546 21.895 41.892 21.895C40.5436 21.895 39.11 21.8247 37.5913 21.6841V18.8368C38.6984 18.9071 39.8339 18.9423 40.9978 18.9423C41.3243 18.9423 41.5798 18.8509 41.7643 18.6681C41.963 18.4712 42.0624 18.2111 42.0624 17.8877V9.87318H39.2946V6.92045H45.8947V17.8877Z" fill="white"/>
<path d="M55.4747 21.6841H47.81V18.7314H49.7262V9.87318H47.81V6.92045H55.4747V9.87318H53.5585V18.7314H55.4747V21.6841Z" fill="white"/>
<path d="M70.1636 21.3677C66.8423 21.7192 63.7906 21.895 61.0086 21.895C59.6176 21.895 58.5956 21.5716 57.9427 20.9248C57.2898 20.278 56.9634 19.2657 56.9634 17.8877V11.1386C56.9634 9.66227 57.2969 8.59367 57.964 7.93282C58.6453 7.25791 59.7312 6.92045 61.2215 6.92045H68.8862V9.87318H62.0731C61.2215 9.87318 60.7957 10.295 60.7957 11.1386V17.8877C60.7957 18.2111 60.888 18.4712 61.0725 18.6681C61.2712 18.8509 61.5338 18.9423 61.8602 18.9423C63.4925 18.9423 64.9829 18.9071 66.3313 18.8368V15.7786H63.5635V13.2477H70.1636V21.3677Z" fill="white"/>
<path d="M85.0713 21.3677C81.7499 21.7192 78.6982 21.895 75.9163 21.895C74.5253 21.895 73.5033 21.5716 72.8504 20.9248C72.1975 20.278 71.871 19.2657 71.871 17.8877V11.1386C71.871 9.66227 72.2046 8.59367 72.8717 7.93282C73.553 7.25791 74.6388 6.92045 76.1292 6.92045H83.7938V9.87318H76.9808C76.1292 9.87318 75.7033 10.295 75.7033 11.1386V17.8877C75.7033 18.2111 75.7956 18.4712 75.9801 18.6681C76.1788 18.8509 76.4414 18.9423 76.7679 18.9423C78.4002 18.9423 79.8905 18.9071 81.2389 18.8368V15.7786H78.4711V13.2477H85.0713V21.3677Z" fill="white"/>
<path d="M91.0368 18.7314H98.8079V21.6841H87.2045V6.92045H91.0368V18.7314Z" fill="white"/>
<path d="M112.12 21.6841H100.303V6.92045H112.12V9.87318H104.136V12.7205H110.416V15.6732H104.136V18.7314H112.12V21.6841Z" fill="white"/>
<g clip-path="url(#clip0_337_1590)">
<path fill-rule="evenodd" clip-rule="evenodd" d="M1.6199 5.03281C2.0521 5.03466 2.46604 5.20557 2.77165 5.50832C3.07726 5.81106 3.24981 6.22113 3.25168 6.64927C3.26313 7.06905 3.43953 7.46783 3.7433 7.76072C4.04707 8.05362 4.45422 8.21752 4.87813 8.21752C5.30204 8.21752 5.70919 8.05362 6.01296 7.76072C6.31673 7.46783 6.49313 7.06905 6.50458 6.64927V1.61649C6.50645 1.18834 6.67894 0.778261 6.98455 0.475516C7.29016 0.172771 7.70416 0.00187521 8.13636 1.90735e-05C8.56689 0.00403812 8.97846 0.175966 9.28191 0.478544C9.58535 0.781123 9.75619 1.18997 9.75742 1.61649V12.1829C9.75155 12.3981 9.78929 12.6124 9.86839 12.8129C9.94748 13.0135 10.0664 13.1963 10.218 13.3506C10.3696 13.5049 10.5508 13.6275 10.7511 13.7113C10.9513 13.795 11.1665 13.8382 11.3839 13.8382C11.6012 13.8382 11.8164 13.795 12.0166 13.7113C12.2169 13.6275 12.3982 13.5049 12.5498 13.3506C12.7014 13.1963 12.8203 13.0135 12.8993 12.8129C12.9784 12.6124 13.0162 12.3981 13.0103 12.1829V6.64927C13.0122 6.22113 13.1847 5.81106 13.4903 5.50832C13.796 5.20557 14.2099 5.03466 14.6421 5.03281C15.0726 5.03683 15.4842 5.20877 15.7876 5.51135C16.0911 5.81393 16.262 6.22276 16.2632 6.64927V12.1829C16.2632 12.61 16.4345 13.0197 16.7394 13.3217C17.0443 13.6238 17.4578 13.7935 17.889 13.7935C18.3202 13.7935 18.7338 13.6238 19.0387 13.3217C19.3436 13.0197 19.5149 12.61 19.5149 12.1829V1.61649C19.5168 1.18814 19.6895 0.777878 19.9953 0.4751C20.3012 0.172322 20.7154 0.00156591 21.1478 1.90735e-05C21.5788 0.00219645 21.9914 0.173567 22.2951 0.476578C22.5987 0.77959 22.7687 1.18952 22.7678 1.61649V6.64927C22.7792 7.06905 22.9556 7.46783 23.2594 7.76072C23.5631 8.05362 23.9703 8.21752 24.3942 8.21752C24.8181 8.21752 25.2253 8.05362 25.5291 7.76072C25.8328 7.46783 26.0092 7.06905 26.0206 6.64927C26.0225 6.22093 26.1952 5.81068 26.5011 5.5079C26.8069 5.20512 27.2212 5.03435 27.6536 5.03281C28.0846 5.03499 28.4972 5.20637 28.8009 5.50938C29.1045 5.81239 29.2745 6.22231 29.2735 6.64927V22.3625C29.272 22.7876 29.1008 23.1949 28.7973 23.4955C28.4939 23.7961 28.0828 23.9657 27.6536 23.9672C27.2231 23.9663 26.8102 23.7974 26.5045 23.497C26.1989 23.1966 26.025 22.789 26.0206 22.3625C26.0265 22.1473 25.9888 21.933 25.9097 21.7325C25.8306 21.5319 25.7117 21.3491 25.5601 21.1948C25.4085 21.0405 25.2272 20.9179 25.027 20.8341C24.8267 20.7504 24.6115 20.7072 24.3942 20.7072C24.1768 20.7072 23.9617 20.7504 23.7615 20.8341C23.5612 20.9179 23.3799 21.0405 23.2283 21.1948C23.0767 21.3491 22.9578 21.5319 22.8787 21.7325C22.7996 21.933 22.7619 22.1473 22.7678 22.3625V27.3894C22.7681 27.6003 22.7264 27.8092 22.6451 28.0041C22.5638 28.199 22.4445 28.3761 22.2941 28.5252C22.1436 28.6744 21.9649 28.7927 21.7682 28.8734C21.5715 28.954 21.3607 28.9955 21.1478 28.9953C20.7167 28.9959 20.3029 28.8273 19.9971 28.5263C19.6912 28.2253 19.5183 27.8165 19.5161 27.3894V16.8089C19.5161 16.3818 19.3448 15.9721 19.0399 15.6701C18.735 15.368 18.3214 15.1983 17.8902 15.1983C17.459 15.1983 17.0455 15.368 16.7406 15.6701C16.4357 15.9721 16.2644 16.3818 16.2644 16.8089V22.3543C16.2607 22.7789 16.0886 23.1851 15.7854 23.4853C15.4821 23.7855 15.072 23.9556 14.6433 23.959C14.213 23.9578 13.8004 23.7887 13.495 23.4883C13.1896 23.188 13.0159 22.7806 13.0115 22.3543V16.8089C13.0001 16.3891 12.8237 15.9904 12.5199 15.6975C12.2161 15.4046 11.809 15.2407 11.3851 15.2407C10.9612 15.2407 10.554 15.4046 10.2502 15.6975C9.94643 15.9904 9.77008 16.3891 9.75864 16.8089V27.3894C9.75738 27.815 9.58617 28.2227 9.28243 28.5236C8.97869 28.8245 8.56708 28.9941 8.13752 28.9953C7.7063 28.9963 7.29232 28.8277 6.98641 28.5266C6.68049 28.2256 6.50762 27.8166 6.50574 27.3894V22.3578C6.51161 22.1426 6.47387 21.9283 6.39477 21.7278C6.31567 21.5272 6.19685 21.3444 6.04524 21.1901C5.89363 21.0358 5.71232 20.9131 5.51207 20.8294C5.31182 20.7457 5.09665 20.7025 4.87929 20.7025C4.66193 20.7025 4.44676 20.7457 4.24651 20.8294C4.04626 20.9131 3.86501 21.0358 3.7134 21.1901C3.56179 21.3444 3.4429 21.5272 3.36381 21.7278C3.28471 21.9283 3.24697 22.1426 3.25284 22.3578C3.24847 22.7841 3.0748 23.1915 2.76939 23.4919C2.46398 23.7922 2.05141 23.9613 1.62106 23.9625C1.19238 23.9591 0.782233 23.789 0.478988 23.4888C0.175742 23.1887 0.00372237 22.7825 0 22.3578V6.64927C0.00122977 6.22276 0.172065 5.81393 0.475511 5.51135C0.778957 5.20877 1.19053 5.03683 1.62106 5.03281H1.6199ZM6.50458 11.2835C6.51045 11.0683 6.47271 10.8541 6.39361 10.6535C6.31451 10.4529 6.19563 10.2701 6.04402 10.1158C5.89241 9.96152 5.71116 9.83889 5.51091 9.75515C5.31066 9.6714 5.09549 9.62826 4.87813 9.62826C4.66077 9.62826 4.4456 9.6714 4.24535 9.75515C4.0451 9.83889 3.86379 9.96152 3.71218 10.1158C3.56057 10.2701 3.44175 10.4529 3.36265 10.6535C3.28355 10.8541 3.24581 11.0683 3.25168 11.2835V17.7282C3.26313 18.148 3.43953 18.5468 3.7433 18.8397C4.04707 19.1326 4.45422 19.2965 4.87813 19.2965C5.30204 19.2965 5.70919 19.1326 6.01296 18.8397C6.31673 18.5468 6.49313 18.148 6.50458 17.7282V11.2835ZM22.763 17.7282V11.2835C22.7572 11.0683 22.7949 10.8541 22.874 10.6535C22.9531 10.4529 23.0719 10.2701 23.2235 10.1158C23.3752 9.96152 23.5565 9.83889 23.7567 9.75515C23.957 9.6714 24.1721 9.62826 24.3895 9.62826C24.6069 9.62826 24.822 9.6714 25.0222 9.75515C25.2225 9.83889 25.4038 9.96152 25.5554 10.1158C25.707 10.2701 25.8259 10.4529 25.905 10.6535C25.9841 10.8541 26.0218 11.0683 26.0159 11.2835V17.7282C26.0044 18.148 25.8281 18.5468 25.5243 18.8397C25.2206 19.1326 24.8134 19.2965 24.3895 19.2965C23.9656 19.2965 23.5584 19.1326 23.2546 18.8397C22.9508 18.5468 22.7745 18.148 22.763 17.7282Z" fill="#E15539"/>
</g>
<defs>
<clipPath id="clip0_337_1590">
<rect width="29.2747" height="29" fill="white"/>
</clipPath>
</defs>
</svg>
