<svg width="188" height="49" viewBox="0 0 188 49" fill="none" xmlns="http://www.w3.org/2000/svg">
<path d="M76.8367 29.7786C76.8367 32.1068 76.2888 33.8174 75.1928 34.9102C74.0968 36.0031 72.4052 36.5495 70.118 36.5495C67.8546 36.5495 65.4482 36.4307 62.8989 36.1932V31.3822C64.7573 31.501 66.6633 31.5604 68.617 31.5604C69.165 31.5604 69.5938 31.406 69.9036 31.0972C70.2371 30.7645 70.4039 30.325 70.4039 29.7786V16.2368H65.758V11.2477H76.8367V29.7786Z" fill="#787A88"/>
<path d="M92.9174 36.1932H80.0518V31.2041H83.2682V16.2368H80.0518V11.2477H92.9174V16.2368H89.701V31.2041H92.9174V36.1932Z" fill="#787A88"/>
<path d="M117.574 35.6586C111.999 36.2525 106.876 36.5495 102.207 36.5495C99.8716 36.5495 98.1562 36.0031 97.0602 34.9102C95.9643 33.8174 95.4163 32.1068 95.4163 29.7786V18.375C95.4163 15.8804 95.9762 14.0748 97.096 12.9582C98.2396 11.8179 100.062 11.2477 102.564 11.2477H115.43V16.2368H103.993C102.564 16.2368 101.849 16.9495 101.849 18.375V29.7786C101.849 30.325 102.004 30.7645 102.314 31.0972C102.647 31.406 103.088 31.5604 103.636 31.5604C106.376 31.5604 108.878 31.501 111.141 31.3822V26.215H106.495V21.9386H117.574V35.6586Z" fill="#787A88"/>
<path d="M142.597 35.6586C137.022 36.2525 131.9 36.5495 127.23 36.5495C124.895 36.5495 123.18 36.0031 122.084 34.9102C120.988 33.8174 120.44 32.1068 120.44 29.7786V18.375C120.44 15.8804 121 14.0748 122.12 12.9582C123.263 11.8179 125.086 11.2477 127.587 11.2477H140.453V16.2368H129.017C127.587 16.2368 126.873 16.9495 126.873 18.375V29.7786C126.873 30.325 127.028 30.7645 127.337 31.0972C127.671 31.406 128.112 31.5604 128.66 31.5604C131.4 31.5604 133.901 31.501 136.165 31.3822V26.215H131.519V21.9386H142.597V35.6586Z" fill="#787A88"/>
<path d="M152.611 31.2041H165.655V36.1932H146.178V11.2477H152.611V31.2041Z" fill="#787A88"/>
<path d="M188 36.1932H168.165V11.2477H188V16.2368H174.598V21.0477H185.141V26.0368H174.598V31.2041H188V36.1932Z" fill="#787A88"/>
<g clip-path="url(#clip0_337_1337)">
<path fill-rule="evenodd" clip-rule="evenodd" d="M2.71921 8.5037C3.44469 8.50684 4.13951 8.79562 4.6525 9.30715C5.1655 9.81868 5.45512 10.5116 5.45827 11.235C5.47749 11.9442 5.77359 12.618 6.28349 13.1129C6.79339 13.6078 7.47682 13.8848 8.18838 13.8848C8.89994 13.8848 9.58338 13.6078 10.0933 13.1129C10.6032 12.618 10.8993 11.9442 10.9185 11.235V2.73129C10.9216 2.00788 11.2112 1.31498 11.7242 0.803449C12.2372 0.291915 12.9321 0.00315911 13.6576 2.28882e-05C14.3802 0.00681369 15.0711 0.297312 15.5804 0.808566C16.0898 1.31982 16.3766 2.01064 16.3786 2.73129V20.5849C16.3688 20.9486 16.4321 21.3105 16.5649 21.6494C16.6977 21.9883 16.8972 22.2972 17.1517 22.5579C17.4062 22.8186 17.7104 23.0258 18.0466 23.1673C18.3827 23.3088 18.7439 23.3817 19.1087 23.3817C19.4736 23.3817 19.8348 23.3088 20.1709 23.1673C20.507 23.0258 20.8114 22.8186 21.0658 22.5579C21.3203 22.2972 21.5198 21.9883 21.6526 21.6494C21.7853 21.3105 21.8487 20.9486 21.8388 20.5849V11.235C21.842 10.5116 22.1316 9.81868 22.6446 9.30715C23.1576 8.79562 23.8524 8.50684 24.5779 8.5037C25.3006 8.51049 25.9914 8.80101 26.5008 9.31227C27.0101 9.82352 27.297 10.5143 27.2991 11.235V20.5849C27.2991 21.3066 27.5866 21.9988 28.0984 22.5092C28.6102 23.0195 29.3043 23.3062 30.0281 23.3062C30.7519 23.3062 31.4461 23.0195 31.9579 22.5092C32.4697 21.9988 32.7572 21.3066 32.7572 20.5849V2.73129C32.7604 2.00754 33.0503 1.31434 33.5637 0.802746C34.0771 0.291155 34.7724 0.0026365 35.4982 2.28882e-05C36.2217 0.0037019 36.9142 0.293258 37.4239 0.805244C37.9337 1.31723 38.219 2.00987 38.2175 2.73129V11.235C38.2367 11.9442 38.5327 12.618 39.0426 13.1129C39.5525 13.6078 40.2359 13.8848 40.9475 13.8848C41.659 13.8848 42.3426 13.6078 42.8525 13.1129C43.3624 12.618 43.6584 11.9442 43.6776 11.235C43.6807 10.5112 43.9706 9.81804 44.484 9.30645C44.9975 8.79486 45.6929 8.50631 46.4187 8.5037C47.1422 8.50738 47.8347 8.79696 48.3444 9.30894C48.8541 9.82093 49.1394 10.5135 49.1378 11.235V37.7849C49.1352 38.5032 48.8478 39.1914 48.3385 39.6993C47.8291 40.2072 47.139 40.4937 46.4187 40.4963C45.696 40.4948 45.0029 40.2093 44.4899 39.7018C43.9768 39.1943 43.6849 38.5055 43.6776 37.7849C43.6874 37.4212 43.6242 37.0593 43.4914 36.7204C43.3586 36.3815 43.1591 36.0726 42.9046 35.8119C42.6501 35.5512 42.3458 35.344 42.0096 35.2025C41.6735 35.061 41.3123 34.9881 40.9475 34.9881C40.5826 34.9881 40.2215 35.061 39.8854 35.2025C39.5493 35.344 39.2449 35.5512 38.9904 35.8119C38.736 36.0726 38.5364 36.3815 38.4036 36.7204C38.2709 37.0593 38.2076 37.4212 38.2175 37.7849V46.2787C38.218 46.635 38.148 46.9879 38.0115 47.3172C37.8751 47.6465 37.6749 47.9458 37.4223 48.1978C37.1697 48.4498 36.8697 48.6497 36.5396 48.786C36.2094 48.9223 35.8556 48.9923 35.4982 48.9921C34.7746 48.9931 34.08 48.7082 33.5666 48.1996C33.0532 47.691 32.7629 47.0003 32.7592 46.2787V28.4013C32.7592 27.6795 32.4717 26.9873 31.9599 26.477C31.4481 25.9666 30.7539 25.6799 30.0301 25.6799C29.3063 25.6799 28.6122 25.9666 28.1003 26.477C27.5885 26.9873 27.301 27.6795 27.301 28.4013V37.771C27.2948 38.4886 27.006 39.1749 26.497 39.6821C25.988 40.1893 25.2995 40.4767 24.5799 40.4824C23.8576 40.4804 23.165 40.1947 22.6524 39.6872C22.1397 39.1797 21.8482 38.4913 21.8409 37.771V28.4013C21.8217 27.692 21.5256 27.0182 21.0157 26.5233C20.5058 26.0284 19.8223 25.7515 19.1108 25.7515C18.3992 25.7515 17.7157 26.0284 17.2058 26.5233C16.6959 27.0182 16.3999 27.692 16.3807 28.4013V46.2787C16.3786 46.9977 16.0912 47.6866 15.5813 48.195C15.0715 48.7034 14.3805 48.99 13.6595 48.9921C12.9357 48.9937 12.2408 48.7089 11.7273 48.2002C11.2138 47.6915 10.9236 47.0004 10.9204 46.2787V37.777C10.9303 37.4133 10.8669 37.0513 10.7342 36.7124C10.6014 36.3736 10.4019 36.0646 10.1475 35.8039C9.89296 35.5432 9.58863 35.336 9.25249 35.1945C8.91635 35.053 8.55519 34.9801 8.19033 34.9801C7.82547 34.9801 7.4643 35.053 7.12816 35.1945C6.79203 35.336 6.48779 35.5432 6.2333 35.8039C5.97881 36.0646 5.77925 36.3736 5.64648 36.7124C5.51371 37.0513 5.45036 37.4133 5.46022 37.777C5.45288 38.4972 5.16137 39.1857 4.64871 39.6931C4.13606 40.2006 3.44353 40.4863 2.72116 40.4884C2.00158 40.4827 1.31313 40.1952 0.804107 39.688C0.295088 39.1808 0.00633982 38.4945 9.15527e-05 37.777V11.235C0.00215581 10.5143 0.288915 9.82352 0.798271 9.31227C1.30763 8.80101 1.99847 8.51049 2.72116 8.5037H2.71921ZM10.9185 19.0653C10.9283 18.7016 10.865 18.3396 10.7322 18.0007C10.5995 17.6619 10.3999 17.353 10.1454 17.0922C9.89092 16.8315 9.58668 16.6243 9.25054 16.4828C8.91441 16.3413 8.55324 16.2684 8.18838 16.2684C7.82352 16.2684 7.46235 16.3413 7.12622 16.4828C6.79008 16.6243 6.48574 16.8315 6.23126 17.0922C5.97677 17.353 5.77731 17.6619 5.64454 18.0007C5.51177 18.3396 5.44842 18.7016 5.45827 19.0653V29.9546C5.47749 30.6639 5.77359 31.3377 6.28349 31.8326C6.79339 32.3275 7.47682 32.6044 8.18838 32.6044C8.89994 32.6044 9.58338 32.3275 10.0933 31.8326C10.6032 31.3377 10.8993 30.6639 10.9185 29.9546V19.0653ZM38.2095 29.9546V19.0653C38.1996 18.7016 38.2629 18.3396 38.3957 18.0007C38.5284 17.6619 38.728 17.353 38.9825 17.0922C39.237 16.8315 39.5413 16.6243 39.8774 16.4828C40.2136 16.3413 40.5747 16.2684 40.9396 16.2684C41.3045 16.2684 41.6655 16.3413 42.0017 16.4828C42.3378 16.6243 42.6421 16.8315 42.8966 17.0922C43.1511 17.353 43.3507 17.6619 43.4834 18.0007C43.6162 18.3396 43.6795 18.7016 43.6696 19.0653V29.9546C43.6504 30.6639 43.3544 31.3377 42.8445 31.8326C42.3346 32.3275 41.6511 32.6044 40.9396 32.6044C40.228 32.6044 39.5445 32.3275 39.0346 31.8326C38.5247 31.3377 38.2287 30.6639 38.2095 29.9546Z" fill="#787A88"/>
</g>
<defs>
<clipPath id="clip0_337_1337">
<rect width="49.1397" height="49" fill="white"/>
</clipPath>
</defs>
</svg>
