<svg width="179" height="45" viewBox="0 0 179 45" fill="none" xmlns="http://www.w3.org/2000/svg">
<g clip-path="url(#clip0_337_1356)">
<path d="M39.9403 3.03711C40.1978 3.12745 40.4222 3.2927 40.5844 3.51147C40.7466 3.73025 40.8392 3.99248 40.8503 4.26425C40.9901 5.71558 41.0498 7.17349 41.0289 8.63135C41.0135 9.30014 40.9981 9.96892 40.9534 10.6377C40.7009 10.5334 40.4622 10.4291 40.2082 10.3309C39.5676 10.0794 38.9409 9.84162 38.2988 9.61767C38.3142 9.27714 38.3296 8.9504 38.3296 8.60833C38.3435 7.52385 38.3142 6.42402 38.2249 5.31039C37.1809 4.98367 36.0923 4.68608 34.9913 4.41918C33.6055 4.09245 32.2196 3.82402 30.8153 3.63075C30.0254 3.52798 29.2647 3.43747 28.5348 3.36384C27.805 3.29021 27.0274 3.24573 26.2374 3.21045C25.6215 3.19511 25.0441 3.1813 24.4189 3.1813L23.5089 3.19511C23.2395 3.19511 22.9269 3.21045 22.5989 3.21045C21.809 3.24112 21.0483 3.29941 20.3015 3.36384C19.5547 3.42826 18.8109 3.52798 18.021 3.63075C16.6352 3.82402 15.2324 4.09092 13.845 4.41918C12.741 4.68608 11.6677 4.98367 10.6114 5.31039C10.4297 7.7522 10.4948 10.206 10.8055 12.6349C10.9704 13.9936 11.2094 15.3424 11.5215 16.6752C11.7001 17.433 11.9095 18.1908 12.1374 18.9179L12.1528 18.9777L12.1667 19.0375L12.1821 19.0973L12.2113 19.1556L12.2267 19.2154L12.2421 19.2753L12.2575 19.3351L12.316 19.4977V19.513L12.3314 19.5713L12.4361 19.8536L12.45 19.9134L12.5409 20.1511L12.5547 20.1956C13.0153 21.5259 13.5483 22.8301 14.1515 24.1025L14.1807 24.147L14.1962 24.193L14.21 24.2222L14.2407 24.2667L14.2546 24.3111L14.2701 24.3556L14.2993 24.3848C14.5241 24.8449 14.7613 25.3051 15.0015 25.7653C15.1801 26.0629 15.3432 26.3789 15.508 26.6565C15.702 26.9991 15.8812 27.2962 16.0454 27.5477C16.552 28.3653 17.0879 29.1676 17.6561 29.9407C18.2243 30.7138 18.8032 31.4562 19.4453 32.1986C19.6845 32.4808 19.953 32.7779 20.2507 33.0898C20.534 33.3966 20.8019 33.7034 21.056 33.9657C21.7119 34.6345 22.3972 35.2741 23.0839 35.8969L23.3672 36.1347C23.1732 36.2881 22.9792 36.4414 22.7714 36.5948C22.234 36.9952 21.6827 37.3817 21.1299 37.7683C18.1503 35.1074 15.5869 32.0177 13.5247 28.6015V28.5862L13.5093 28.5724L13.494 28.5571C13.3754 28.3638 13.2707 28.1705 13.166 28.0079C12.9873 27.6812 12.7933 27.3529 12.6301 27.0415C12.1374 26.1503 11.6893 25.23 11.2582 24.2636C10.827 23.2972 10.4529 22.3477 10.1095 21.3967C9.62982 20.0523 9.22165 18.6837 8.88681 17.2965C7.87373 13.0285 7.57156 8.62372 7.99224 4.25812C8.00485 3.98594 8.09982 3.72393 8.26472 3.50655C8.42961 3.28917 8.65673 3.12659 8.91613 3.04018C10.3328 2.56467 11.7802 2.14897 13.2414 1.79156C14.6735 1.46484 16.1486 1.178 17.6561 0.960178C18.426 0.855871 19.236 0.766905 20.0859 0.693276C20.9067 0.618114 21.712 0.559824 22.5019 0.529145C22.8006 0.529145 23.1178 0.513809 23.4565 0.513809L24.4267 0.5L25.3952 0.513809C25.7386 0.513809 26.0665 0.529145 26.3498 0.529145C27.1552 0.559824 27.9605 0.618114 28.7812 0.693276C29.6312 0.766905 30.4365 0.855871 31.1972 0.960178C32.717 1.1826 34.1937 1.46484 35.6257 1.79156C37.0731 2.14897 38.519 2.55853 39.951 3.04018L39.9403 3.03711ZM31.2003 29.9422C31.7376 29.1844 32.2781 28.4083 32.7662 27.6091C32.9347 27.3077 33.2111 27.0807 33.5401 26.9732C33.8692 26.8657 34.2268 26.8857 34.5417 27.0293C37.1331 28.2632 39.4855 29.9431 41.4908 31.9915C41.7254 32.207 41.8764 32.4979 41.9172 32.8131C41.958 33.1284 41.8862 33.4479 41.7141 33.7157C41.2968 34.3691 40.8349 35.0517 40.373 35.7205C39.911 36.3893 39.4029 37.0427 38.9116 37.6671C38.5529 38.1272 38.1648 38.6027 37.7475 39.0783C37.3903 39.4939 36.9869 39.9541 36.5404 40.445C35.9137 41.1291 35.3085 41.7519 34.6926 42.3609H34.6772C34.0813 42.956 33.4453 43.5358 32.7832 44.1141C32.5879 44.3037 32.34 44.4306 32.0716 44.4784C31.8032 44.5263 31.5264 44.4929 31.2772 44.3826C29.3143 43.4849 27.4244 42.4366 25.6246 41.2472C25.8633 41.0693 26.1019 40.8914 26.3406 40.6981C26.8472 40.2962 27.3554 39.8958 27.8312 39.471C29.0474 40.2411 30.3076 40.9402 31.6052 41.5647C32.0071 41.1935 32.3951 40.8223 32.7986 40.4358C33.4237 39.8222 34.0058 39.2332 34.5432 38.638C34.9004 38.2668 35.273 37.822 35.6919 37.3464C36.0491 36.9154 36.4218 36.4691 36.7806 35.9951C37.2718 35.3999 37.7198 34.7909 38.1525 34.1666C38.3912 33.8598 38.6145 33.5132 38.8377 33.1864C38.1665 32.5454 37.4485 31.9547 36.6897 31.4194C35.9709 30.9001 35.219 30.4282 34.4385 30.0066C34.0951 30.5266 33.7379 31.0328 33.3791 31.5221C32.7539 32.3842 32.1118 33.1864 31.4559 33.9595C31.1572 34.3001 30.8738 34.613 30.6059 34.9106C30.4858 35.064 30.3518 35.1928 30.2179 35.3401L30.2025 35.3554L30.1886 35.3708L30.1732 35.3846L30.1578 35.3999L30.144 35.4152L30.1286 35.4306L30.1131 35.4444L30.0839 35.4751V35.4889C28.6599 36.983 27.13 38.3732 25.506 39.6489C23.0519 41.526 20.3896 43.1164 17.5714 44.3887C17.3152 44.5032 17.0298 44.536 16.7542 44.4827C16.4786 44.4295 16.2262 44.2927 16.0316 44.0911C15.3741 43.5267 14.7628 42.9468 14.1515 42.367C13.5356 41.7734 12.9289 41.1398 12.3037 40.4511C11.8418 39.9603 11.4398 39.5001 11.081 39.0844C10.6791 38.6089 10.2911 38.1334 9.91851 37.6732C9.42577 37.0351 8.94844 36.3954 8.4711 35.7266C7.99376 35.0578 7.54722 34.3752 7.12993 33.7218C6.80041 33.2018 6.45852 32.648 6.11514 32.0728C5.80718 31.5083 5.48844 30.9438 5.19126 30.3855C4.80476 29.6722 4.44601 28.9436 4.10263 28.2165C3.75926 27.4895 3.46208 26.7593 3.1495 26.0015C2.58285 24.621 2.09012 23.2098 1.65743 21.7679C1.22474 20.326 0.867506 18.8718 0.579561 17.4008C0.523507 17.1299 0.553751 16.8482 0.6661 16.5953C0.77845 16.3423 0.967274 16.1305 1.20624 15.9896C2.94248 14.7602 4.77218 13.6673 6.67874 12.7208C6.75265 13.4341 6.84347 14.132 6.96204 14.83C6.9913 15.0677 7.03595 15.3055 7.08061 15.5432C5.81491 16.2027 4.59013 16.9372 3.4128 17.7429C3.65147 18.8565 3.93479 19.941 4.24737 20.9963C4.6508 22.3631 5.12819 23.6991 5.65019 24.9845C5.93352 25.6825 6.23069 26.3804 6.55867 27.0784C6.88665 27.7763 7.21614 28.4589 7.57338 29.1139C7.8567 29.6646 8.15546 30.1876 8.45418 30.7184C8.75137 31.2092 9.0701 31.7292 9.40732 32.2784C9.82615 32.9318 10.2434 33.5715 10.6761 34.1651C11.1088 34.7587 11.5707 35.3922 12.0481 35.9935C12.4207 36.4675 12.778 36.9139 13.1506 37.3449C13.554 37.8204 13.9421 38.2653 14.2839 38.6365C14.8367 39.2316 15.4172 39.8253 16.0439 40.4342C16.432 40.8208 16.8354 41.192 17.2219 41.5494C19.4658 40.4741 21.5944 39.1749 23.5751 37.6716C26.4781 35.4787 29.0452 32.8764 31.1957 29.9468L31.2003 29.9422ZM47.6208 15.9835C47.859 16.1259 48.0479 16.3373 48.1623 16.5894C48.2768 16.8416 48.3114 17.1225 48.2614 17.3947C47.9627 18.8657 47.6054 20.3214 47.1727 21.7618C46.74 23.2021 46.2489 24.6149 45.6961 25.9954C45.64 26.1331 45.5591 26.2595 45.4574 26.3681C45.2234 26.6384 44.8921 26.806 44.535 26.8347C44.178 26.8634 43.824 26.7509 43.5496 26.5215C42.5419 25.6477 41.4754 24.8436 40.3576 24.1148C39.2592 23.399 38.1129 22.7589 36.9268 22.1989C36.6157 22.0591 36.3683 21.8085 36.2333 21.4963C36.0982 21.1841 36.0853 20.8329 36.197 20.5116C36.643 19.2614 37.0163 17.9867 37.3148 16.6937C37.4488 16.189 37.5535 15.6828 37.6582 15.1597C38.0016 15.2932 38.3296 15.4282 38.673 15.5754C39.1796 15.7994 39.6861 16.0356 40.1927 16.2749C40.1188 16.6308 40.0388 16.9728 39.9541 17.3149C39.717 18.3104 39.4475 19.309 39.135 20.2861C40.0588 20.7616 40.9688 21.2954 41.848 21.8599C42.5194 22.3063 43.1908 22.7803 43.8329 23.2711C44.1008 22.5287 44.3549 21.771 44.5781 20.9994C44.9061 19.9441 45.174 18.8519 45.4281 17.7459C43.4711 16.4129 41.3882 15.2734 39.2089 14.3437C37.8666 13.7658 36.4924 13.2644 35.0929 12.842C33.8141 12.4572 32.5145 12.1448 31.2003 11.9063C30.2764 11.7437 29.3217 11.6102 28.3516 11.5059C27.3815 11.4016 26.4284 11.3418 25.4737 11.3126L24.9378 11.2973H23.8939L23.3719 11.3126C22.4172 11.3418 21.4471 11.4016 20.4924 11.5059C19.5377 11.6102 18.5692 11.7437 17.6299 11.9063C16.3318 12.144 15.0353 12.4708 13.7372 12.842C13.2445 12.9954 12.7533 13.1488 12.2606 13.3175C12.2159 13.0353 12.1712 12.7683 12.142 12.4861C12.0527 11.848 11.988 11.2237 11.948 10.584C15.9716 9.25883 20.1827 8.58556 24.4205 8.58993C29.6624 8.59709 34.8534 9.616 39.7062 11.5903C42.505 12.752 45.1618 14.2274 47.6254 15.9881L47.6208 15.9835ZM22.7744 27.7349C22.5512 27.4526 22.3571 27.1995 22.1785 26.9771C20.7595 25.0418 19.5545 22.9594 18.5846 20.7662C18.4507 20.4702 18.3151 20.1726 18.1966 19.875C18.078 19.5775 17.9872 19.3259 17.8886 19.0436C17.8459 18.9456 17.8159 18.8425 17.7993 18.7369C17.7675 18.5622 17.771 18.3829 17.8094 18.2095C17.8479 18.0362 17.9207 17.8722 18.0234 17.7271C18.1262 17.5821 18.2569 17.4588 18.408 17.3646C18.5591 17.2704 18.7274 17.2071 18.9033 17.1784C19.1867 17.1186 19.5192 17.0741 19.858 17.025L20.8265 16.89C21.424 16.8317 22.0199 16.7872 22.6312 16.7366C23.2425 16.686 23.863 16.6921 24.422 16.6921C24.9809 16.6921 25.5845 16.7059 26.2251 16.7366C26.841 16.7811 27.4339 16.8256 28.016 16.89L28.9844 17.025C29.3432 17.0695 29.6558 17.114 29.9546 17.1784C30.0307 17.1906 30.1054 17.2101 30.1778 17.2367C30.5153 17.358 30.791 17.6074 30.9447 17.9303C31.0984 18.2533 31.1178 18.6237 30.9985 18.9608C30.8784 19.2676 30.7598 19.5836 30.6397 19.8812C30.5196 20.1787 30.4011 20.4763 30.2671 20.7724C29.7827 21.8655 29.2399 22.9321 28.6411 23.9675C28.0395 25.0104 27.3773 26.0174 26.6578 26.9832C26.434 27.2788 26.2405 27.5314 26.0773 27.741C25.8232 28.0478 25.6292 28.3055 25.4614 28.4834C25.4088 28.5498 25.3483 28.6096 25.2812 28.6614C25.1458 28.775 24.989 28.8607 24.82 28.9134C24.6509 28.966 24.4731 28.9846 24.2968 28.968C24.1205 28.9515 23.9492 28.9001 23.7931 28.8169C23.6369 28.7337 23.499 28.6203 23.3873 28.4834C23.164 28.2303 22.97 27.9926 22.7714 27.741L22.7744 27.7349Z" fill="#787A88"/>
</g>
<path d="M63.177 19.8116C64.1376 18.3332 65.8275 17.594 68.2468 17.594V20.7356C67.9622 20.6828 67.7042 20.6564 67.473 20.6564C66.1744 20.6564 65.1604 21.0348 64.4311 21.7916C63.7018 22.5308 63.3371 23.6044 63.3371 25.0124V31.85H60.0017V17.7524H63.177V19.8116Z" fill="#787A88"/>
<path d="M84.341 24.8804C84.341 25.1092 84.3232 25.4348 84.2876 25.8572H73.1073C73.303 26.8956 73.81 27.7228 74.6283 28.3388C75.4643 28.9372 76.4961 29.2364 77.7235 29.2364C79.2889 29.2364 80.5786 28.726 81.5926 27.7052L83.3804 29.738C82.74 30.4948 81.9306 31.0668 80.9522 31.454C79.9738 31.8412 78.8709 32.0348 77.6435 32.0348C76.0781 32.0348 74.6994 31.7268 73.5076 31.1108C72.3157 30.4948 71.3907 29.6412 70.7325 28.55C70.0921 27.4412 69.7719 26.1916 69.7719 24.8012C69.7719 23.4284 70.0832 22.1964 70.7058 21.1052C71.3462 19.9964 72.2268 19.134 73.3475 18.518C74.4682 17.902 75.7312 17.594 77.1365 17.594C78.524 17.594 79.7603 17.902 80.8455 18.518C81.9484 19.1164 82.8022 19.97 83.407 21.0788C84.0297 22.17 84.341 23.4372 84.341 24.8804ZM77.1365 20.234C76.0692 20.234 75.1619 20.5508 74.4148 21.1844C73.6855 21.8004 73.2407 22.6276 73.0806 23.666H81.1657C81.0233 22.6452 80.5875 21.818 79.8582 21.1844C79.1288 20.5508 78.2216 20.234 77.1365 20.234Z" fill="#787A88"/>
<path d="M91.9476 32.0348C90.7913 32.0348 89.6617 31.8852 88.5588 31.586C87.4559 31.2868 86.5753 30.9084 85.9171 30.4508L87.1979 27.9428C87.8383 28.3652 88.6033 28.7084 89.4927 28.9724C90.3999 29.2188 91.2894 29.342 92.161 29.342C94.1534 29.342 95.1495 28.8228 95.1495 27.7844C95.1495 27.2916 94.8916 26.9484 94.3757 26.7548C93.8776 26.5612 93.0683 26.3764 91.9476 26.2004C90.7735 26.0244 89.8129 25.822 89.0658 25.5932C88.3364 25.3644 87.696 24.9684 87.1446 24.4052C86.6109 23.8244 86.3441 23.0236 86.3441 22.0028C86.3441 20.6652 86.9044 19.6004 88.0251 18.8084C89.1636 17.9988 90.6934 17.594 92.6146 17.594C93.593 17.594 94.5714 17.7084 95.5498 17.9372C96.5282 18.1484 97.3287 18.4388 97.9513 18.8084L96.6705 21.3164C95.4608 20.6124 94.1 20.2604 92.588 20.2604C91.6096 20.2604 90.8624 20.41 90.3466 20.7092C89.8485 20.9908 89.5994 21.3692 89.5994 21.8444C89.5994 22.3724 89.8663 22.7508 90.3999 22.9796C90.9514 23.1908 91.7964 23.3932 92.9348 23.5868C94.0733 23.7628 95.0072 23.9652 95.7366 24.194C96.4659 24.4228 97.0885 24.81 97.6044 25.3556C98.1381 25.9012 98.4049 26.6756 98.4049 27.6788C98.4049 28.9988 97.8268 30.0548 96.6705 30.8468C95.5142 31.6388 93.9399 32.0348 91.9476 32.0348Z" fill="#787A88"/>
<path d="M114.672 24.8804C114.672 25.1092 114.654 25.4348 114.619 25.8572H103.439C103.634 26.8956 104.141 27.7228 104.96 28.3388C105.796 28.9372 106.827 29.2364 108.055 29.2364C109.62 29.2364 110.91 28.726 111.924 27.7052L113.712 29.738C113.071 30.4948 112.262 31.0668 111.284 31.454C110.305 31.8412 109.202 32.0348 107.975 32.0348C106.409 32.0348 105.031 31.7268 103.839 31.1108C102.647 30.4948 101.722 29.6412 101.064 28.55C100.423 27.4412 100.103 26.1916 100.103 24.8012C100.103 23.4284 100.415 22.1964 101.037 21.1052C101.678 19.9964 102.558 19.134 103.679 18.518C104.799 17.902 106.062 17.594 107.468 17.594C108.855 17.594 110.092 17.902 111.177 18.518C112.28 19.1164 113.134 19.97 113.738 21.0788C114.361 22.17 114.672 23.4372 114.672 24.8804ZM107.468 20.234C106.4 20.234 105.493 20.5508 104.746 21.1844C104.017 21.8004 103.572 22.6276 103.412 23.666H111.497C111.355 22.6452 110.919 21.818 110.19 21.1844C109.46 20.5508 108.553 20.234 107.468 20.234Z" fill="#787A88"/>
<path d="M124.414 32.0348C122.937 32.0348 121.612 31.7268 120.438 31.1108C119.264 30.4948 118.348 29.6412 117.689 28.55C117.031 27.4412 116.702 26.1916 116.702 24.8012C116.702 23.4108 117.031 22.17 117.689 21.0788C118.348 19.9876 119.255 19.134 120.411 18.518C121.585 17.902 122.919 17.594 124.414 17.594C125.819 17.594 127.046 17.8756 128.096 18.4388C129.163 19.002 129.964 19.8116 130.497 20.8676L127.936 22.346C127.527 21.6948 127.011 21.2108 126.388 20.894C125.783 20.5596 125.116 20.3924 124.387 20.3924C123.142 20.3924 122.11 20.7972 121.292 21.6068C120.473 22.3988 120.064 23.4636 120.064 24.8012C120.064 26.1388 120.464 27.2124 121.265 28.022C122.083 28.814 123.124 29.21 124.387 29.21C125.116 29.21 125.783 29.0516 126.388 28.7348C127.011 28.4004 127.527 27.9076 127.936 27.2564L130.497 28.7348C129.946 29.7908 129.136 30.6092 128.069 31.19C127.02 31.7532 125.801 32.0348 124.414 32.0348Z" fill="#787A88"/>
<path d="M147.176 17.7524V31.85H144V30.0548C143.467 30.6884 142.8 31.1812 141.999 31.5332C141.199 31.8676 140.336 32.0348 139.411 32.0348C137.508 32.0348 136.004 31.5156 134.902 30.4772C133.816 29.4212 133.274 27.8636 133.274 25.8044V17.7524H136.609V25.3556C136.609 26.6228 136.894 27.5732 137.463 28.2068C138.05 28.8228 138.877 29.1308 139.945 29.1308C141.136 29.1308 142.079 28.77 142.773 28.0484C143.485 27.3092 143.84 26.2532 143.84 24.8804V17.7524H147.176Z" fill="#787A88"/>
<path d="M154.718 19.8116C155.679 18.3332 157.369 17.594 159.788 17.594V20.7356C159.503 20.6828 159.245 20.6564 159.014 20.6564C157.716 20.6564 156.702 21.0348 155.972 21.7916C155.243 22.5308 154.878 23.6044 154.878 25.0124V31.85H151.543V17.7524H154.718V19.8116Z" fill="#787A88"/>
<path d="M170.516 17.594C171.903 17.594 173.14 17.8932 174.225 18.4916C175.328 19.09 176.19 19.9348 176.813 21.026C177.436 22.1172 177.747 23.3756 177.747 24.8012C177.747 26.2268 177.436 27.494 176.813 28.6028C176.19 29.694 175.328 30.5388 174.225 31.1372C173.14 31.7356 171.903 32.0348 170.516 32.0348C169.537 32.0348 168.639 31.8676 167.821 31.5332C167.02 31.1988 166.344 30.6972 165.793 30.0284V31.85H162.617V12.2612H165.953V19.4684C166.522 18.8524 167.189 18.386 167.954 18.0692C168.737 17.7524 169.591 17.594 170.516 17.594ZM170.142 29.21C171.37 29.21 172.375 28.8052 173.157 27.9956C173.958 27.186 174.358 26.1212 174.358 24.8012C174.358 23.4812 173.958 22.4164 173.157 21.6068C172.375 20.7972 171.37 20.3924 170.142 20.3924C169.342 20.3924 168.621 20.5772 167.981 20.9468C167.34 21.2988 166.833 21.8092 166.46 22.478C166.086 23.1468 165.9 23.9212 165.9 24.8012C165.9 25.6812 166.086 26.4556 166.46 27.1244C166.833 27.7932 167.34 28.3124 167.981 28.682C168.621 29.034 169.342 29.21 170.142 29.21Z" fill="#787A88"/>
<defs>
<clipPath id="clip0_337_1356">
<rect width="48.5857" height="44" fill="white" transform="translate(0 0.5)"/>
</clipPath>
</defs>
</svg>
