<svg width="153" height="36" viewBox="0 0 153 36" fill="none" xmlns="http://www.w3.org/2000/svg">
<g clip-path="url(#clip0_94_2195)">
<path fill-rule="evenodd" clip-rule="evenodd" d="M3.70314 33.7L6.85997 31.89L8.12742 31.1627L9.37177 30.4453L11.3242 29.3264L14.4249 27.5559L17.5289 29.3264L19.4781 30.4453L20.7223 31.1627L21.9931 31.89L25.0839 33.6737L26.0236 34.2068L26.9403 34.73L28.8001 35.7963V18.664L25.0839 16.5282V29.4317L22.5688 27.9837L18.8625 25.8644L17.4494 25.0417L16.2847 24.3835V3.10807H12.5683V24.8903L9.98724 26.3745L6.28426 28.5103L3.70314 29.9813V16.5546L0 18.6771V35.8226L1.84656 34.7564L2.77324 34.2331L3.70314 33.7ZM22.5656 25.0285V-0.735687H18.8592V22.9092L22.5656 25.0285ZM9.99063 23.4029V6.94852H6.28749V25.5386L9.99063 23.4029Z" fill="#28CE8C"/>
</g>
<path d="M44.5012 25.65H47.7382L50.722 15.3793H50.8447L53.8362 25.65H57.0731L61.568 9.94091H57.9399L55.3396 20.879H55.2015L52.3404 9.94091H49.2339L46.3652 20.856H46.2348L43.6345 9.94091H40.0063L44.5012 25.65Z" fill="#787A88"/>
<path d="M63.3456 25.65H73.9615V22.9116H66.6669V19.1608H73.3862V16.4224H66.6669V12.6793H73.9309V9.94091H63.3456V25.65Z" fill="#787A88"/>
<path d="M76.5714 25.65H86.6274V22.9116H79.8927V9.94091H76.5714V25.65Z" fill="#787A88"/>
<path d="M85.9025 9.94091L91.6323 20.0966V25.65H94.9306V20.0966L100.66 9.94091H96.9403L93.3582 16.7062H93.2048L89.6227 9.94091H85.9025Z" fill="#787A88"/>
<path d="M102.868 12.6793H107.677V25.65H110.96V12.6793H115.769V9.94091H102.868V12.6793Z" fill="#787A88"/>
<path d="M121.215 9.94091H117.894V25.65H121.215V9.94091Z" fill="#787A88"/>
<path d="M137.808 15.4406C137.371 11.8125 134.625 9.72614 130.989 9.72614C126.84 9.72614 123.672 12.6562 123.672 17.7955C123.672 22.9193 126.786 25.8648 130.989 25.8648C135.016 25.8648 137.448 23.1878 137.808 20.296L134.449 20.2807C134.134 21.9605 132.815 22.927 131.043 22.927C128.658 22.927 127.039 21.1551 127.039 17.7955C127.039 14.5278 128.635 12.6639 131.066 12.6639C132.884 12.6639 134.196 13.7148 134.449 15.4406H137.808Z" fill="#787A88"/>
<path d="M148.712 14.4588H151.895C151.849 11.6591 149.548 9.72614 146.05 9.72614C142.606 9.72614 140.083 11.6284 140.098 14.4818C140.09 16.7983 141.724 18.1253 144.378 18.7619L146.089 19.1915C147.799 19.6057 148.75 20.0966 148.758 21.1551C148.75 22.3057 147.661 23.0881 145.974 23.0881C144.248 23.0881 143.005 22.2903 142.898 20.7179H139.684C139.768 24.1159 142.2 25.8724 146.012 25.8724C149.847 25.8724 152.102 24.0392 152.11 21.1628C152.102 18.5472 150.131 17.1588 147.4 16.5452L145.989 16.2077C144.624 15.8932 143.481 15.3869 143.504 14.2594C143.504 13.2469 144.401 12.5028 146.027 12.5028C147.615 12.5028 148.589 13.2239 148.712 14.4588Z" fill="#787A88"/>
<defs>
<clipPath id="clip0_94_2195">
<rect width="28.8" height="36" fill="white"/>
</clipPath>
</defs>
</svg>
