<svg xmlns="http://www.w3.org/2000/svg" xmlns:xlink="http://www.w3.org/1999/xlink" width="129" zoomAndPan="magnify" viewBox="0 0 96.75 30.000001" height="40" preserveAspectRatio="xMidYMid meet" version="1.0"><defs><g/><clipPath id="1dc0c7180a"><path d="M 4.34375 6.441406 L 20.308594 6.441406 L 20.308594 22.410156 L 4.34375 22.410156 Z M 4.34375 6.441406 " clip-rule="nonzero"/></clipPath></defs><g clip-path="url(#1dc0c7180a)"><path fill="#000000" d="M 19.132812 10.261719 L 18.480469 9.390625 C 18.480469 9.386719 18.476562 9.382812 18.472656 9.382812 L 17.40625 8.269531 L 17.40625 8.265625 L 17.402344 8.261719 L 16.917969 7.917969 L 16.542969 7.652344 L 15.355469 7.109375 L 14.554688 6.769531 L 13.605469 6.542969 L 12.578125 6.445312 L 11.539062 6.484375 L 10.554688 6.65625 L 9.683594 6.949219 L 9.683594 6.953125 L 9.679688 6.953125 L 8.589844 7.429688 L 8.585938 7.429688 C 8.585938 7.433594 8.582031 7.433594 8.582031 7.433594 L 7.613281 7.992188 L 7.609375 7.996094 L 7.128906 8.488281 L 6.9375 8.679688 L 6.9375 8.683594 L 5.753906 9.898438 L 5.75 9.902344 L 5.011719 11.429688 L 4.59375 12.457031 L 4.589844 12.460938 L 4.585938 12.46875 L 4.589844 12.476562 L 4.34375 14.222656 L 4.34375 14.226562 C 4.34375 14.226562 4.34375 14.230469 4.34375 14.234375 L 4.453125 15.339844 L 4.453125 15.351562 L 4.746094 17.058594 L 4.75 17.066406 L 5.5625 18.597656 L 6.132812 19.53125 L 6.132812 19.535156 L 6.140625 19.539062 L 7.296875 20.59375 L 8.113281 21.257812 L 9.238281 21.792969 L 10.15625 22.066406 L 11.09375 22.308594 L 12.121094 22.410156 L 13.160156 22.355469 L 14.144531 22.152344 L 14.929688 21.917969 L 16.125 21.441406 L 17.058594 20.8125 L 18.160156 19.808594 L 18.164062 19.808594 L 18.167969 19.804688 L 18.890625 18.90625 L 19.691406 17.429688 L 19.695312 17.425781 L 19.992188 16.355469 C 19.992188 16.355469 19.992188 16.355469 19.992188 16.351562 L 20.308594 14.628906 L 20.308594 14.621094 L 20.089844 12.875 L 20.089844 12.871094 L 19.859375 11.820312 C 19.859375 11.8125 19.855469 11.804688 19.851562 11.800781 L 19.136719 10.265625 Z M 19.765625 11.847656 L 19.914062 12.535156 L 19.328125 11.242188 L 19.339844 11.210938 L 19.230469 10.703125 Z M 19.898438 16.328125 L 19.820312 16.601562 L 19.972656 15.769531 L 20 15.734375 L 20.011719 15.695312 Z M 18.097656 19.734375 L 17.074219 20.421875 L 17.582031 19.296875 L 17.597656 19.292969 L 18.753906 18.515625 L 18.167969 19.644531 Z M 13.285156 22.226562 L 13.152344 22.253906 L 12.128906 22.308594 L 12.125 22.308594 L 12.09375 22.257812 L 13.375 22.191406 Z M 9.277344 21.699219 L 9.230469 21.675781 L 8.65625 21.042969 L 10.183594 21.441406 L 10.199219 21.441406 L 10.542969 22.054688 L 9.972656 21.90625 Z M 7.878906 20.9375 L 7.367188 20.464844 L 8.527344 21.011719 L 8.566406 21.019531 L 9.113281 21.621094 L 8.171875 21.175781 Z M 6.210938 19.464844 L 6.195312 19.4375 L 6.019531 19.152344 L 5.539062 18.234375 L 6.519531 19.03125 L 6.550781 19.046875 L 7.082031 20.175781 Z M 4.550781 15.316406 L 4.542969 15.226562 L 4.757812 13.648438 L 5.347656 14.585938 L 5.355469 14.59375 L 5.144531 16.28125 Z M 16.492188 7.734375 L 16.945312 8.0625 L 16.003906 7.589844 L 15.972656 7.550781 L 15.789062 7.414062 Z M 19.042969 10.304688 L 19.207031 11.074219 L 18.097656 9.769531 L 18.101562 9.757812 L 17.96875 9.121094 L 18.910156 10.128906 Z M 16.972656 20.492188 L 15.578125 21.046875 L 15.941406 19.941406 L 17.515625 19.324219 L 16.996094 20.476562 Z M 10.609375 22.070312 L 10.257812 21.445312 L 11.976562 21.613281 L 12.023438 22.207031 Z M 15.785156 7.539062 L 14.289062 7.3125 L 14.277344 7.296875 L 14.054688 7.136719 L 15.257812 7.175781 L 15.308594 7.199219 Z M 8.558594 20.914062 L 8.140625 19.777344 L 9.925781 20.238281 L 10.15625 21.328125 L 8.566406 20.917969 Z M 18.96875 12.113281 L 18.269531 12.933594 L 17.253906 11.222656 L 17.832031 10.5625 Z M 10.679688 7.265625 L 12.046875 7.527344 L 10.492188 7.457031 L 10.667969 7.273438 Z M 11.027344 7.066406 L 12.125 7.492188 L 10.746094 7.230469 L 11.011719 7.074219 Z M 11.460938 6.921875 L 12.222656 7.476562 L 11.101562 7.042969 L 11.453125 6.921875 Z M 11.949219 6.835938 L 12.3125 7.480469 L 11.53125 6.910156 Z M 13.496094 6.980469 L 13.820312 7.117188 L 12.597656 7.480469 L 13.484375 6.976562 Z M 13.90625 7.152344 L 14.140625 7.320312 L 12.691406 7.503906 L 13.890625 7.144531 Z M 16.261719 8.101562 L 16.351562 8.5625 L 14.527344 7.855469 L 14.488281 7.632812 L 16.253906 8.09375 Z M 17.765625 10.488281 L 17.195312 11.144531 L 15.855469 9.640625 L 16.261719 9.1875 Z M 11.992188 20.332031 L 11.984375 18.816406 L 14.0625 18.714844 L 13.988281 20.230469 Z M 13.632812 12.453125 L 13.292969 10.578125 L 14.253906 10.398438 L 14.992188 12.199219 Z M 11.246094 8.746094 L 11.707031 8.859375 L 11.132812 10.421875 L 10.230469 10.203125 Z M 12.3125 8.917969 L 12.828125 8.898438 L 13.222656 10.484375 L 12.222656 10.523438 Z M 11.800781 8.769531 L 12.359375 7.691406 L 12.269531 8.816406 Z M 12.847656 8.792969 L 12.464844 7.695312 L 13.292969 8.714844 Z M 12.796875 8.796875 L 12.320312 8.816406 L 12.410156 7.691406 Z M 13.347656 8.703125 L 12.535156 7.703125 L 13.726562 8.570312 Z M 11.746094 8.765625 L 11.324219 8.660156 L 12.296875 7.699219 Z M 13.269531 10.476562 L 12.875 8.890625 L 13.355469 8.804688 L 14.210938 10.304688 Z M 13.785156 8.550781 L 12.617188 7.699219 L 14.078125 8.375 Z M 11.265625 8.648438 L 10.914062 8.496094 L 12.222656 7.703125 Z M 11.757812 8.867188 L 12.261719 8.914062 L 12.171875 10.523438 L 11.183594 10.429688 Z M 14.261719 10.292969 L 13.40625 8.789062 L 13.816406 8.644531 L 15.066406 10.007812 Z M 14.128906 8.34375 L 12.695312 7.679688 L 14.3125 8.140625 Z M 10.859375 8.46875 L 10.601562 8.28125 L 12.140625 7.691406 Z M 10.820312 8.5625 L 11.199219 8.726562 L 10.179688 10.1875 L 9.429688 9.859375 Z M 13.242188 10.582031 L 13.582031 12.457031 L 12.132812 12.519531 L 12.214844 10.625 Z M 13.597656 12.558594 L 13.855469 14.578125 L 12.058594 14.660156 L 12.128906 12.621094 Z M 13.90625 14.574219 L 13.648438 12.550781 L 15.027344 12.292969 L 15.589844 14.25 Z M 15.042969 12.183594 L 14.304688 10.386719 L 15.132812 10.089844 L 16.210938 11.757812 Z M 15.117188 9.988281 L 13.863281 8.621094 L 14.179688 8.429688 L 15.738281 9.605469 Z M 14.421875 7.882812 L 14.347656 8.097656 L 12.753906 7.644531 Z M 10.554688 8.246094 L 10.410156 8.035156 L 12.066406 7.667969 Z M 10.5 8.332031 L 10.773438 8.535156 L 9.382812 9.835938 L 8.832031 9.421875 Z M 12.164062 10.625 L 12.082031 12.519531 L 10.648438 12.382812 L 11.152344 10.527344 Z M 12.078125 12.621094 L 12.007812 14.65625 L 10.234375 14.488281 L 10.625 12.480469 Z M 12.007812 14.757812 L 11.960938 16.777344 L 9.972656 16.585938 L 10.21875 14.589844 Z M 12.011719 16.777344 L 12.058594 14.761719 L 13.867188 14.679688 L 14.019531 16.683594 Z M 15.636719 14.234375 L 15.074219 12.28125 L 16.261719 11.847656 L 17.082031 13.699219 Z M 16.257812 11.738281 L 15.179688 10.066406 L 15.816406 9.675781 L 17.15625 11.175781 Z M 15.78125 9.574219 L 14.214844 8.394531 L 14.414062 8.179688 L 16.179688 9.132812 Z M 14.441406 8.132812 L 14.519531 7.90625 L 16.355469 8.617188 L 16.203125 9.089844 Z M 14.382812 7.613281 L 14.421875 7.832031 L 12.78125 7.597656 Z M 10.386719 7.988281 L 10.351562 7.769531 L 12.015625 7.625 Z M 10.308594 8.066406 L 10.464844 8.292969 L 8.792969 9.386719 L 8.480469 8.925781 Z M 10.128906 10.273438 L 9.238281 12.039062 L 8.148438 11.550781 L 9.355469 9.933594 Z M 10.175781 10.292969 L 11.101562 10.519531 L 10.597656 12.375 L 9.289062 12.050781 Z M 10.574219 12.472656 L 10.183594 14.480469 L 8.5625 14.074219 L 9.246094 12.144531 Z M 10.167969 14.582031 L 9.921875 16.578125 L 8.109375 16.121094 L 8.535156 14.171875 Z M 11.957031 16.878906 L 11.9375 18.714844 L 9.878906 18.519531 L 9.964844 16.6875 Z M 11.988281 18.714844 L 12.007812 16.878906 L 14.027344 16.785156 L 14.066406 18.613281 Z M 14.070312 16.675781 L 13.917969 14.671875 L 15.613281 14.347656 L 15.953125 16.308594 Z M 17.128906 13.675781 L 16.304688 11.824219 L 17.21875 11.257812 L 18.234375 12.96875 Z M 14.207031 7.367188 L 14.347656 7.5625 L 12.757812 7.546875 L 14.199219 7.363281 Z M 12.5 7.480469 L 13.015625 6.863281 L 13.414062 6.960938 Z M 12.007812 7.578125 L 10.363281 7.71875 L 10.445312 7.507812 Z M 10.253906 7.789062 L 10.289062 8.019531 L 8.464844 8.878906 L 8.402344 8.402344 Z M 8.75 9.488281 L 9.3125 9.910156 L 8.105469 11.527344 L 7.3125 10.921875 Z M 9.199219 12.128906 L 8.515625 14.058594 L 7.167969 13.449219 L 8.097656 11.636719 Z M 8.488281 14.15625 L 8.0625 16.101562 L 6.554688 15.410156 L 7.128906 13.542969 Z M 9.914062 16.679688 L 9.832031 18.507812 L 7.957031 18.03125 L 8.09375 16.21875 Z M 11.9375 18.816406 L 11.941406 20.332031 L 9.964844 20.140625 L 9.882812 18.621094 Z M 11.941406 20.433594 L 11.96875 21.511719 L 10.210938 21.34375 L 9.980469 20.242188 Z M 14.039062 20.222656 L 14.113281 18.710938 L 16.058594 18.320312 L 15.910156 19.84375 Z M 14.117188 18.609375 L 14.074219 16.777344 L 15.964844 16.40625 L 16.0625 18.21875 Z M 16 16.292969 L 15.660156 14.335938 L 17.117188 13.792969 L 17.617188 15.679688 Z M 18 9.75 L 17.785156 10.441406 L 16.289062 9.148438 L 16.445312 8.664062 L 18 9.746094 Z M 15.902344 7.621094 L 16.207031 8.03125 L 14.476562 7.578125 L 14.476562 7.570312 L 14.332031 7.371094 L 15.875 7.601562 Z M 12.953125 6.859375 L 12.429688 7.488281 L 12.507812 6.816406 Z M 12.378906 7.492188 L 12.003906 6.832031 L 12.457031 6.816406 Z M 10.25 7.738281 L 8.425781 8.34375 L 8.597656 7.898438 L 8.609375 7.882812 L 10.332031 7.519531 Z M 8.398438 8.980469 L 8.714844 9.453125 L 7.277344 10.882812 L 6.828125 10.203125 Z M 8.050781 11.613281 L 7.125 13.425781 L 6.148438 12.664062 L 7.246094 11 Z M 7.085938 13.519531 L 6.511719 15.382812 L 5.421875 14.519531 L 6.101562 12.753906 Z M 8.042969 16.203125 L 7.90625 18.011719 L 6.355469 17.289062 L 6.535156 15.511719 Z M 9.832031 18.613281 L 9.914062 20.132812 L 8.113281 19.667969 L 7.957031 18.132812 Z M 12.019531 21.511719 L 11.992188 20.433594 L 13.976562 20.332031 L 13.800781 21.421875 Z M 17.554688 19.199219 L 15.960938 19.824219 L 16.109375 18.308594 L 17.769531 17.667969 L 17.5625 19.195312 Z M 16.109375 18.203125 L 16.011719 16.394531 L 17.632812 15.78125 L 17.777344 17.558594 Z M 17.660156 15.652344 L 17.160156 13.769531 L 18.277344 13.058594 L 18.894531 14.851562 Z M 19.234375 11.207031 L 18.984375 12.054688 L 17.867188 10.523438 L 18.082031 9.828125 L 19.230469 11.179688 Z M 17.847656 9.023438 L 17.984375 9.675781 L 16.460938 8.617188 L 16.460938 8.613281 L 16.371094 8.148438 L 17.824219 8.988281 Z M 11.949219 6.734375 L 11.921875 6.738281 L 11.664062 6.578125 L 12.53125 6.546875 L 12.480469 6.714844 Z M 11.847656 6.75 L 11.429688 6.824219 L 11.386719 6.839844 L 10.769531 6.71875 L 11.546875 6.585938 L 11.574219 6.582031 Z M 10.351562 7.464844 L 8.671875 7.820312 L 9.046875 7.4375 L 9.082031 7.414062 L 10.535156 7.269531 L 10.359375 7.453125 Z M 8.371094 8.933594 L 6.820312 10.148438 L 6.734375 9.457031 L 6.742188 9.445312 L 8.308594 8.449219 Z M 7.210938 10.964844 L 6.117188 12.621094 L 5.570312 11.769531 L 6.757812 10.277344 Z M 6.0625 12.722656 L 5.390625 14.46875 L 4.796875 13.519531 L 4.792969 13.496094 L 5.511719 11.867188 Z M 6.488281 15.488281 L 6.308594 17.253906 L 5.195312 16.359375 L 5.1875 16.347656 L 5.398438 14.628906 Z M 7.90625 18.121094 L 8.058594 19.644531 L 6.578125 18.949219 L 6.570312 18.941406 L 6.359375 17.402344 Z M 8.070312 19.757812 L 8.082031 19.761719 L 8.492188 20.882812 L 7.203125 20.273438 L 7.171875 20.25 L 6.621094 19.078125 Z M 15.511719 21.070312 L 13.851562 21.414062 L 14.027344 20.328125 L 15.882812 19.953125 L 15.515625 21.070312 Z M 18.8125 18.355469 L 17.617188 19.160156 L 17.824219 17.648438 L 19.082031 16.8125 L 18.832031 18.332031 Z M 19.089844 16.6875 L 17.824219 17.527344 L 17.679688 15.761719 L 18.914062 14.957031 L 19.09375 16.683594 Z M 19.695312 13.886719 L 18.929688 14.808594 L 18.316406 13.027344 L 19.015625 12.207031 L 19.699219 13.875 Z M 16.359375 8.082031 L 16.355469 8.0625 L 16.070312 7.679688 L 17.210938 8.25 L 17.335938 8.335938 L 17.746094 8.886719 Z M 15.128906 7.121094 L 13.984375 7.085938 L 13.957031 7.066406 L 13.660156 6.9375 L 14.460938 6.847656 L 14.519531 6.863281 Z M 13.566406 6.898438 L 13.53125 6.882812 L 13.148438 6.792969 L 13.546875 6.636719 L 13.585938 6.640625 L 14.316406 6.816406 Z M 13.0625 6.773438 L 13.035156 6.765625 L 12.53125 6.71875 L 12.585938 6.546875 L 13.433594 6.625 Z M 10.632812 6.742188 L 11.292969 6.871094 L 10.976562 6.980469 L 10.9375 7 L 9.917969 6.976562 L 10.574219 6.753906 Z M 9.722656 7.042969 L 9.777344 7.023438 L 10.855469 7.050781 L 10.613281 7.191406 L 10.589844 7.214844 L 9.1875 7.351562 Z M 8.5 7.871094 L 7.1875 8.570312 L 7.667969 8.078125 L 7.910156 7.9375 L 8.84375 7.503906 L 8.511719 7.84375 Z M 7.070312 8.691406 L 8.472656 7.941406 L 8.300781 8.386719 L 8.300781 8.394531 L 6.773438 9.367188 L 7.023438 8.738281 Z M 6.726562 10.230469 L 6.730469 10.230469 L 5.5625 11.695312 L 5.46875 10.855469 L 5.488281 10.808594 L 6.644531 9.535156 Z M 4.691406 12.484375 L 4.839844 12.113281 L 5.382812 10.980469 L 5.472656 11.804688 L 5.480469 11.816406 L 4.78125 13.394531 Z M 6.296875 17.375 L 6.304688 17.378906 L 6.511719 18.898438 L 5.46875 18.046875 L 5.441406 18.007812 L 5.199219 16.492188 Z M 10.859375 22.144531 L 12.035156 22.257812 L 12.0625 22.300781 L 11.113281 22.210938 Z M 12.074219 22.207031 L 12.027344 21.613281 L 13.769531 21.523438 L 13.507812 22.132812 Z M 15.535156 21.167969 L 16.839844 20.652344 L 16.195312 21.273438 L 16.082031 21.351562 L 15.023438 21.769531 L 15.515625 21.171875 Z M 19.140625 16.777344 L 19.148438 16.769531 L 19.90625 15.851562 L 19.675781 17.128906 L 19.605469 17.378906 L 18.894531 18.253906 Z M 19.910156 15.683594 L 19.136719 16.628906 L 18.960938 14.925781 L 19.726562 14.007812 L 19.921875 15.640625 Z M 19.054688 12.164062 L 19.058594 12.160156 L 19.308594 11.316406 L 19.964844 12.769531 L 19.984375 12.867188 L 19.722656 13.796875 Z M 18.402344 9.453125 L 18.628906 9.753906 L 17.949219 9.027344 L 17.941406 8.980469 L 17.902344 8.929688 Z M 8.941406 7.402344 L 8.398438 7.65625 L 8.628906 7.519531 L 8.96875 7.371094 Z M 6.632812 9.445312 L 6.636719 9.46875 L 5.542969 10.671875 L 5.832031 9.960938 L 6.839844 8.925781 Z M 4.699219 13.554688 L 4.714844 13.582031 L 4.519531 15.011719 L 4.476562 14.570312 L 4.441406 14.230469 L 4.632812 12.894531 Z M 5.117188 16.429688 L 5.140625 16.445312 L 5.375 17.894531 L 4.84375 17.03125 L 4.59375 15.578125 Z M 13.566406 22.121094 L 13.824219 21.519531 L 15.4375 21.1875 L 14.925781 21.808594 L 14.894531 21.820312 L 14.617188 21.90625 Z M 16.441406 21.105469 L 16.964844 20.605469 L 17.015625 20.585938 L 17.578125 20.207031 L 17 20.730469 Z M 18.8125 18.847656 L 18.511719 19.222656 L 18.328125 19.449219 L 18.84375 18.457031 L 18.875 18.4375 L 18.882812 18.429688 L 19.347656 17.855469 Z M 20.207031 14.617188 L 19.957031 15.515625 L 19.773438 13.953125 L 19.785156 13.9375 L 20.019531 13.117188 Z M 20.207031 14.617188 " fill-opacity="1" fill-rule="nonzero"/></g><g fill="#292828" fill-opacity="1"><g transform="translate(24.884534, 19.880635)"><g><path d="M 5.453125 0.296875 C 4.546875 0.296875 3.753906 0.179688 3.078125 -0.046875 C 2.410156 -0.273438 1.863281 -0.597656 1.4375 -1.015625 C 1.007812 -1.429688 0.707031 -1.921875 0.53125 -2.484375 C 0.363281 -3.046875 0.320312 -3.660156 0.40625 -4.328125 L 2.015625 -4.71875 C 1.898438 -4.289062 1.882812 -3.882812 1.96875 -3.5 C 2.0625 -3.113281 2.253906 -2.769531 2.546875 -2.46875 C 2.835938 -2.164062 3.226562 -1.925781 3.71875 -1.75 C 4.207031 -1.582031 4.796875 -1.5 5.484375 -1.5 C 6.191406 -1.5 6.757812 -1.582031 7.1875 -1.75 C 7.613281 -1.925781 7.925781 -2.148438 8.125 -2.421875 C 8.320312 -2.691406 8.421875 -2.984375 8.421875 -3.296875 C 8.421875 -3.523438 8.382812 -3.734375 8.3125 -3.921875 C 8.238281 -4.109375 8.113281 -4.273438 7.9375 -4.421875 C 7.757812 -4.578125 7.503906 -4.710938 7.171875 -4.828125 C 6.835938 -4.941406 6.410156 -5.046875 5.890625 -5.140625 L 3.890625 -5.453125 C 2.816406 -5.617188 2.015625 -5.9375 1.484375 -6.40625 C 0.953125 -6.875 0.6875 -7.46875 0.6875 -8.1875 C 0.6875 -8.707031 0.796875 -9.15625 1.015625 -9.53125 C 1.242188 -9.90625 1.550781 -10.210938 1.9375 -10.453125 C 2.332031 -10.703125 2.789062 -10.882812 3.3125 -11 C 3.832031 -11.125 4.390625 -11.1875 4.984375 -11.1875 C 5.554688 -11.1875 6.09375 -11.132812 6.59375 -11.03125 C 7.101562 -10.925781 7.566406 -10.765625 7.984375 -10.546875 C 8.398438 -10.335938 8.753906 -10.054688 9.046875 -9.703125 C 9.347656 -9.347656 9.566406 -8.921875 9.703125 -8.421875 C 9.847656 -7.921875 9.890625 -7.335938 9.828125 -6.671875 L 8.1875 -6.234375 C 8.300781 -6.722656 8.320312 -7.148438 8.25 -7.515625 C 8.1875 -7.878906 8.046875 -8.179688 7.828125 -8.421875 C 7.609375 -8.671875 7.34375 -8.863281 7.03125 -9 C 6.726562 -9.144531 6.394531 -9.25 6.03125 -9.3125 C 5.664062 -9.375 5.300781 -9.40625 4.9375 -9.40625 C 4.09375 -9.40625 3.453125 -9.265625 3.015625 -8.984375 C 2.578125 -8.710938 2.359375 -8.316406 2.359375 -7.796875 C 2.359375 -7.515625 2.421875 -7.257812 2.546875 -7.03125 C 2.671875 -6.8125 2.878906 -6.625 3.171875 -6.46875 C 3.460938 -6.320312 3.859375 -6.203125 4.359375 -6.109375 L 6.28125 -5.828125 C 7.195312 -5.671875 7.929688 -5.46875 8.484375 -5.21875 C 9.046875 -4.96875 9.457031 -4.65625 9.71875 -4.28125 C 9.976562 -3.90625 10.109375 -3.457031 10.109375 -2.9375 C 10.109375 -2.40625 9.984375 -1.9375 9.734375 -1.53125 C 9.484375 -1.132812 9.140625 -0.800781 8.703125 -0.53125 C 8.273438 -0.257812 7.78125 -0.0546875 7.21875 0.078125 C 6.65625 0.222656 6.066406 0.296875 5.453125 0.296875 Z M 5.453125 0.296875 "/></g></g></g><g fill="#292828" fill-opacity="1"><g transform="translate(35.390109, 19.880635)"><g><path d="M 2.84375 0 L 1 0 L 1 -10.875 L 6.484375 -10.875 C 7.960938 -10.875 9.070312 -10.597656 9.8125 -10.046875 C 10.5625 -9.503906 10.9375 -8.648438 10.9375 -7.484375 C 10.9375 -6.398438 10.554688 -5.582031 9.796875 -5.03125 C 9.046875 -4.476562 7.953125 -4.203125 6.515625 -4.203125 L 2.84375 -4.203125 Z M 6.59375 -5.046875 C 7.125 -5.046875 7.59375 -5.117188 8 -5.265625 C 8.40625 -5.410156 8.722656 -5.632812 8.953125 -5.9375 C 9.179688 -6.238281 9.296875 -6.625 9.296875 -7.09375 C 9.296875 -7.582031 9.191406 -7.972656 8.984375 -8.265625 C 8.773438 -8.554688 8.476562 -8.765625 8.09375 -8.890625 C 7.707031 -9.023438 7.25 -9.09375 6.71875 -9.09375 L 2.84375 -9.09375 L 2.84375 -5.046875 Z M 6.59375 -5.046875 "/></g></g></g><g fill="#292828" fill-opacity="1"><g transform="translate(46.579345, 19.880635)"><g><path d="M 11.796875 0 L 9.921875 0 L 9.921875 -5.171875 L 2.875 -5.171875 L 2.875 0 L 1 0 L 1 -10.875 L 2.875 -10.875 L 2.875 -6.015625 L 9.921875 -6.015625 L 9.921875 -10.875 L 11.796875 -10.875 Z M 11.796875 0 "/></g></g></g><g fill="#292828" fill-opacity="1"><g transform="translate(59.363786, 19.880635)"><g><path d="M 1 0 L 1 -10.875 L 10.0625 -10.875 L 10.0625 -9.140625 L 2.84375 -9.140625 L 2.84375 -6.0625 L 8.609375 -6.0625 L 8.609375 -5.3125 L 2.84375 -5.328125 L 2.84375 -1.71875 L 10.09375 -1.71875 L 10.09375 0 Z M 1 0 "/></g></g></g><g fill="#292828" fill-opacity="1"><g transform="translate(69.899746, 19.880635)"><g><path d="M 11.109375 0 L 9.359375 0 C 9.316406 -0.113281 9.269531 -0.226562 9.21875 -0.34375 C 9.175781 -0.46875 9.125 -0.628906 9.0625 -0.828125 C 9.007812 -1.035156 8.953125 -1.316406 8.890625 -1.671875 L 8.75 -2.34375 C 8.644531 -2.863281 8.484375 -3.296875 8.265625 -3.640625 C 8.054688 -3.984375 7.773438 -4.238281 7.421875 -4.40625 C 7.066406 -4.582031 6.625 -4.671875 6.09375 -4.671875 L 2.84375 -4.671875 L 2.84375 0 L 1 0 L 1 -10.875 L 7.015625 -10.875 C 7.546875 -10.875 8.046875 -10.820312 8.515625 -10.71875 C 8.984375 -10.613281 9.394531 -10.445312 9.75 -10.21875 C 10.101562 -10 10.378906 -9.695312 10.578125 -9.3125 C 10.785156 -8.9375 10.890625 -8.476562 10.890625 -7.9375 C 10.890625 -6.988281 10.601562 -6.28125 10.03125 -5.8125 C 9.457031 -5.34375 8.65625 -5.082031 7.625 -5.03125 L 7.625 -5.015625 C 8.394531 -4.941406 9.015625 -4.703125 9.484375 -4.296875 C 9.953125 -3.898438 10.257812 -3.335938 10.40625 -2.609375 L 10.53125 -1.96875 C 10.601562 -1.632812 10.6875 -1.300781 10.78125 -0.96875 C 10.882812 -0.632812 10.992188 -0.3125 11.109375 0 Z M 2.84375 -5.5 L 6.859375 -5.5 C 7.328125 -5.5 7.738281 -5.554688 8.09375 -5.671875 C 8.457031 -5.785156 8.738281 -5.984375 8.9375 -6.265625 C 9.132812 -6.546875 9.234375 -6.941406 9.234375 -7.453125 C 9.234375 -7.785156 9.164062 -8.0625 9.03125 -8.28125 C 8.90625 -8.5 8.726562 -8.664062 8.5 -8.78125 C 8.28125 -8.894531 8.03125 -8.972656 7.75 -9.015625 C 7.46875 -9.066406 7.171875 -9.09375 6.859375 -9.09375 L 2.84375 -9.09375 Z M 2.84375 -5.5 "/></g></g></g><g fill="#292828" fill-opacity="1"><g transform="translate(81.278887, 19.880635)"><g><path d="M 1 0 L 1 -10.875 L 10.0625 -10.875 L 10.0625 -9.140625 L 2.84375 -9.140625 L 2.84375 -6.0625 L 8.609375 -6.0625 L 8.609375 -5.3125 L 2.84375 -5.328125 L 2.84375 -1.71875 L 10.09375 -1.71875 L 10.09375 0 Z M 1 0 "/></g></g></g></svg>