<svg xmlns="http://www.w3.org/2000/svg" xmlns:xlink="http://www.w3.org/1999/xlink" width="129" zoomAndPan="magnify" viewBox="0 0 96.75 30.000001" height="40" preserveAspectRatio="xMidYMid meet" version="1.0"><defs><g/><clipPath id="b70f86739d"><path d="M 3.429688 6.441406 L 19.394531 6.441406 L 19.394531 22.410156 L 3.429688 22.410156 Z M 3.429688 6.441406 " clip-rule="nonzero"/></clipPath></defs><g clip-path="url(#b70f86739d)"><path fill="#000000" d="M 18.21875 10.261719 L 17.566406 9.390625 C 17.566406 9.386719 17.5625 9.382812 17.558594 9.382812 L 16.492188 8.269531 L 16.492188 8.265625 L 16.488281 8.261719 L 16.003906 7.917969 L 15.628906 7.652344 L 14.441406 7.109375 L 13.640625 6.769531 L 12.691406 6.542969 L 11.664062 6.445312 L 10.625 6.484375 L 9.640625 6.65625 L 8.769531 6.949219 L 8.769531 6.953125 L 8.765625 6.953125 L 7.675781 7.429688 L 7.671875 7.429688 C 7.667969 7.433594 7.667969 7.433594 7.667969 7.433594 L 6.699219 7.992188 L 6.695312 7.996094 L 6.214844 8.488281 L 6.023438 8.679688 L 6.023438 8.683594 L 4.839844 9.898438 L 4.835938 9.902344 L 4.097656 11.429688 L 3.679688 12.457031 L 3.675781 12.460938 L 3.671875 12.46875 L 3.675781 12.476562 L 3.429688 14.222656 L 3.429688 14.226562 C 3.429688 14.226562 3.429688 14.230469 3.429688 14.234375 L 3.539062 15.339844 L 3.539062 15.351562 L 3.832031 17.058594 L 3.835938 17.066406 L 4.648438 18.597656 L 5.21875 19.53125 L 5.21875 19.535156 L 5.226562 19.539062 L 6.382812 20.59375 L 7.199219 21.257812 L 8.324219 21.792969 L 9.242188 22.066406 L 10.179688 22.308594 L 11.207031 22.410156 L 12.246094 22.355469 L 13.230469 22.152344 L 14.015625 21.917969 L 15.210938 21.441406 L 16.144531 20.8125 L 17.246094 19.808594 L 17.25 19.808594 L 17.253906 19.804688 L 17.976562 18.90625 L 18.777344 17.429688 L 18.78125 17.425781 L 19.078125 16.355469 C 19.078125 16.355469 19.078125 16.355469 19.078125 16.351562 L 19.394531 14.628906 L 19.394531 14.621094 L 19.175781 12.875 L 19.175781 12.871094 L 18.945312 11.820312 C 18.945312 11.8125 18.941406 11.804688 18.9375 11.800781 L 18.222656 10.265625 Z M 18.851562 11.847656 L 19 12.535156 L 18.414062 11.242188 L 18.421875 11.210938 L 18.316406 10.703125 Z M 18.984375 16.328125 L 18.90625 16.601562 L 19.054688 15.769531 L 19.085938 15.734375 L 19.097656 15.695312 Z M 17.183594 19.734375 L 16.160156 20.421875 L 16.667969 19.296875 L 16.683594 19.292969 L 17.839844 18.515625 L 17.253906 19.644531 Z M 12.371094 22.226562 L 12.238281 22.253906 L 11.214844 22.308594 L 11.210938 22.308594 L 11.179688 22.257812 L 12.460938 22.191406 Z M 8.363281 21.699219 L 8.316406 21.675781 L 7.742188 21.042969 L 9.269531 21.441406 L 9.285156 21.441406 L 9.628906 22.054688 L 9.058594 21.90625 Z M 6.964844 20.9375 L 6.453125 20.464844 L 7.613281 21.011719 L 7.652344 21.019531 L 8.199219 21.621094 L 7.257812 21.175781 Z M 5.296875 19.464844 L 5.28125 19.4375 L 5.105469 19.152344 L 4.625 18.234375 L 5.605469 19.03125 L 5.632812 19.046875 L 6.167969 20.175781 Z M 3.636719 15.316406 L 3.628906 15.226562 L 3.84375 13.648438 L 4.433594 14.585938 L 4.441406 14.59375 L 4.230469 16.28125 Z M 15.578125 7.734375 L 16.03125 8.0625 L 15.089844 7.589844 L 15.058594 7.550781 L 14.875 7.414062 Z M 18.128906 10.304688 L 18.292969 11.074219 L 17.183594 9.769531 L 17.1875 9.757812 L 17.054688 9.121094 L 17.996094 10.128906 Z M 16.058594 20.492188 L 14.660156 21.046875 L 15.027344 19.941406 L 16.601562 19.324219 L 16.082031 20.476562 Z M 9.695312 22.070312 L 9.34375 21.445312 L 11.0625 21.613281 L 11.109375 22.207031 Z M 14.871094 7.539062 L 13.375 7.3125 L 13.363281 7.296875 L 13.140625 7.136719 L 14.34375 7.175781 L 14.394531 7.199219 Z M 7.644531 20.914062 L 7.226562 19.777344 L 9.011719 20.238281 L 9.242188 21.328125 L 7.652344 20.917969 Z M 18.054688 12.113281 L 17.355469 12.933594 L 16.339844 11.222656 L 16.917969 10.5625 Z M 9.765625 7.265625 L 11.132812 7.527344 L 9.578125 7.457031 L 9.753906 7.273438 Z M 10.113281 7.066406 L 11.210938 7.492188 L 9.832031 7.230469 L 10.097656 7.074219 Z M 10.546875 6.921875 L 11.308594 7.476562 L 10.1875 7.042969 L 10.535156 6.921875 Z M 11.035156 6.835938 L 11.398438 7.480469 L 10.617188 6.910156 Z M 12.582031 6.980469 L 12.90625 7.117188 L 11.683594 7.480469 L 12.570312 6.976562 Z M 12.992188 7.152344 L 13.222656 7.320312 L 11.777344 7.503906 L 12.976562 7.144531 Z M 15.347656 8.101562 L 15.4375 8.5625 L 13.613281 7.855469 L 13.574219 7.632812 L 15.339844 8.09375 Z M 16.851562 10.488281 L 16.28125 11.144531 L 14.9375 9.640625 L 15.347656 9.1875 Z M 11.074219 20.332031 L 11.070312 18.816406 L 13.148438 18.714844 L 13.074219 20.230469 Z M 12.71875 12.453125 L 12.378906 10.578125 L 13.339844 10.398438 L 14.078125 12.199219 Z M 10.332031 8.746094 L 10.792969 8.859375 L 10.21875 10.421875 L 9.316406 10.203125 Z M 11.398438 8.917969 L 11.914062 8.898438 L 12.308594 10.484375 L 11.304688 10.523438 Z M 10.886719 8.769531 L 11.445312 7.691406 L 11.355469 8.816406 Z M 11.933594 8.792969 L 11.550781 7.695312 L 12.378906 8.714844 Z M 11.882812 8.796875 L 11.40625 8.816406 L 11.496094 7.691406 Z M 12.433594 8.703125 L 11.621094 7.703125 L 12.8125 8.570312 Z M 10.832031 8.765625 L 10.410156 8.660156 L 11.382812 7.699219 Z M 12.355469 10.476562 L 11.960938 8.890625 L 12.441406 8.804688 L 13.296875 10.304688 Z M 12.871094 8.550781 L 11.703125 7.699219 L 13.164062 8.375 Z M 10.351562 8.648438 L 10 8.496094 L 11.308594 7.703125 Z M 10.84375 8.867188 L 11.347656 8.914062 L 11.257812 10.523438 L 10.269531 10.429688 Z M 13.347656 10.292969 L 12.492188 8.789062 L 12.902344 8.644531 L 14.152344 10.007812 Z M 13.214844 8.34375 L 11.78125 7.679688 L 13.398438 8.140625 Z M 9.945312 8.46875 L 9.6875 8.28125 L 11.226562 7.691406 Z M 9.90625 8.5625 L 10.285156 8.726562 L 9.265625 10.1875 L 8.515625 9.859375 Z M 12.328125 10.582031 L 12.667969 12.457031 L 11.21875 12.519531 L 11.300781 10.625 Z M 12.683594 12.558594 L 12.941406 14.578125 L 11.144531 14.660156 L 11.214844 12.621094 Z M 12.992188 14.574219 L 12.734375 12.550781 L 14.113281 12.292969 L 14.675781 14.25 Z M 14.128906 12.183594 L 13.390625 10.386719 L 14.21875 10.089844 L 15.296875 11.757812 Z M 14.203125 9.988281 L 12.949219 8.621094 L 13.265625 8.429688 L 14.824219 9.605469 Z M 13.507812 7.882812 L 13.433594 8.097656 L 11.839844 7.644531 Z M 9.640625 8.246094 L 9.496094 8.035156 L 11.152344 7.667969 Z M 9.585938 8.332031 L 9.859375 8.535156 L 8.46875 9.835938 L 7.917969 9.421875 Z M 11.25 10.625 L 11.167969 12.519531 L 9.734375 12.382812 L 10.238281 10.527344 Z M 11.164062 12.621094 L 11.09375 14.65625 L 9.320312 14.488281 L 9.710938 12.480469 Z M 11.09375 14.757812 L 11.046875 16.777344 L 9.058594 16.585938 L 9.304688 14.589844 Z M 11.097656 16.777344 L 11.140625 14.761719 L 12.953125 14.679688 L 13.105469 16.683594 Z M 14.722656 14.234375 L 14.160156 12.28125 L 15.347656 11.847656 L 16.167969 13.699219 Z M 15.34375 11.738281 L 14.265625 10.066406 L 14.902344 9.675781 L 16.242188 11.175781 Z M 14.867188 9.574219 L 13.300781 8.394531 L 13.5 8.179688 L 15.265625 9.132812 Z M 13.527344 8.132812 L 13.605469 7.90625 L 15.441406 8.617188 L 15.289062 9.089844 Z M 13.46875 7.613281 L 13.507812 7.832031 L 11.867188 7.597656 Z M 9.472656 7.988281 L 9.4375 7.769531 L 11.101562 7.625 Z M 9.394531 8.066406 L 9.550781 8.292969 L 7.878906 9.386719 L 7.566406 8.925781 Z M 9.214844 10.273438 L 8.324219 12.039062 L 7.234375 11.550781 L 8.441406 9.933594 Z M 9.261719 10.292969 L 10.1875 10.519531 L 9.683594 12.375 L 8.375 12.050781 Z M 9.660156 12.472656 L 9.269531 14.480469 L 7.648438 14.074219 L 8.332031 12.144531 Z M 9.253906 14.582031 L 9.007812 16.578125 L 7.195312 16.121094 L 7.621094 14.171875 Z M 11.042969 16.878906 L 11.023438 18.714844 L 8.964844 18.519531 L 9.050781 16.6875 Z M 11.074219 18.714844 L 11.09375 16.878906 L 13.113281 16.785156 L 13.152344 18.613281 Z M 13.15625 16.675781 L 13.003906 14.671875 L 14.699219 14.347656 L 15.039062 16.308594 Z M 16.210938 13.675781 L 15.390625 11.824219 L 16.304688 11.257812 L 17.320312 12.96875 Z M 13.292969 7.367188 L 13.433594 7.5625 L 11.84375 7.546875 L 13.285156 7.363281 Z M 11.585938 7.480469 L 12.101562 6.863281 L 12.5 6.960938 Z M 11.09375 7.578125 L 9.449219 7.71875 L 9.53125 7.507812 Z M 9.339844 7.789062 L 9.375 8.019531 L 7.550781 8.878906 L 7.488281 8.402344 Z M 7.835938 9.488281 L 8.398438 9.910156 L 7.191406 11.527344 L 6.398438 10.921875 Z M 8.285156 12.128906 L 7.601562 14.058594 L 6.253906 13.449219 L 7.179688 11.636719 Z M 7.574219 14.15625 L 7.148438 16.101562 L 5.640625 15.410156 L 6.214844 13.542969 Z M 9 16.679688 L 8.917969 18.507812 L 7.042969 18.03125 L 7.179688 16.21875 Z M 11.023438 18.816406 L 11.027344 20.332031 L 9.050781 20.140625 L 8.96875 18.621094 Z M 11.027344 20.433594 L 11.054688 21.511719 L 9.296875 21.34375 L 9.066406 20.242188 Z M 13.125 20.222656 L 13.199219 18.710938 L 15.144531 18.320312 L 14.996094 19.84375 Z M 13.203125 18.609375 L 13.160156 16.777344 L 15.050781 16.40625 L 15.148438 18.21875 Z M 15.085938 16.292969 L 14.746094 14.335938 L 16.203125 13.792969 L 16.703125 15.679688 Z M 17.085938 9.75 L 16.871094 10.441406 L 15.375 9.148438 L 15.53125 8.664062 L 17.082031 9.746094 Z M 14.988281 7.621094 L 15.292969 8.03125 L 13.5625 7.578125 L 13.5625 7.570312 L 13.417969 7.371094 L 14.960938 7.601562 Z M 12.039062 6.859375 L 11.511719 7.488281 L 11.59375 6.816406 Z M 11.464844 7.492188 L 11.089844 6.832031 L 11.542969 6.816406 Z M 9.335938 7.738281 L 7.511719 8.34375 L 7.683594 7.898438 L 7.695312 7.882812 L 9.417969 7.519531 Z M 7.484375 8.980469 L 7.800781 9.453125 L 6.363281 10.882812 L 5.914062 10.203125 Z M 7.136719 11.613281 L 6.210938 13.425781 L 5.234375 12.664062 L 6.332031 11 Z M 6.171875 13.519531 L 5.597656 15.382812 L 4.507812 14.519531 L 5.1875 12.753906 Z M 7.128906 16.203125 L 6.992188 18.011719 L 5.441406 17.289062 L 5.621094 15.511719 Z M 8.917969 18.613281 L 9 20.132812 L 7.199219 19.667969 L 7.042969 18.132812 Z M 11.105469 21.511719 L 11.078125 20.433594 L 13.0625 20.332031 L 12.886719 21.421875 Z M 16.640625 19.199219 L 15.046875 19.824219 L 15.195312 18.308594 L 16.855469 17.667969 L 16.648438 19.195312 Z M 15.195312 18.203125 L 15.097656 16.394531 L 16.71875 15.78125 L 16.863281 17.558594 Z M 16.746094 15.652344 L 16.246094 13.769531 L 17.359375 13.058594 L 17.976562 14.851562 Z M 18.320312 11.207031 L 18.070312 12.054688 L 16.953125 10.523438 L 17.164062 9.828125 L 18.316406 11.179688 Z M 16.933594 9.023438 L 17.070312 9.675781 L 15.546875 8.617188 L 15.546875 8.613281 L 15.457031 8.148438 L 16.910156 8.988281 Z M 11.035156 6.734375 L 11.007812 6.738281 L 10.75 6.578125 L 11.617188 6.546875 L 11.566406 6.714844 Z M 10.933594 6.75 L 10.515625 6.824219 L 10.472656 6.839844 L 9.855469 6.71875 L 10.632812 6.585938 L 10.660156 6.582031 Z M 9.4375 7.464844 L 7.757812 7.820312 L 8.132812 7.4375 L 8.167969 7.414062 L 9.621094 7.269531 L 9.445312 7.453125 Z M 7.457031 8.933594 L 5.90625 10.148438 L 5.820312 9.457031 L 5.828125 9.445312 L 7.394531 8.449219 Z M 6.296875 10.964844 L 5.199219 12.621094 L 4.65625 11.769531 L 5.84375 10.277344 Z M 5.148438 12.722656 L 4.476562 14.46875 L 3.878906 13.519531 L 3.878906 13.496094 L 4.597656 11.867188 Z M 5.574219 15.488281 L 5.394531 17.253906 L 4.28125 16.359375 L 4.273438 16.347656 L 4.484375 14.628906 Z M 6.992188 18.121094 L 7.144531 19.644531 L 5.664062 18.949219 L 5.65625 18.941406 L 5.445312 17.402344 Z M 7.15625 19.757812 L 7.167969 19.761719 L 7.578125 20.882812 L 6.289062 20.273438 L 6.257812 20.25 L 5.707031 19.078125 Z M 14.597656 21.070312 L 12.9375 21.414062 L 13.113281 20.328125 L 14.96875 19.953125 L 14.601562 21.070312 Z M 17.898438 18.355469 L 16.703125 19.160156 L 16.910156 17.648438 L 18.167969 16.8125 L 17.917969 18.332031 Z M 18.175781 16.6875 L 16.910156 17.527344 L 16.765625 15.761719 L 18 14.957031 L 18.179688 16.683594 Z M 18.78125 13.886719 L 18.015625 14.808594 L 17.402344 13.027344 L 18.101562 12.207031 L 18.785156 13.875 Z M 15.445312 8.082031 L 15.441406 8.0625 L 15.15625 7.679688 L 16.296875 8.25 L 16.421875 8.335938 L 16.832031 8.886719 Z M 14.214844 7.121094 L 13.070312 7.085938 L 13.042969 7.066406 L 12.746094 6.9375 L 13.546875 6.847656 L 13.605469 6.863281 Z M 12.652344 6.898438 L 12.617188 6.882812 L 12.234375 6.792969 L 12.632812 6.636719 L 12.671875 6.640625 L 13.402344 6.816406 Z M 12.148438 6.773438 L 12.121094 6.765625 L 11.617188 6.71875 L 11.671875 6.546875 L 12.519531 6.625 Z M 9.71875 6.742188 L 10.378906 6.871094 L 10.0625 6.980469 L 10.023438 7 L 9.003906 6.976562 L 9.660156 6.753906 Z M 8.808594 7.042969 L 8.863281 7.023438 L 9.941406 7.050781 L 9.699219 7.191406 L 9.675781 7.214844 L 8.273438 7.351562 Z M 7.585938 7.871094 L 6.273438 8.570312 L 6.753906 8.078125 L 6.992188 7.9375 L 7.929688 7.503906 L 7.597656 7.84375 Z M 6.15625 8.691406 L 7.558594 7.941406 L 7.386719 8.386719 L 7.386719 8.394531 L 5.859375 9.367188 L 6.109375 8.738281 Z M 5.8125 10.230469 L 5.816406 10.230469 L 4.648438 11.695312 L 4.554688 10.855469 L 4.574219 10.808594 L 5.730469 9.535156 Z M 3.777344 12.484375 L 3.925781 12.113281 L 4.46875 10.980469 L 4.558594 11.804688 L 4.566406 11.816406 L 3.867188 13.394531 Z M 5.382812 17.375 L 5.390625 17.378906 L 5.597656 18.898438 L 4.554688 18.046875 L 4.527344 18.007812 L 4.285156 16.492188 Z M 9.945312 22.144531 L 11.121094 22.257812 L 11.148438 22.300781 L 10.199219 22.210938 Z M 11.160156 22.207031 L 11.113281 21.613281 L 12.855469 21.523438 L 12.59375 22.132812 Z M 14.621094 21.167969 L 15.925781 20.652344 L 15.28125 21.273438 L 15.167969 21.351562 L 14.109375 21.769531 L 14.601562 21.171875 Z M 18.226562 16.777344 L 18.234375 16.769531 L 18.992188 15.851562 L 18.761719 17.128906 L 18.691406 17.378906 L 17.980469 18.253906 Z M 18.996094 15.683594 L 18.222656 16.628906 L 18.046875 14.925781 L 18.8125 14.007812 L 19.007812 15.640625 Z M 18.140625 12.164062 L 18.144531 12.160156 L 18.394531 11.316406 L 19.050781 12.769531 L 19.070312 12.867188 L 18.808594 13.796875 Z M 17.488281 9.453125 L 17.714844 9.753906 L 17.035156 9.027344 L 17.027344 8.980469 L 16.988281 8.929688 Z M 8.027344 7.402344 L 7.484375 7.65625 L 7.714844 7.519531 L 8.054688 7.371094 Z M 5.71875 9.445312 L 5.722656 9.46875 L 4.628906 10.671875 L 4.917969 9.960938 L 5.925781 8.925781 Z M 3.785156 13.554688 L 3.800781 13.582031 L 3.605469 15.011719 L 3.5625 14.570312 L 3.527344 14.230469 L 3.714844 12.894531 Z M 4.203125 16.429688 L 4.226562 16.445312 L 4.460938 17.894531 L 3.929688 17.03125 L 3.679688 15.578125 Z M 12.652344 22.121094 L 12.910156 21.519531 L 14.523438 21.1875 L 14.011719 21.808594 L 13.980469 21.820312 L 13.703125 21.90625 Z M 15.527344 21.105469 L 16.050781 20.605469 L 16.101562 20.585938 L 16.664062 20.207031 L 16.085938 20.730469 Z M 17.898438 18.847656 L 17.59375 19.222656 L 17.414062 19.449219 L 17.929688 18.457031 L 17.960938 18.4375 L 17.96875 18.429688 L 18.433594 17.855469 Z M 19.292969 14.617188 L 19.042969 15.515625 L 18.859375 13.953125 L 18.871094 13.9375 L 19.105469 13.117188 Z M 19.292969 14.617188 " fill-opacity="1" fill-rule="nonzero"/></g><g fill="#292828" fill-opacity="1"><g transform="translate(22.895486, 19.39185)"><g><path d="M 5.453125 0.296875 C 4.546875 0.296875 3.753906 0.179688 3.078125 -0.046875 C 2.410156 -0.273438 1.863281 -0.597656 1.4375 -1.015625 C 1.007812 -1.429688 0.707031 -1.921875 0.53125 -2.484375 C 0.363281 -3.046875 0.320312 -3.660156 0.40625 -4.328125 L 2.015625 -4.71875 C 1.898438 -4.289062 1.882812 -3.882812 1.96875 -3.5 C 2.0625 -3.113281 2.253906 -2.769531 2.546875 -2.46875 C 2.835938 -2.164062 3.226562 -1.925781 3.71875 -1.75 C 4.207031 -1.582031 4.796875 -1.5 5.484375 -1.5 C 6.191406 -1.5 6.757812 -1.582031 7.1875 -1.75 C 7.613281 -1.925781 7.925781 -2.148438 8.125 -2.421875 C 8.320312 -2.691406 8.421875 -2.984375 8.421875 -3.296875 C 8.421875 -3.523438 8.382812 -3.734375 8.3125 -3.921875 C 8.238281 -4.109375 8.113281 -4.273438 7.9375 -4.421875 C 7.757812 -4.578125 7.503906 -4.710938 7.171875 -4.828125 C 6.835938 -4.941406 6.410156 -5.046875 5.890625 -5.140625 L 3.890625 -5.453125 C 2.816406 -5.617188 2.015625 -5.9375 1.484375 -6.40625 C 0.953125 -6.875 0.6875 -7.46875 0.6875 -8.1875 C 0.6875 -8.707031 0.796875 -9.15625 1.015625 -9.53125 C 1.242188 -9.90625 1.550781 -10.210938 1.9375 -10.453125 C 2.332031 -10.703125 2.789062 -10.882812 3.3125 -11 C 3.832031 -11.125 4.390625 -11.1875 4.984375 -11.1875 C 5.554688 -11.1875 6.09375 -11.132812 6.59375 -11.03125 C 7.101562 -10.925781 7.566406 -10.765625 7.984375 -10.546875 C 8.398438 -10.335938 8.753906 -10.054688 9.046875 -9.703125 C 9.347656 -9.347656 9.566406 -8.921875 9.703125 -8.421875 C 9.847656 -7.921875 9.890625 -7.335938 9.828125 -6.671875 L 8.1875 -6.234375 C 8.300781 -6.722656 8.320312 -7.148438 8.25 -7.515625 C 8.1875 -7.878906 8.046875 -8.179688 7.828125 -8.421875 C 7.609375 -8.671875 7.34375 -8.863281 7.03125 -9 C 6.726562 -9.144531 6.394531 -9.25 6.03125 -9.3125 C 5.664062 -9.375 5.300781 -9.40625 4.9375 -9.40625 C 4.09375 -9.40625 3.453125 -9.265625 3.015625 -8.984375 C 2.578125 -8.710938 2.359375 -8.316406 2.359375 -7.796875 C 2.359375 -7.515625 2.421875 -7.257812 2.546875 -7.03125 C 2.671875 -6.8125 2.878906 -6.625 3.171875 -6.46875 C 3.460938 -6.320312 3.859375 -6.203125 4.359375 -6.109375 L 6.28125 -5.828125 C 7.195312 -5.671875 7.929688 -5.46875 8.484375 -5.21875 C 9.046875 -4.96875 9.457031 -4.65625 9.71875 -4.28125 C 9.976562 -3.90625 10.109375 -3.457031 10.109375 -2.9375 C 10.109375 -2.40625 9.984375 -1.9375 9.734375 -1.53125 C 9.484375 -1.132812 9.140625 -0.800781 8.703125 -0.53125 C 8.273438 -0.257812 7.78125 -0.0546875 7.21875 0.078125 C 6.65625 0.222656 6.066406 0.296875 5.453125 0.296875 Z M 5.453125 0.296875 "/></g></g></g><g fill="#292828" fill-opacity="1"><g transform="translate(33.401061, 19.39185)"><g><path d="M 2.84375 0 L 1 0 L 1 -10.875 L 6.484375 -10.875 C 7.960938 -10.875 9.070312 -10.597656 9.8125 -10.046875 C 10.5625 -9.503906 10.9375 -8.648438 10.9375 -7.484375 C 10.9375 -6.398438 10.554688 -5.582031 9.796875 -5.03125 C 9.046875 -4.476562 7.953125 -4.203125 6.515625 -4.203125 L 2.84375 -4.203125 Z M 6.59375 -5.046875 C 7.125 -5.046875 7.59375 -5.117188 8 -5.265625 C 8.40625 -5.410156 8.722656 -5.632812 8.953125 -5.9375 C 9.179688 -6.238281 9.296875 -6.625 9.296875 -7.09375 C 9.296875 -7.582031 9.191406 -7.972656 8.984375 -8.265625 C 8.773438 -8.554688 8.476562 -8.765625 8.09375 -8.890625 C 7.707031 -9.023438 7.25 -9.09375 6.71875 -9.09375 L 2.84375 -9.09375 L 2.84375 -5.046875 Z M 6.59375 -5.046875 "/></g></g></g><g fill="#292828" fill-opacity="1"><g transform="translate(44.590297, 19.39185)"><g><path d="M 11.796875 0 L 9.921875 0 L 9.921875 -5.171875 L 2.875 -5.171875 L 2.875 0 L 1 0 L 1 -10.875 L 2.875 -10.875 L 2.875 -6.015625 L 9.921875 -6.015625 L 9.921875 -10.875 L 11.796875 -10.875 Z M 11.796875 0 "/></g></g></g><g fill="#292828" fill-opacity="1"><g transform="translate(57.374738, 19.39185)"><g><path d="M 1 0 L 1 -10.875 L 10.0625 -10.875 L 10.0625 -9.140625 L 2.84375 -9.140625 L 2.84375 -6.0625 L 8.609375 -6.0625 L 8.609375 -5.3125 L 2.84375 -5.328125 L 2.84375 -1.71875 L 10.09375 -1.71875 L 10.09375 0 Z M 1 0 "/></g></g></g><g fill="#292828" fill-opacity="1"><g transform="translate(67.910698, 19.39185)"><g><path d="M 11.109375 0 L 9.359375 0 C 9.316406 -0.113281 9.269531 -0.226562 9.21875 -0.34375 C 9.175781 -0.46875 9.125 -0.628906 9.0625 -0.828125 C 9.007812 -1.035156 8.953125 -1.316406 8.890625 -1.671875 L 8.75 -2.34375 C 8.644531 -2.863281 8.484375 -3.296875 8.265625 -3.640625 C 8.054688 -3.984375 7.773438 -4.238281 7.421875 -4.40625 C 7.066406 -4.582031 6.625 -4.671875 6.09375 -4.671875 L 2.84375 -4.671875 L 2.84375 0 L 1 0 L 1 -10.875 L 7.015625 -10.875 C 7.546875 -10.875 8.046875 -10.820312 8.515625 -10.71875 C 8.984375 -10.613281 9.394531 -10.445312 9.75 -10.21875 C 10.101562 -10 10.378906 -9.695312 10.578125 -9.3125 C 10.785156 -8.9375 10.890625 -8.476562 10.890625 -7.9375 C 10.890625 -6.988281 10.601562 -6.28125 10.03125 -5.8125 C 9.457031 -5.34375 8.65625 -5.082031 7.625 -5.03125 L 7.625 -5.015625 C 8.394531 -4.941406 9.015625 -4.703125 9.484375 -4.296875 C 9.953125 -3.898438 10.257812 -3.335938 10.40625 -2.609375 L 10.53125 -1.96875 C 10.601562 -1.632812 10.6875 -1.300781 10.78125 -0.96875 C 10.882812 -0.632812 10.992188 -0.3125 11.109375 0 Z M 2.84375 -5.5 L 6.859375 -5.5 C 7.328125 -5.5 7.738281 -5.554688 8.09375 -5.671875 C 8.457031 -5.785156 8.738281 -5.984375 8.9375 -6.265625 C 9.132812 -6.546875 9.234375 -6.941406 9.234375 -7.453125 C 9.234375 -7.785156 9.164062 -8.0625 9.03125 -8.28125 C 8.90625 -8.5 8.726562 -8.664062 8.5 -8.78125 C 8.28125 -8.894531 8.03125 -8.972656 7.75 -9.015625 C 7.46875 -9.066406 7.171875 -9.09375 6.859375 -9.09375 L 2.84375 -9.09375 Z M 2.84375 -5.5 "/></g></g></g><g fill="#292828" fill-opacity="1"><g transform="translate(79.289839, 19.39185)"><g><path d="M 1 0 L 1 -10.875 L 10.0625 -10.875 L 10.0625 -9.140625 L 2.84375 -9.140625 L 2.84375 -6.0625 L 8.609375 -6.0625 L 8.609375 -5.3125 L 2.84375 -5.328125 L 2.84375 -1.71875 L 10.09375 -1.71875 L 10.09375 0 Z M 1 0 "/></g></g></g></svg>