<svg width="170" height="44" viewBox="0 0 170 44" fill="none" xmlns="http://www.w3.org/2000/svg">
<path d="M63.4505 31C56.9992 31 53 27.058 53 21C53 14.942 56.9992 11 63.4505 11C69.5223 11 73.4339 14.0145 73.4339 18.942V19.3768H68.559V18.942C68.559 16.3913 67.0994 15.1739 63.5381 15.1739C59.2469 15.1739 57.6414 16.6812 57.6414 21C57.6414 25.3188 59.2469 26.8261 63.5381 26.8261C67.0994 26.8261 68.559 25.6087 68.559 23.058V22.6232H73.4339V23.058C73.4339 27.9855 69.5515 31 63.4505 31Z" fill="black"/>
<path d="M78.0461 30.7101H73.142L81.695 11.2899H87.942L96.5534 30.7101H91.5325L89.6934 26.4203H79.9144L78.0461 30.7101ZM83.4465 18.2754L81.6075 22.5072H88.0003L86.1613 18.2754L84.9644 15.2609H84.6433L83.4465 18.2754Z" fill="black"/>
<path d="M105.573 31C99.6474 31 96.3196 28.6812 96.3196 24.1594V23.9855H100.698V24.5072C100.698 26.3043 101.603 27.029 105.573 27.029C109.076 27.029 109.894 26.5072 109.894 25.2029C109.894 24.0145 109.222 23.5797 107.208 23.2319L101.72 22.4493C98.2171 21.8986 96.1445 20.1594 96.1445 17C96.1445 14.0725 98.5382 11 105.106 11C111.12 11 113.922 13.7536 113.922 17.8406V18.0145H109.514V17.6087C109.514 15.7536 108.551 14.971 104.668 14.971C101.516 14.971 100.552 15.5797 100.552 16.8261C100.552 17.9565 101.195 18.3623 102.829 18.6522L108.317 19.5217C112.696 20.2174 114.272 22.3333 114.272 25C114.272 28.1594 111.791 31 105.573 31Z" fill="black"/>
<path d="M119.558 30.7101H115.18V11.2899H125.397C129.921 11.2899 132.84 13.8406 132.84 18.3043C132.84 22.7681 129.921 25.3478 125.397 25.3478H119.558V30.7101ZM124.93 15.2029H119.558V21.4348H124.93C127.352 21.4348 128.491 20.7391 128.491 18.3043C128.491 15.9275 127.352 15.2029 124.93 15.2029Z" fill="black"/>
<path d="M150.069 30.7101H133.518V11.2899H150.069V15.2029H137.896V19H149.631V22.8841H137.896V26.7971H150.069V30.7101Z" fill="black"/>
<path d="M155.55 30.7101H151.172V11.2899H161.972C166.789 11.2899 169.533 13.4058 169.533 17.1159C169.533 20.2754 167.694 22.1594 164.016 22.5072V22.7391C165.767 23.2029 166.439 24.1304 167.168 25.4928L170 30.7101H164.921L162.235 25.6667C161.447 24.1594 160.717 23.6667 158.44 23.6667H155.55V30.7101ZM155.55 15.2029V20.3913H161.943C164.016 20.3913 164.95 19.8116 164.95 17.7826C164.95 15.8696 164.016 15.2029 161.943 15.2029H155.55Z" fill="black"/>
<circle cx="22" cy="22" r="20.5" fill="black" stroke="url(#paint0_linear_160_6585)" stroke-width="3"/>
<path d="M28.625 14.875C27.2653 13.5152 25.5329 12.5892 23.6468 12.2141C21.7608 11.8389 19.8059 12.0315 18.0293 12.7674C16.2527 13.5033 14.7342 14.7494 13.6659 16.3483C12.5975 17.9472 12.0273 19.827 12.0273 21.75C12.0273 23.673 12.5975 25.5528 13.6659 27.1517C14.7342 28.7506 16.2527 29.9967 18.0293 30.7326C19.8059 31.4685 21.7608 31.6611 23.6468 31.2859C25.5329 30.9108 27.2653 29.9848 28.625 28.625" stroke="white" stroke-width="4" stroke-linecap="round"/>
<defs>
<linearGradient id="paint0_linear_160_6585" x1="8.58" y1="4.18" x2="35.86" y2="40.7" gradientUnits="userSpaceOnUse">
<stop stop-color="#FF7557"/>
<stop offset="0.31087" stop-color="#DE35FF"/>
<stop offset="0.704599" stop-color="#173EFF"/>
<stop offset="1" stop-color="#16F1FF"/>
</linearGradient>
</defs>
</svg>
