<svg width="183" height="172" viewBox="0 0 183 172" fill="none" xmlns="http://www.w3.org/2000/svg">
<mask id="mask0_335_854" style="mask-type:alpha" maskUnits="userSpaceOnUse" x="0" y="0" width="183" height="172">
<rect width="183" height="172" rx="8" fill="#FF5621"/>
</mask>
<g mask="url(#mask0_335_854)">
<path d="M204.579 107.563C204.579 107.426 204.539 107.29 204.506 107.152V107.064C204.506 106.959 204.45 106.847 204.417 106.742L204.361 106.566L204.296 106.397C204.256 106.292 204.207 106.189 204.159 106.084H204.16C203.548 104.794 202.391 103.848 201.007 103.502C196.328 101.84 192.501 98.3833 190.377 93.8941L190.28 93.7097L190.224 93.5886V93.5321L190.078 93.2911L189.918 93.0906L189.781 92.9142L189.612 92.7056L189.499 92.5845L189.266 92.3516L189.163 92.2857L188.857 92.0366C187.851 91.295 186.597 90.972 185.358 91.1361L184.931 91.2169H184.835L184.497 91.3138L184.304 91.3865L184.063 91.4834H183.982L183.774 91.5884L183.677 91.6369L183.678 91.6342C180.977 93.1323 177.936 93.9103 174.848 93.8941C169.803 93.8968 164.965 91.898 161.392 88.3378C157.819 84.7776 155.803 79.9466 155.789 74.9033C155.756 70.8734 157.041 66.9442 159.448 63.7113C159.545 63.5821 159.632 63.4543 159.713 63.317C159.794 63.1878 159.865 63.0518 159.93 62.9064C159.994 62.7691 160.051 62.6332 160.098 62.4878C160.146 62.3425 160.189 62.1985 160.227 62.0531C160.227 61.9319 160.284 61.8122 160.3 61.6829V61.586V61.2401V61.018V60.6963V60.559V60.2292V60.1C160.3 59.995 160.3 59.8833 160.235 59.7783V59.641L160.212 59.322L160.164 59.1538L160.067 58.9128L159.986 58.7204L159.889 58.5279L159.768 58.295L159.655 58.1268L159.51 57.9101L159.364 57.7257L159.212 57.5332L159.011 57.3246L158.844 57.2317C154.853 53.6205 152.582 48.4866 152.596 43.1039V42.4928V42.05V41.9948C152.596 41.8494 152.575 41.7081 152.532 41.5681V41.5694C152.197 39.9246 151.029 38.5719 149.451 37.9986C130.182 30.9119 109 31.0167 89.7999 38.2933C70.602 45.5712 54.6734 59.5336 44.9475 77.6133L44.8828 77.7345C38.227 90.1166 34.7481 103.958 34.7588 118.016C34.8531 136.308 40.7846 154.093 51.691 168.779C62.5974 183.465 77.907 194.289 95.3923 199.672C95.5714 199.736 95.7531 199.79 95.9389 199.833C103.762 202.078 111.86 203.225 119.999 203.241C125.359 203.252 130.708 202.749 135.97 201.738C136.144 201.714 136.315 201.679 136.485 201.634C155.855 197.808 173.296 187.38 185.835 172.131C198.374 156.882 205.233 137.756 205.242 118.015C205.246 114.52 205.022 111.029 204.575 107.563L204.579 107.563ZM77.1318 55.752C81.3617 59.6998 83.1618 65.6035 81.8573 71.2391C80.5514 76.8747 76.3374 81.3866 70.8031 83.0747C65.2684 84.7626 59.2546 83.3695 55.0248 79.4215C60.6049 70.0331 68.1451 61.9582 77.1318 55.752ZM131.907 192.66C121.542 194.278 110.956 193.776 100.793 191.181C100.518 190.006 100.381 188.803 100.382 187.595C100.382 181.812 103.468 176.468 108.479 173.575C113.488 170.684 119.661 170.684 124.67 173.575C129.68 176.468 132.767 181.811 132.767 187.595C132.753 189.32 132.464 191.031 131.907 192.66ZM142.257 190.248H142.255C142.352 189.352 142.401 188.45 142.401 187.547C142.401 178.319 137.476 169.79 129.482 165.175C121.487 160.56 111.637 160.56 103.643 165.175C95.6487 169.79 90.724 178.319 90.724 187.547V187.725C78.4242 182.553 67.7119 174.223 59.6706 163.577C51.6306 152.931 46.5485 140.349 44.941 127.107C43.3336 113.865 45.2561 100.432 50.5147 88.1727C57.3701 93.2177 66.2689 94.5637 74.3088 91.7719C82.3487 88.9802 88.4986 82.4089 90.7509 74.2024C93.0019 65.9973 91.0673 57.2077 85.5771 50.7052C103.394 41.7206 124.016 40.0408 143.054 46.0265C143.631 51.6703 145.87 57.0179 149.486 61.3913C147.266 65.5342 146.114 70.166 146.133 74.8661C146.138 82.4765 149.166 89.7733 154.551 95.1519C159.936 100.53 167.238 103.55 174.85 103.545C177.951 103.558 181.033 103.058 183.97 102.066C186.847 106.18 190.758 109.464 195.308 111.585C195.501 113.716 195.598 115.871 195.598 118.018C195.587 134.174 190.404 149.904 180.807 162.903C171.211 175.903 157.704 185.489 142.265 190.259L142.257 190.248ZM120.004 93.8969C114.402 93.8969 109.029 96.1219 105.067 100.082C101.105 104.043 98.8798 109.415 98.8784 115.016C98.8784 120.617 101.102 125.99 105.063 129.951C109.024 133.913 114.397 136.139 119.999 136.14C125.601 136.142 130.975 133.918 134.937 129.958C138.901 126 141.127 120.628 141.13 115.027C141.123 109.426 138.897 104.057 134.936 100.096C130.975 96.1343 125.606 93.9052 120.004 93.8973V93.8969ZM120.004 126.508C116.959 126.508 114.038 125.298 111.884 123.145C109.731 120.992 108.521 118.071 108.521 115.027C108.521 111.982 109.731 109.061 111.884 106.908C114.038 104.755 116.959 103.545 120.004 103.545C123.049 103.545 125.971 104.755 128.125 106.908C130.278 109.061 131.488 111.982 131.488 115.027C131.48 118.067 130.267 120.981 128.114 123.13C125.961 125.279 123.045 126.488 120.004 126.492L120.004 126.508ZM116.788 75.9447C114.983 74.1329 113.97 71.6791 113.973 69.123C113.976 66.5656 114.993 64.1146 116.803 62.3069C118.612 60.5005 121.065 59.4857 123.623 59.4857C126.181 59.4857 128.634 60.5005 130.443 62.3069C132.253 64.1146 133.27 66.5656 133.273 69.123C133.276 71.6791 132.263 74.1329 130.458 75.9447C128.646 77.7591 126.185 78.7767 123.62 78.774C121.054 78.7713 118.596 77.747 116.788 75.9285L116.788 75.9447ZM80.8171 125.923C82.6225 127.733 83.6349 130.187 83.6322 132.744C83.6282 135.3 82.6104 137.753 80.801 139.559C78.9916 141.365 76.5388 142.382 73.9822 142.382C71.4242 142.382 68.9713 141.365 67.1619 139.559C65.3525 137.753 64.3347 135.3 64.3321 132.744C64.328 130.187 65.3404 127.733 67.1458 125.923C68.9565 124.105 71.4163 123.085 73.9822 123.085C76.5469 123.085 79.0064 124.105 80.8171 125.923ZM167.451 137.315C169.257 139.127 170.269 141.579 170.265 144.137C170.262 146.694 169.244 149.145 167.435 150.951C165.626 152.759 163.173 153.774 160.615 153.774C158.058 153.774 155.605 152.759 153.796 150.951C151.987 149.145 150.969 146.694 150.965 144.137C150.962 141.579 151.974 139.127 153.78 137.315C155.591 135.498 158.05 134.478 160.615 134.478C163.181 134.478 165.64 135.498 167.451 137.315Z" fill="#EEF0F3"/>
</g>
</svg>
